<svg xmlns="http://www.w3.org/2000/svg" id="Layer_1" viewBox="0 0 90 95">
  <style>
    .st0{fill:#E9579E;} .st1{fill:#EDB283;} .st2{fill:#603913;} .st3{fill:#FFFFFF;} .st4{fill:#BE1E2D;} .st5{fill:#911A1F;} .st6{fill:#262262;}
  </style>
  <path d="M17 50.3s4.3-14.6 4.9-17.6c.6-3 4.7-3 4.7-3s4.7 4.9 9.8 0c1.3 0 4.2-.4 4.9 2.3.7 2.7 4.4 17.4 4.4 17.4l-3.7.7-5.1-12.6c-.2 1.7-.3 3.3-.3 5-.1 2.8-.3 6 1.5 8.3 3.4 4.5 5.6 10 7.8 15.2H18.1c1.1-3.3 2.3-6.6 3.6-9.8.5-1.1.9-2.3 1.5-3.3.7-1.3 1.6-2.4 2-3.8.3-1.1.5-2.3.6-3.5.2-2.2.2-4.4.1-6.7 0-.4 0-.7-.1-1.1L21 50.7l-4-.4z" class="st0"/>
  <circle cx="31.4" cy="20.7" r="6.5" class="st1"/>
  <path d="M25 19.6c4.2-.2 6.5-5.4 6.5-5.4S26 14 25 19.6z" class="st2"/>
  <path d="M37.8 19.6c-4.2-.2-6.5-5.4-6.5-5.4s5.5-.2 6.5 5.4z" class="st2"/>
  <path d="M26.7 29.7c2.2-.7 3.1-3.1 3.1-3.1l3.6-.1s1.5 2.8 3.1 3.2c-1.1 1.4-5.4 4.3-9.8 0z" class="st1"/>
  <circle cx="62" cy="17.8" r="5.7" class="st1"/>
  <path d="M58.2 25.6c2.2-.7 2.1-3.1 2.1-3.1l3.9-.1s.4 2.9 2 3.2c-1.2 1.4-4.9 4.2-8 0z" class="st1"/>
  <path d="M26.7 15.6s-3.6-3.9-5.5-2.5c-.8.6-.8 2.2-.8 3.1 0 1.6.2 3.2.3 4.8.1.6.1 1.2.2 1.8.1.7.3 1.5-.1 2.1-.2.3-.6.5-1 .6-.4.1-.8.1-1.2.1 0 0 .6 1 .7 1.1.3.3.7.5 1.1.7 1.5.5 3.1-.1 3.8-1.5.6-1.3.6-2.8.4-4.2-.2-1.7-.8-3.3-1.4-4.9 0-.1-.1-.2-.1-.3 0-.2.2-.3.4-.4.5-.2 1.2-.2 1.8-.1.2 0 1 .2 1.1.1l.3-.5z" class="st2"/>
  <path d="M36.1 15.6s3.6-3.9 5.5-2.5c.8.6.8 2.2.8 3.1 0 1.6-.2 3.2-.3 4.8-.1.6-.1 1.2-.2 1.8-.1.7-.3 1.5.1 2.1.2.3.6.5 1 .6.4.1.8.1 1.2.1 0 0-.6 1-.7 1.1-.3.3-.7.5-1.1.7-1.5.5-3.1-.1-3.8-1.5-.6-1.4-.6-2.9-.4-4.3.2-1.7.8-3.3 1.4-4.9 0-.1.1-.2.1-.3 0-.2-.2-.3-.4-.4-.5-.2-1.2-.2-1.8-.1-.2 0-1 .2-1.1.1l-.3-.4z" class="st2"/>
  <path d="M25.7 16.4c-.3.3.3.7.4.3.4.2.6-.2.5-.3.5 0 .5-.6.3-.6.4-.2.1-.6-.2-.5-.1-.3-.5-.2-.5.1-.2-.1-.4.2-.3.4-.5.1-.3.5-.2.6z" class="st0"/>
  <path d="M36.6 16.6c.2.3.7-.2.3-.4.2-.4-.1-.6-.2-.5 0-.5-.6-.5-.6-.4-.2-.4-.6-.2-.5.1-.3.1-.2.5 0 .5-.1.2.1.4.4.3.1.7.6.5.6.4z" class="st0"/>
  <path d="M27 65.9h2.9s.4 11.7 0 13.1c-.4 2.1-7.1 3.2-7.1 0s4-1.7 4-1.7l.2-11.4z" class="st1"/>
  <path d="M25.8 79v-1.9s-3-.8-3 2.1c0 3.3 7.1 1.6 7.1-.1-.4-.1-4.1-.1-4.1-.1z" class="st0"/>
  <path d="M35.4 65.9h-2.9s-.4 11.7 0 13.1c.4 2.1 7.1 3.2 7.1 0s-4-1.7-4-1.7l-.2-11.4z" class="st1"/>
  <path d="M36.6 79v-1.9s3-.8 3 2.1c0 3.3-7.1 1.6-7.1-.1.4-.1 4.1-.1 4.1-.1z" class="st0"/>
  <path d="M20.3 50.6v.9s1.3.2 1.2.7c-.1.5-1.4 0-1.4 0s.6 1.5.2 1.6c-.4.1-.9-1.5-.9-1.5s-.2 1.7-.8 1.6c-.5-.1 0-1.6 0-1.6s-1 1.4-1.5 1.1c-.5-.3.8-1.6.8-1.6s-1.7.7-1.7.2c0-.6 1.6-.9 1.6-.9l.1-.8 2.4.3z" class="st1"/>
  <path d="M42.9 50v.9s-1.3.3-1.2.8c.1.5 1.3-.1 1.3-.1s-.4 1.4 0 1.5.8-1.5.8-1.5.3 1.7.9 1.5c.5-.1-.2-1.6-.2-1.6s1.1 1.4 1.5 1c.4-.4-.9-1.5-.9-1.5s1.7.6 1.7.1c-.1-.6-1.6-.8-1.6-.8l-.1-.8-2.2.5z" class="st1"/>
  <path d="M52.6 48.9v.9s1.3.2 1.2.7c-.1.5-1.3 0-1.3 0s.6 1.4.2 1.6c-.4.1-.9-1.4-.9-1.4s-.2 1.6-.7 1.6c-.5-.1 0-1.6 0-1.6s-1 1.4-1.4 1.1.8-1.5.8-1.5-1.6.7-1.6.2c0-.6 1.5-.9 1.5-.9l.1-.7h2.1z" class="st1"/>
  <path d="M72.8 49.2l.2.7s-1.1.2-1 .6c.1.4 1.2-.1 1.2-.1s-.5 1.3-.1 1.4.8-1.3.8-1.3.2 1.4.7 1.4c.5-.1-.1-1.4-.1-1.4s.9 1.2 1.3.9c.4-.3-.7-1.3-.7-1.3s1.5.6 1.4.1c0-.5-1.4-.7-1.4-.7v-.7l-2.3.4z" class="st1"/>
  <path d="M27.8 20.7c.6.8 2.4 1 2.9 0-.5-.8-1.9-1.1-2.9 0z" class="st3"/>
  <circle cx="29.3" cy="20.7" r=".7" class="st2"/>
  <circle cx="29.2" cy="20.7" r=".2"/>
  <circle cx="29.1" cy="20.5" r=".1" class="st3"/>
  <path d="M34.9 20.7c-.6.8-2.4 1-2.9 0 .5-.8 2-1.1 2.9 0z" class="st3"/>
  <circle cx="33.5" cy="20.7" r=".7" class="st2"/>
  <circle cx="33.5" cy="20.7" r=".2"/>
  <circle cx="33.7" cy="20.5" r=".1" class="st3"/>
  <path d="M31.4 24.1s-.4-.3-.9-.1c-.5.2-1.6.2-1.6.2s1.5.8 2.6.8c1.2 0 2.4-.9 2.4-.9s-.9 0-1.7-.2c-.7 0-.8.2-.8.2z" class="st4"/>
  <path d="M54.1 78.6s-3.7.3-3.4 2.3c.3 1.9 5.7 1 5.9.3s.2-2.6.2-2.6h-2.7" class="st5"/>
  <path d="M68 78.6s3.7.3 3.4 2.3c-.3 1.9-5.7 1-5.9.3s-.2-2.6-.2-2.6H68" class="st5"/>
  <path d="M59.1 17.4c.5.7 2 .8 2.4 0-.4-.7-1.6-.9-2.4 0z" class="st3"/>
  <circle cx="60.3" cy="17.4" r=".6" class="st2"/>
  <circle cx="60.3" cy="17.4" r=".2"/>
  <circle cx="60.1" cy="17.3" r=".1" class="st3"/>
  <path d="M65 17.4c-.5.7-2 .8-2.4 0 .4-.7 1.6-.9 2.4 0z" class="st3"/>
  <circle cx="63.8" cy="17.4" r=".6" class="st2"/>
  <circle cx="63.8" cy="17.4" r=".2"/>
  <circle cx="64" cy="17.3" r=".1" class="st3"/>
  <path d="M62.1 20.3s-.3-.3-.7-.1c-.4.2-1.4.2-1.4.2s1.2.7 2.2.7c1 0 2-.7 2-.7s-.8 0-1.4-.1c-.6-.2-.7 0-.7 0z" class="st4"/>
  <path d="M60.9 14.6s4 2.3 6.8 2.4c-1.1-5.7-6.5-4.7-6.5-4.7v-1.1l-.7 1-.9-.5.3.8s-2.4 1-3.3 3.7c1.5.3 3.5-1.6 3.5-1.6l.5.5.3-.5z" class="st2"/>
  <path d="M54.7 50.3h14.5l1.4 29.1h-6.4l-2.4-19-4 19h-6.1z" class="st6"/>
  <path d="M54.7 50.3l1.3-17L52.8 49l-3.5-.4s3.9-18.1 4.3-20.3c.4-2.7 4.1-2.7 4.7-2.7 3.8 4.9 8 0 8 0s3.9.1 4.4 2.4 5 20.6 5 20.6l-3.9.7-3.5-15.9.9 16.8H54.7z" class="st5"/>
</svg>
