<svg xmlns="http://www.w3.org/2000/svg" id="Layer_1" viewBox="0 0 300 250">
  <style>
    .st0{fill:#D42380;}
  </style>
  <path d="M262.1 141.8c-2.5-8.4 2.2-21 .8-29.9s-13-25.8-13-25.8c-2.1-10.5-2.5-25-6.7-33.1s-12.8-8.8-18.6-22-3.4-18 6-20.2 10.1 7.6 8.7 11.8c-1.5 4.3-3.4 4.5-6.3 4.3s-3.8-5.8-3.8-5.8 1.1 2.4 4 1.7 1.9-9.8-3.6-6.6c-10.6 9 13 25.8 18.3 32.9s7.4 35.3 7.4 35.3 12.5 17.5 13.5 27.5c1.1 10-2.8 22.1-2.1 26.6.6 4.4 3.3 9.8 6.5 9.4 3.2-.4 5.6-3.1 2.3-7.9s-3.8 3.5-3.8 3.5-5.2-6.8 2.5-8.7c7.7-1.8 9.3 12.2 3.8 16.2-5.6 4.2-13.4-.9-15.9-9.2z" class="st0"/>
  <path d="M223.2 27.5s2.4 44.3 6.6 58.9c6.4 24.1 33.2 57.7 33.2 57.7l-.7-6.2s-22.5-30.4-29.8-52.7c-3.1-13.9-7.2-55.3-7.2-55.3l-2.1-2.4z" class="st0"/>
  <path d="M122.5 114.3s-29.9 16.9-20.5 37c-17.8 2.8-12.3 11.3-12.7 15.8-2.9-15.8-21.2-12.4-26.4-18.3-5.9-19.3-15.4-3.5-21.3-2.1-7.5-3.5-16.4-4.1-12 2.8 4.4 6.9 10.8 15.5 24.7 16.7 19.5 4 19.5 38.6 59.6 15.2l1.2 2.4S93.8 198.6 99.2 208c-17.4 1.6-7 18.8-4.3 27.5s23.6 1 18.5-2.7c-5.1-3.7.8-12.3.8-12.3s28.1-20.4 29.9-35.6c1.8-15.2-1.1-20.2-1.5-23.5 47.1-13.8 49-45.7 49-45.7s24.1-2.5 27.4-7.8c7.3-6.3 28.2-3.2 35.2-8.5 6.8-5.2 6.8-29 1-25.8-2 1.1-4.7 2.3-7.1 1.6-1.3-.4-2.2-1.4-3.1-2.4-.2-.2-.4-.5-.7-.7-1-.5-1.3 1.8-1.3 2.5 0 .8.2 1.6.4 2.3.4 1.5 1.2 3 1.3 4.6.1 2-.9 3.6-2.3 4.9-1.3 1.2-2.9 2.1-4.5 2.9-1.9.9-1.9-13.4-5.7-8.4s-10 4.4-10 4.4 1.5-9.9-1.9-7.9c-3.4 1.9-.9 17-9.6 13s-23 2.4-23 2.4l-4.3-8.4s9.6-2 18.5-7c3.5-1.9 6-4.7 5.8-8.9-.3-6.1-4-12.3-6.7-17.6-.5-1-1.1-1.9-1.5-2.9-.2-.5-.2-1-.3-1.5-1.2-10.6-2.2-16-9.6-24.2-5-5.5-11.9-8.7-19.3-9.1-7.4-.4-14.9 1.7-21.4 5.2-6.7 3.6-12.8 8.8-17.2 15-4.1 5.9-6.8 13-6.5 20.4.1 3 .5 3.4 1.6 6.2-12.3 1.9-31.1-6.2-36.3-9.3-5.3-3.1-7.3-15.2-7.3-15.2s-2.1 9.3 2.4 14.5c-3.7 1.1-10-19.8-10-19.8S72.8 51 87 61.4c-3.2 1.4-8.6-7.9-8.6-7.9s.5 9.8 6 14.8c-12.6 9.3-37.3-1.8-41.5-8.7-1.6 2.6 1.8 7.6 1.8 7.6s-5.4 0-9.4-11.5c-5.7 13.7 8.3 19.5 8.3 19.5s-1.5 1.9-8.8-3.6c2.3 16.9 39.6 21.9 39.6 21.9s-19.4-2.6-25.6-5c9.8 15.9 42.9 10 42.9 10s-14 4-27.7 2.2c6 14.9 28.8 11.1 28.8 11.1s-19.9 2.9-27.2 19.7c19.3-14.2 29.7-13.6 29.7-13.6s-9.2 8.2-2.7 14.1c7-13 29.9-17.7 29.9-17.7z" class="st0"/>
</svg>
