<svg xmlns="http://www.w3.org/2000/svg" id="Layer_1" viewBox="0 0 70 75">
  <style>
    .st0{fill:#452C15;} .st1{fill:#65431A;} .st2{fill:#FFFFFF;stroke:#000000;stroke-width:0.85;stroke-miterlimit:10;} .st3{stroke:#000000;stroke-width:0.85;stroke-miterlimit:10;} .st4{fill:#291111;}
  </style>
  <path d="M24.1 55.4s-4.7-4.1-5.4-3.4c.5.7.9 1.5.9 1.5l-5-4.6c.1.9 0 1.3-.4 1.2-.9-.3-2.4-1.2-3-2-1.3 5.7 3.5 6.4 3.5 6.4s-.4.3-2 .1c.6 1.7 4.4 1.8 4.4 1.8s-.5.7-1.4.9C17.5 58.8 19 59 19 59s.4.1-.2.6c.6.8 3.4 0 3.4 0l.6 1 4.8-1.8-3.5-3.4z" class="st0"/>
  <path d="M36.8 15.8s-2.6-3.7-4.6-3.8c.7.9 1.5 2.3 1.5 2.3s-3-2.6-4.3-2.6c-1.3 0-1.2-2.8-4.7-2.9.8 1.2.8 2.7.8 2.7L24 10.4l.6 2.8s-.7 0-1.1-1.1c-.1 1.9 1.7 3.3 1.7 3.3s-.8.1-1.3-.7c-.2 1.3 1.7 2.4 1.7 2.4s0 .4-1.1-.1c.3 1.3 2 1.3 2 1.3s-1 .3-1.3 1.1c.9-.3 2 0 2 0s-2 1.8-1.9 2.7c1.1-.7 1.4-.3 1.4-.3s-1.6 1.7-1.1 3.1c.3-1.3 1.2-1.7 1.2-1.7s-1.2 2.8-.1 3.6c0-.9.6-1.4.6-1.4s5.1 17 13.2 17.6 14.3-17.4 14.3-17.4l.4 1.1v-3.3l1 1.5-.5-3 1 .2-2-2.8s1.1-.3 2 .3c.5-.9-.9-1.4-.9-1.4s1.7.1 2-1.3c-.7.2-1.6 0-1.6 0s1.9-.7 2.1-2.3c-.8.5-1.4.1-1.4.1s2.5-.3 1.9-3.3c-.6.6-1.8 1.3-1.8 1.3s1.3-2 .9-3.3c-.9 1.2-1.7 2.1-1.7 2.1s-.8-1.6 1.2-2.8c-3.2-1.1-3 2.6-5.1 2.6-2.1.1-3.9 2.4-3.9 2.4s.1-.9 1.3-1.7c-1.6-.8-5.2 3.7-5.2 3.7l-7.7.1z" class="st0"/>
  <path d="M34.5 17.1c-.3-4.1-5.4-1.6-8.1-6-.7 2.1 1.4 3.6 1.4 3.6s-.6.3-1.9-.8c-.2 2.1 2.7 2.5 2.7 2.5s-.2.9-2.2-.1c1 2.7 2.1 1.4 2.2 2.3s-1.3 2.8-.3 5.5c1.4.1 6.5-4.5 6.2-7z" class="st1"/>
  <path d="M46.7 17.1c.3-4.1 5.4-1.6 8.1-6 .7 2.1-1.4 3.6-1.4 3.6s.6.3 1.9-.8c.2 2.1-2.7 2.5-2.7 2.5s.2.9 2.2-.1c-1 2.7-2.1 1.4-2.2 2.3s1.3 2.8.3 5.5c-1.4.1-6.5-4.5-6.2-7z" class="st1"/>
  <path d="M33.7 38.7L29 48.1s-4.8-1.9-6 1.3c.6-.2.9-.1.9-.1S22 50.7 22.7 52c.6-.4.8-.3.8-.3s-1.2 1.5-.2 2.5c.3-.4.7-.4.7-.4s-1 1.6 2.6 4.6c-7.4 1.2-3.2 7.8-1.4 6.3 1.2 1.1 2.8.1 3-.2 1.7 1.9 3.6-.3 3.6-.3s.7 2.6 3.1 1.8c1.4 2 3.7.6 3.8.2 1.4.3 1.9-.8 1.9-.8s1 1.5 2.3.7c2.5 1.6 3.5 0 3.7-.3 1.7.6 2.9-1 2.9-1s1.2.2 1.5-.2c1.1 1.2 2.3.2 2.3.2s.9 1.1 2.3-1.1c2.5-5.3-4.1-5.2-4.1-5.2s2.9-3.2 2.7-4.9c.7 0 .9.6.9.6s.1-2-.8-2.8c-.2-.5.9.1.9.1s0-1-1.3-2.2c.7-.2.9.1 1.1.3 0-2.6-5.3-2.3-5.3-2.3s.2-6.4-3.1-10.4c-3.9 3.7-12.9 1.8-12.9 1.8z" class="st0"/>
  <path d="M38 23.1c0 .2 0 .5-.1.7-.2.8-.8 1.3-1.4 1.3-.6 0-1.2-.6-1.4-1.3-.1-.2-.1-.4-.1-.7 0-1.1.7-2 1.5-2s1.5.8 1.5 2z" class="st2"/>
  <path d="M37.9 23.7c-.2.8-.8 1.3-1.4 1.3-.6 0-1.2-.6-1.4-1.3.4-.3.9-.5 1.4-.5.5 0 1 .2 1.4.5z" class="st3"/>
  <path d="M46.1 23.1c0 .2 0 .5-.1.7-.2.8-.8 1.3-1.4 1.3-.6 0-1.2-.6-1.4-1.3-.1-.2-.1-.4-.1-.7 0-1.1.7-2 1.5-2s1.5.8 1.5 2z" class="st2"/>
  <path d="M46 23.7c-.2.8-.8 1.3-1.4 1.3-.6 0-1.2-.6-1.4-1.3.4-.3.9-.5 1.4-.5.5 0 1 .2 1.4.5z" class="st3"/>
  <path d="M40.3 15.6s-1.2-1.9-4.3-1.5c1 .7 1.6 1.2 1.6 1.2s-4.6-.7-7.2 1.4c1.8 0 1.6.4 1.6.4s-6.4 2-4.4 10.8c-1.7 1.8 0 5.2 0 5.2l1.4-3s-2 4.1.7 8.1c0-8.3 2.3-7.6 2.7-7.8C31.2 23 35 19.8 35 19.8s-1.7 2.5-1.1 3.7c.8-2.9 1.8-3 1.8-3s-1.2 2.5 0 4.5c.2-2.1.8-4.3.8-4.3s.1 1.7 1 3.2c-.1-.8-.7-3.9 1.4-5.4-1 2.4 1.7 5.3 1.7 5.3s2.3-1.1 1.2-5.6c2.4.8 2 4.7 1.8 5.5 1.1-.5.9-3.2.9-3.2s1 2.3.8 4c1-.6 0-4 0-4l1.9 2.7-1.2-3.4s4.6 4.4 3 10.9c1-.2 2.9 1.3 2 7.6 1.9-.3 2.3-5.6.9-7.9.8-.9 1.4 2.6 1.4 2.6s2.2-3.1 0-5.2c2.5-7.8-4.2-11-4.2-11s1-.1 2.1.2c-2.4-2.8-6.2-2.2-8-1.8.3-.4.9-.8 2-1-1.6-.9-4.9 1.4-4.9 1.4z" class="st4"/>
  <path d="M40.9 27.7s-.9-2.3-3.2-2.4c1 .6 1.2 1.5 1.2 1.5s-1.4-1-3.2-.6c1.2.1 1.7.9 1.7.9s-3.1-.2-4.8 1.2c.7-.1.9-.3 1.4 0-8.4 6.1-1.9 11.5-1.9 13.3.8-.4.9-2.7.9-2.7s1 1.8-.8 4.1c2.3-.1 2.5-2.7 2.5-2.7s1.3.8-.4 3.4c2 .3 2.1-1.5 2.1-1.5s1.3 1.7 4.4 1.5c3.2-.2 4.7-1.2 4.7-1.2s.2 1.5 2.2 1.5c-1.8-1.9-.7-3.6-.7-3.6s.4 2.6 2.1 2.8c-1.6-2.5 0-4.2 0-4.2s-.1 1.4.6 2.1c.2-2.2 5-6.6-2-12.9.2-.1.8 0 1.6.4-.5-2.3-4.9-1.5-4.9-1.5s.5-.6 1.6-.8c-.9-.6-3.2.5-3.2.5s.1-.6 1.1-1.1c-2.1-.6-3 2-3 2z" class="st1"/>
  <path d="M38 44.2c-2.4-1.8-.6-4.4-.1-4.6-.2.9.6 1.7.6 1.7s.6-2.2.8-2.5c.4.5.9 1.6.9 1.6s.1-1.5.7-2c.5.5.7 2 .7 2s.4-1.2.7-1.5c.4.5.9 2.2.9 2.2s.5-.8.5-1.5c.7.3 2.6 3.2-.3 4.5.4-1 .2-1.1.2-1.1s-2 2.4-2.9 2.2c-.9-.1-2.8-2.2-2.8-2.2s0 .2.1 1.2z" class="st4"/>
  <path d="M36.1 31.8s-.6-.6.2-1.3c-4.6 2.3-1.5 8.6-.8 9.1-.2-1.4.5-2.6.5-2.6s0 1.9 1 2.3c-.2-.8 0-2.7 1.1-3.3.2.9.8 1.9.8 1.9s2.3-2.2 1.6-4.1c-.3.8 2.1 4.2 2.1 4.2s.9-1.2.6-2.3c.7.3 1.2 3.6 1.2 3.6s1-.2.7-2.3c.9 0 .9 2.8.9 2.8s4.1-7.3-.6-9.1c.8.8.2 1.3.2 1.3s-.5-1.1-1.2-.8c.4.6-.1 1-.1 1s-.9-.1-1.1-.6c-.4.4.1.8.1.8s-1.7.5-2.2-.5c-.5.7-2.7.5-2.7.5s.6-.4.3-.8c-.6.5-1.4.7-1.4.7s-.2-.8.2-1.1c-.7-.3-1.4.6-1.4.6z" class="st0"/>
  <path d="M39.2 30c-.3-.3-2.1-2.1 1.8-2.1s2.1 2 1.8 2.3-.1.4 0 .9c.1.4-1.8.7-1.8.7s-1.7-.2-1.8-.7c0-.3.3-.9 0-1.1z"/>
</svg>
