<svg xmlns="http://www.w3.org/2000/svg" id="Layer_1" viewBox="0 0 625 560">
  <style>
    .st0{fill:none;stroke:#BF9E2F;stroke-width:3.8808;stroke-linecap:round;stroke-linejoin:round;stroke-miterlimit:10;} .st1{fill:#BE1E2D;} .st2{fill:none;stroke:#BF9E2F;stroke-width:1.9404;stroke-linecap:round;stroke-linejoin:round;stroke-miterlimit:10;} .st3{fill:none;stroke:#BF9E2F;stroke-width:2.9106;stroke-linecap:round;stroke-linejoin:round;stroke-miterlimit:10;} .st4{fill:none;stroke:#BF9E2F;stroke-width:1.4553;stroke-linecap:round;stroke-linejoin:round;stroke-miterlimit:10;} .st5{fill:none;stroke:#BF9E2F;stroke-width:2.7651;stroke-linecap:round;stroke-linejoin:round;stroke-miterlimit:10;} .st6{fill:none;stroke:#BF9E2F;stroke-width:1.3825;stroke-linecap:round;stroke-linejoin:round;stroke-miterlimit:10;} .st7{fill:none;stroke:#BF9E2F;stroke-width:2.2121;stroke-linecap:round;stroke-linejoin:round;stroke-miterlimit:10;} .st8{fill:none;stroke:#BF9E2F;stroke-width:1.106;stroke-linecap:round;stroke-linejoin:round;stroke-miterlimit:10;} .st9{fill:none;stroke:#BF9E2F;stroke-width:3.3472;stroke-linecap:round;stroke-linejoin:round;stroke-miterlimit:10;} .st10{fill:none;stroke:#BF9E2F;stroke-width:1.6736;stroke-linecap:round;stroke-linejoin:round;stroke-miterlimit:10;} .st11{fill:#D42380;} .st12{fill:#FFFFFF;} .st13{fill:#754C29;} .st14{fill:#E9579E;} .st15{fill:#F4EDEF;} .st16{fill:#C49A6C;} .st17{stroke:#000000;stroke-width:1.1025;stroke-miterlimit:10;} .st18{fill:none;stroke:#000000;stroke-width:1.1025;stroke-linecap:round;stroke-linejoin:round;stroke-miterlimit:10;} .st19{fill:#9FDBEF;} .st20{fill:#6C6466;} .st21{fill:#DDAD34;} .st22{fill:#F2D2E2;} .st23{fill:#FFFFFF;stroke:#000000;stroke-width:1.1025;stroke-miterlimit:10;} .st24{fill:#8C8485;} .st25{fill:#603913;} .st26{fill:#603913;stroke:#000000;stroke-width:1.1025;stroke-miterlimit:10;} .st27{fill:#A7A9AC;} .st28{fill:none;stroke:#39B54A;stroke-width:2.2;stroke-miterlimit:10;} .st29{fill:#F7D71D;} .st30{fill:#F7941E;} .st31{fill:#F9ED32;} .st32{fill:#FBB040;} .st33{fill:#F15A29;}
  </style>
  <path d="M499.9 203.2l-121.1.3" class="st0"/>
  <path d="M497.7 203.2c-12.4 7.2 3.1 20 10.6 10.9 4.7-5.6 8.7-10.3 10.5-11-1.9-.8-9.5-9-11.4-11.2-8.9-8.6-21.4 4.8-9.7 11.3z" class="st1"/>
  <path d="M377.4 188.9l15.7 14.6-15.1 14.8" class="st2"/>
  <path d="M390.2 188.9l15.8 14.6-15.1 14.7" class="st2"/>
  <path d="M402.4 188.8l15.7 14.7-15.1 14.7" class="st2"/>
  <path d="M411.4 420.8L334.8 327" class="st0"/>
  <path d="M410 419.1c-13.4-5.1-13.6 15-1.8 15.1 7.3.1 13.4.2 15.2 1.3-.6-2 1.1-13.1 1.5-16 1-12.3-17.3-13.6-14.9-.4z" class="st1"/>
  <path d="M345.3 316.7l-1.5 21.4-21-2.5" class="st2"/>
  <path d="M353.4 326.6l-1.5 21.5-20.9-2.5" class="st2"/>
  <path d="M361.1 336.1l-1.5 21.4-20.9-2.5" class="st2"/>
  <path d="M445 319.9l-77-48.2" class="st3"/>
  <path d="M443.5 319.1c-10.8-.4-6 13.9 2.4 11.2 5.2-1.7 9.6-3.1 11.1-2.8-.9-1.2-2.4-9.5-2.7-11.7-2.3-9.1-15.6-5.5-10.8 3.3z" class="st1"/>
  <path d="M372.9 261.9l4.1 15.6-15.4 3.3" class="st4"/>
  <path d="M381.1 267l4.1 15.6-15.5 3.3" class="st4"/>
  <path d="M388.8 271.9l4.1 15.5-15.4 3.3" class="st4"/>
  <path d="M138.2 319l86.6-27.5" class="st3"/>
  <path d="M139.8 318.5c7.3-7.9-6.7-13.6-10.1-5.4-2.1 5.1-3.9 9.3-5.1 10.2 1.5.1 8.8 4.3 10.7 5.5 8.4 4.1 14.3-8.3 4.5-10.3z" class="st1"/>
  <path d="M229.1 301.7l-14.5-7 7.5-13.9" class="st4"/>
  <path d="M219.9 304.6l-14.5-6.9 7.5-14" class="st4"/>
  <path d="M211.2 307.4l-14.5-7 7.5-13.9" class="st4"/>
  <path d="M298.4 80l.6 86.3" class="st5"/>
  <path d="M298.5 81.6c5.1 8.8 14.2-2.3 7.7-7.6-4-3.3-7.3-6.1-7.8-7.5-.5 1.4-6.4 6.8-8 8.2-6.2 6.4 3.5 15.3 8.1 6.9z" class="st1"/>
  <path d="M288.6 167.4l10.4-11.3 10.5 10.8" class="st6"/>
  <path d="M288.5 158.2l10.4-11.2 10.5 10.7" class="st6"/>
  <path d="M288.5 149.5l10.3-11.2 10.6 10.7" class="st6"/>
  <path d="M387.9 85.4l-47.7 72" class="st5"/>
  <path d="M387 86.7c-.7 10.2 13.1 6.1 10.7-2-1.5-5-2.7-9.2-2.3-10.6-1.2.8-9.1 2-11.2 2.3-8.7 2-5.7 14.7 2.8 10.3z" class="st1"/>
  <path d="M331 152.4l14.9-3.5 2.7 14.8" class="st6"/>
  <path d="M336 144.8l14.9-3.6 2.8 14.8" class="st6"/>
  <path d="M340.8 137.5l14.9-3.5 2.8 14.8" class="st6"/>
  <path d="M209.8 117l47.4 50.2" class="st7"/>
  <path d="M210.7 117.9c7.8 2.4 7.1-9.1.4-8.7-4.2.3-7.7.4-8.7-.1.4 1.1-.1 7.5-.2 9.1-.1 7.2 10.3 7.1 8.5-.3z" class="st1"/>
  <path d="M251.6 173.5v-12.2l12 .5" class="st8"/>
  <path d="M246.6 168.2v-12.3l12 .6" class="st8"/>
  <path d="M241.8 163.1v-12.2l12 .5" class="st8"/>
  <path d="M123.4 198.4L225 222.7" class="st9"/>
  <path d="M125.2 198.9c11.9-3.5 1.5-17.4-6.7-11.3-5.1 3.8-9.3 6.9-11 7.1 1.4 1 6.1 9.5 7.3 11.7 5.7 9 18.9.3 10.4-7.5z" class="st1"/>
  <path d="M223.2 235.2L213 219.8l15.6-9.3" class="st10"/>
  <path d="M212.4 232.6l-10.2-15.4 15.6-9.3" class="st10"/>
  <path d="M202.2 230.2L192 214.7l15.6-9.2" class="st10"/>
  <path d="M177.1 420.3l78.6-92.2" class="st0"/>
  <path d="M178.6 418.6c2.7-14.1-17.2-10.7-15.2 1 1.2 7.2 2.2 13.3 1.5 15.1 1.8-1 13-1.3 16-1.3 12.3-1.2 10.2-19.5-2.3-14.8z" class="st1"/>
  <path d="M267.8 336.6l-21.4 2.4-1.3-21.1" class="st2"/>
  <path d="M259.4 346.4l-21.3 2.4-1.4-21.1" class="st2"/>
  <path d="M251.5 355.6l-21.3 2.4-1.4-21" class="st2"/>
  <path d="M291.1 410.2l.8-90.8" class="st3"/>
  <path d="M291.1 408.5c-5.3-9.4-15 2.2-8.3 7.9 4.2 3.6 7.6 6.6 8.1 8 .6-1.4 6.9-7 8.5-8.5 6.7-6.6-3.3-16.1-8.3-7.4z" class="st1"/>
  <path d="M302.8 318.4l-11.1 11.7-10.9-11.5" class="st4"/>
  <path d="M302.8 328.1l-11.1 11.6-11-11.4" class="st4"/>
  <path d="M302.7 337.2l-11.1 11.7-10.9-11.5" class="st4"/>
  <path d="M249 456.9h-44.5c.4-11.9 10.2-21.4 22.2-21.4 12.1 0 21.9 9.5 22.3 21.4z"/>
  <path d="M204.8 462.5h44.5c-.4 11.9-10.2 21.4-22.2 21.4-12.1 0-21.9-9.5-22.3-21.4z"/>
  <circle cx="226.8" cy="433.1" r="2.4"/>
  <path d="M202.1 457.9H252v3.7h-49.9z"/>
  <path d="M219.8 476.3l-4.6 10.3c-.3.7-1.2 1.1-2 .7-.7-.3-1.1-1.2-.7-2l4.6-10.3c.3-.7 1.2-1.1 2-.7.7.4 1 1.2.7 2z"/>
  <path d="M237.1 474.9l4 10.6c.3.8-.1 1.6-.9 1.9-.8.3-1.6-.1-1.9-.9l-4-10.6c-.3-.8.1-1.6.9-1.9.8-.2 1.6.2 1.9.9z"/>
  <path d="M303 456.9h-44.5c.4-11.9 10.2-21.4 22.2-21.4s21.8 9.5 22.3 21.4z"/>
  <path d="M258.7 462.5h44.5c-.4 11.9-10.2 21.4-22.2 21.4s-21.8-9.5-22.3-21.4z"/>
  <circle cx="280.7" cy="433.1" r="2.4"/>
  <path d="M256 457.9h49.9v3.7H256z"/>
  <path d="M273.7 476.3l-4.6 10.3c-.3.7-1.2 1.1-2 .7-.7-.3-1.1-1.2-.7-2L271 475c.3-.7 1.2-1.1 2-.7.7.4 1 1.2.7 2z"/>
  <path d="M291.1 474.9l4 10.6c.3.8-.1 1.6-.9 1.9-.8.3-1.6-.1-1.9-.9l-4-10.6c-.3-.8.1-1.6.9-1.9.7-.2 1.6.2 1.9.9z"/>
  <path d="M356.9 456.9h-44.5c.4-11.9 10.2-21.4 22.2-21.4 12.1 0 21.9 9.5 22.3 21.4z"/>
  <path d="M312.6 462.5h44.5c-.4 11.9-10.2 21.4-22.2 21.4s-21.8-9.5-22.3-21.4z"/>
  <circle cx="334.7" cy="433.1" r="2.4"/>
  <path d="M309.9 457.9h49.9v3.7h-49.9z"/>
  <path d="M327.6 476.3l-4.6 10.3c-.3.7-1.2 1.1-2 .7-.7-.3-1.1-1.2-.7-2l4.6-10.3c.3-.7 1.2-1.1 2-.7.7.4 1.1 1.2.7 2z"/>
  <path d="M345 474.9l4 10.6c.3.8-.1 1.6-.9 1.9-.8.3-1.6-.1-1.9-.9l-4-10.6c-.3-.8.1-1.6.9-1.9.7-.2 1.6.2 1.9.9z"/>
  <path d="M22.5 307.7h95.9v8s-39.5 10.1-38.6 33.6H58.2c.1-23.6-35.7-33.6-35.7-33.6v-8z" class="st11"/>
  <path d="M22.5 307.7h3.3s-.7 4.5-3 4c-2.2-.6-.3-4-.3-4z" class="st12"/>
  <path d="M25.7 307.7H29s-.7 4.5-3 4c-2.3-.6-.3-4-.3-4z" class="st12"/>
  <path d="M29 307.7h3.3s-.7 4.5-3 4c-2.3-.6-.3-4-.3-4z" class="st12"/>
  <path d="M32.3 307.7h3.3s-.7 4.5-3 4c-2.3-.6-.3-4-.3-4z" class="st12"/>
  <path d="M35.4 307.7h3.3s-.7 4.5-3 4c-2.3-.6-.3-4-.3-4z" class="st12"/>
  <path d="M38.6 307.7h3.3s-.7 4.5-3 4c-2.3-.6-.3-4-.3-4z" class="st12"/>
  <path d="M41.9 307.7h3.3s-.7 4.5-3 4c-2.3-.6-.3-4-.3-4z" class="st12"/>
  <path d="M45.1 307.7h3.3s-.7 4.5-3 4c-2.3-.6-.3-4-.3-4z" class="st12"/>
  <path d="M48.3 307.7h3.3s-.7 4.5-3 4c-2.3-.6-.3-4-.3-4z" class="st12"/>
  <path d="M51.3 307.7h3.3s-.7 4.5-3 4c-2.3-.6-.3-4-.3-4z" class="st12"/>
  <path d="M54.1 307.7h3.3s-.7 4.5-3 4c-2.2-.6-.3-4-.3-4z" class="st12"/>
  <path d="M57.3 307.7h3.3s-.7 4.5-3 4c-2.3-.6-.3-4-.3-4z" class="st12"/>
  <path d="M60.3 307.7h3.3s-.7 4.5-3 4c-2.3-.6-.3-4-.3-4z" class="st12"/>
  <path d="M63.3 307.7h3.3s-.7 4.5-3 4c-2.3-.6-.3-4-.3-4z" class="st12"/>
  <path d="M66.3 307.7h3.3s-.7 4.5-3 4c-2.3-.6-.3-4-.3-4z" class="st12"/>
  <path d="M69.3 307.7h3.3s-.7 4.5-3 4c-2.3-.6-.3-4-.3-4z" class="st12"/>
  <path d="M71.8 307.7H75s.2 4.3-2.1 4.1c-2.3-.2-1.1-4.1-1.1-4.1z" class="st12"/>
  <path d="M74.8 307.7H78s.2 4.3-2.1 4.1c-2.3-.2-1.1-4.1-1.1-4.1z" class="st12"/>
  <path d="M77.7 307.7h3.2s.2 4.3-2.1 4.1c-2.3-.2-1.1-4.1-1.1-4.1z" class="st12"/>
  <path d="M80.7 307.7h3.2s.2 4.3-2.1 4.1c-2.3-.2-1.1-4.1-1.1-4.1z" class="st12"/>
  <path d="M83.7 307.7h3.2s.2 4.3-2.1 4.1c-2.3-.2-1.1-4.1-1.1-4.1z" class="st12"/>
  <path d="M86.5 307.7h3.2s.2 4.3-2.1 4.1c-2.3-.2-1.1-4.1-1.1-4.1z" class="st12"/>
  <path d="M89.6 307.7h3.2s.2 4.3-2.1 4.1c-2.3-.2-1.1-4.1-1.1-4.1z" class="st12"/>
  <path d="M118.7 307.7h-3.3s.7 4.5 3 4c2.2-.6.3-4 .3-4z" class="st12"/>
  <path d="M115.6 307.7h-3.3s.7 4.5 3 4c2.2-.6.3-4 .3-4z" class="st12"/>
  <path d="M112.6 307.7h-3.3s.7 4.5 3 4c2.2-.6.3-4 .3-4z" class="st12"/>
  <path d="M109.5 307.7h-3.3s.7 4.5 3 4c2.3-.6.3-4 .3-4z" class="st12"/>
  <path d="M106.7 307.7h-3.3s.7 4.5 3 4c2.3-.6.3-4 .3-4z" class="st12"/>
  <path d="M103.4 307.7h-3.3s.7 4.5 3 4c2.3-.6.3-4 .3-4z" class="st12"/>
  <path d="M100.4 307.7h-3.3s.7 4.5 3 4c2.2-.6.3-4 .3-4z" class="st12"/>
  <path d="M97.4 307.7h-3.3s.7 4.5 3 4c2.2-.6.3-4 .3-4z" class="st12"/>
  <path d="M94.3 307.7H91s.7 4.5 3 4c2.3-.6.3-4 .3-4z" class="st12"/>
  <path d="M472.9 35l-3.1 9.1c-4.2-1.5-8.9.8-10.3 5l-43.3-14.9c1.5-4.2-.8-8.9-5-10.3l3.1-9.1c4.2 1.5 8.9-.8 10.3-5l43.3 14.9c-1.5 4.2.8 8.8 5 10.3z" class="st1"/>
  <path d="M415.9 16.8l-2.1 6s5.2 3 4.5 10.2c1.3.4 35.9 12.4 40 13.8 2.4-6.8 10.4-4.4 10.4-4.4l2.3-6.6s-6.8-4.2-5.2-9.4c-2.3-.8-37.8-13-40.5-13.9-2.8 5.6-9.4 4.3-9.4 4.3z" class="st12"/>
  <path d="M88 138.3c4.4-.5 7.8-4.2 7.8-8.7 0-4.9-3.9-8.8-8.8-8.8-3.5 0-6.6 2.1-8 5" class="st13"/>
  <path d="M87.3 136.2c3.5-.1 6.3-3 6.3-6.6 0-3.6-3-6.6-6.6-6.6-2.8 0-5.2 1.7-6.1 4.2" class="st14"/>
  <path d="M45.8 136.2c1.3-3.3 3.3-6.3 6-8.6m-6.7 10.7c-4.7-.2-8.5-4-8.5-8.8 0-4.9 3.9-8.8 8.8-8.8 3.7 0 6.8 2.2 8.1 5.4" class="st13"/>
  <path d="M51.8 127.6c-2.6 2.3-4.7 5.3-6 8.6h-.3c-3.7 0-6.6-3-6.6-6.6 0-3.6 3-6.6 6.6-6.6 2.9 0 5.4 1.9 6.3 4.6z" class="st14"/>
  <path d="M479.1 36.4V46c-4.5 0-8.1 3.6-8.1 8.1h-45.8c0-4.5-3.6-8.1-8.1-8.1v-9.6c4.5 0 8.1-3.6 8.1-8.1H471c0 4.5 3.7 8.1 8.1 8.1z" class="st1"/>
  <circle cx="111.9" cy="449" r="9.4" class="st15"/>
  <circle cx="114.5" cy="467.7" r="9.4" class="st15"/>
  <circle cx="127.1" cy="482.1" r="9.4" class="st15"/>
  <circle cx="123.9" cy="434.7" r="9.4" class="st15"/>
  <circle cx="142.6" cy="433.3" r="9.4" class="st15"/>
  <circle cx="145.8" cy="478.8" r="9.4" class="st15"/>
  <circle cx="158.7" cy="464.8" r="9.4" class="st15"/>
  <circle cx="155.2" cy="446.6" r="9.4" class="st15"/>
  <ellipse cx="66.6" cy="194.3" class="st13" rx="25.9" ry="32.4"/>
  <path d="M69.6 166.2c10.7 1.9 19 13.6 19 27.7 0 15.4-9.8 28-21.9 28-12.1 0-21.9-12.5-21.9-28 0-14.2 8.3-25.9 19-27.7" class="st16"/>
  <circle cx="53.6" cy="219.6" r="11.7" class="st13"/>
  <circle cx="81.1" cy="219.6" r="11.7" class="st13"/>
  <path d="M51.1 159.1S25.4 176 33.6 206.7c2.1 10.4 12.6 5.9 9.2-2.8-.4-1.8-6.7-27.2 15.1-39.7-3.1-1-6.8-5.1-6.8-5.1z" class="st13"/>
  <path d="M82.1 159.1s25.7 16.9 17.5 47.6c-2.1 10.4-12.6 5.9-9.2-2.8.4-1.8 6.7-27.2-15.1-39.7 3.1-1 6.8-5.1 6.8-5.1z" class="st13"/>
  <circle cx="66.6" cy="144.2" r="22.6" class="st13"/>
  <circle cx="66.3" cy="150.1" r="10" class="st16"/>
  <circle cx="59.1" cy="136" r="2.8" class="st17"/>
  <circle cx="72.3" cy="136" r="2.8" class="st17"/>
  <path d="M60.5 154.2s5.1 3 5.4-2c.1 5.5 6.1 1.8 6.1 1.8" class="st18"/>
  <path d="M64 148.1c-.3-.3-2.4-2.4 2-2.4s2.4 2.2 2 2.6c-.3.4-.1.5 0 1s-2 .8-2 .8-1.9-.3-2-.8c-.1-.3.3-.9 0-1.2z"/>
  <path d="M419.3 37.9v6.4s5.9 1.1 7.6 8.2h42.3c0-7.2 8.4-7.6 8.4-7.6V38s-7.8-1.8-7.9-7.2h-42.8c-.9 6.1-7.6 7.1-7.6 7.1z" class="st12"/>
  <path d="M510.9 342.6c0 13.4-11.3 24.2-25.2 24.2s-25.2-10.8-25.2-24.2c0-13.5 11.9-24.2 25.2-24.2 13.9 0 25.2 10.9 25.2 24.2z" class="st19"/>
  <path d="M469.3 312.1h33v12.3h-33z" class="st19"/>
  <path d="M462.7 308.1h46.2v4.3h-46.2z" class="st19"/>
  <path d="M502.3 308.9h-33l4.1-12 24.3-.4z" class="st19"/>
  <path d="M471.4 293h28.5v4.3h-28.5z" class="st19"/>
  <path d="M480.1 289.6h10.7v3.4h-10.7z" class="st20"/>
  <path d="M490.8 289.6h-10.6c-2.2 0-4.1-1.8-4.1-4.1v-10.2c0-2.2 1.8-4.1 4.1-4.1h10.6c2.2 0 4.1 1.8 4.1 4.1v10.2c0 2.2-1.8 4.1-4.1 4.1z" class="st21"/>
  <circle cx="485.5" cy="280.4" r="3.2" class="st12"/>
  <circle cx="147.2" cy="34.8" r="25.2" class="st20"/>
  <circle cx="147.2" cy="34.1" r="9.1" class="st22"/>
  <path d="M399.92 443.28l47.8-.15.16 49.7-47.8.15z" class="st23"/>
  <path d="M447.62 443.08l47.8-.15.16 49.7-47.8.15z" class="st23"/>
  <circle cx="471.1" cy="467.8" r="20" class="st24"/>
  <circle cx="471.1" cy="467.2" r="7.2" class="st12"/>
  <path d="M244.1 41.2h26.4v42.1h-26.4z" class="st1"/>
  <path d="M244 23.6h26.5v16.3H244z" class="st25"/>
  <path d="M245.4 25.3h6.7v12.8h-6.7z" class="st26"/>
  <path d="M254 25.3h6.7v12.8H254z" class="st26"/>
  <path d="M262.5 25.3h6.7v12.8h-6.7z" class="st26"/>
  <path d="M244.1 41.2l-5.1-6.4c-.3-.3 0-.8.5-.7l6 1.6c.8.2 1.6 0 2.1-.6l2.4-2.7c.1-.2.4-.2.6-.1l3.9 2.5c.9.6 2.1.4 2.8-.5l1.7-2.2c.2-.2.4-.2.6-.1l2.1 1.7c.8.7 2 .6 2.8-.2l1.1-1.2c.2-.2.5-.2.7 0l1.3 1.8c.7.9 1.9 1.1 2.8.5l2.8-1.8c.4-.2.8.1.6.5l-3.1 7.8h-26.6z" class="st27"/>
  <path d="M240.3 200.8h116.3v110.9H240.3z" class="st1"/>
  <path d="M286.4 200.8h25v110.9h-25z" class="st12"/>
  <path d="M294.2 187.1s-15-29.3-29.1-17.4c-21.5 16.8-5.2 30.9-5.2 30.9h29l5.3-13.5z" class="st23"/>
  <path d="M303.6 186.3s15-29.3 29.1-17.4c21.5 16.8 3.4 31.6 3.4 31.6H309l-5.4-14.2z" class="st23"/>
  <path d="M291 199.5s-11.7-3.3-16.2 3.4c-4.5 6.7-17.8 15.7-17.8 15.7s7.1 6.8 12.5 11.9c20-4.5 21.5-31 21.5-31z" class="st23"/>
  <path d="M305.7 199.8c2.4-.9 4.9-1.8 7.4-2.2 2.1-.3 5.7-.5 7.5.9 1.3 1 2 2.8 3 4.2 1.1 1.6 2.4 3.2 3.8 4.6 3.9 4.1 10.9 6 15.7 9-3.9 4.5-10.4 11.7-13.7 14.4-3.3 2.7-9.6-5.9-12.3-10.7-3.8-6.8-7.6-13.5-11.4-20.2z" class="st23"/>
  <ellipse cx="296.8" cy="194.7" class="st23" rx="13" ry="9.4"/>
  <path d="M564.9 165l-3.1 68.3" class="st28"/>
  <path d="M552.6 176.8l15.1 54.3" class="st28"/>
  <path d="M556.1 153.5l9 81.4" class="st28"/>
  <path d="M578.5 154.1l-20.8 79.2" class="st28"/>
  <path d="M568.7 152.6l-8 81.5" class="st28"/>
  <path d="M578.4 174.5l-24.1 58.4" class="st28"/>
  <circle cx="542.3" cy="158.4" r="5.5" class="st29"/>
  <circle cx="540.7" cy="168.7" r="5.5" class="st29"/>
  <circle cx="550.3" cy="173.1" r="5.5" class="st29"/>
  <circle cx="557.4" cy="165.6" r="5.5" class="st29"/>
  <circle cx="552.1" cy="156.9" r="5.5" class="st29"/>
  <circle cx="548.5" cy="165" r="5.6" class="st1"/>
  <circle cx="580.7" cy="142.3" r="5.5" class="st29"/>
  <circle cx="579.1" cy="152.6" r="5.5" class="st29"/>
  <circle cx="588.7" cy="157" r="5.5" class="st29"/>
  <circle cx="595.8" cy="149.5" r="5.5" class="st29"/>
  <circle cx="590.5" cy="140.8" r="5.5" class="st29"/>
  <circle cx="586.9" cy="148.8" r="5.6" class="st1"/>
  <circle cx="544.1" cy="137.3" r="5.5" class="st30"/>
  <circle cx="541.1" cy="147.2" r="5.5" class="st30"/>
  <circle cx="550.1" cy="153" r="5.5" class="st30"/>
  <circle cx="558.2" cy="146.5" r="5.5" class="st30"/>
  <circle cx="554" cy="137.1" r="5.5" class="st30"/>
  <circle cx="549.3" cy="144.6" r="5.6" class="st31"/>
  <circle cx="564.4" cy="126.9" r="5.5" class="st1"/>
  <circle cx="562.7" cy="137.1" r="5.5" class="st1"/>
  <circle cx="572.4" cy="141.6" r="5.5" class="st1"/>
  <circle cx="579.4" cy="134" r="5.5" class="st1"/>
  <circle cx="574.1" cy="125.3" r="5.5" class="st1"/>
  <circle cx="570.5" cy="133.4" r="5.6" class="st32"/>
  <circle cx="562.5" cy="144.7" r="5.5" class="st14"/>
  <circle cx="558" cy="154.1" r="5.5" class="st14"/>
  <circle cx="566" cy="161.1" r="5.5" class="st14"/>
  <circle cx="574.8" cy="155.9" r="5.5" class="st14"/>
  <circle cx="572.3" cy="146" r="5.5" class="st14"/>
  <circle cx="566.5" cy="152.7" r="5.6" class="st32"/>
  <circle cx="575.6" cy="161.6" r="5.5" class="st33"/>
  <circle cx="573.9" cy="171.9" r="5.5" class="st33"/>
  <circle cx="583.6" cy="176.3" r="5.5" class="st33"/>
  <circle cx="590.6" cy="168.8" r="5.5" class="st33"/>
  <circle cx="585.3" cy="160.1" r="5.5" class="st33"/>
  <circle cx="581.7" cy="168.2" r="5.6" class="st30"/>
  <path d="M296.4 28.1l-2 1.1-.3-1.2 2.5-1.3h1.3v11.5h-1.5V28.1z" class="st11"/>
  <path d="M307.3 29.9c0 2.4-1.3 3.6-2.7 3.6-1.4 0-2.7-1.1-2.7-3.4s1.2-3.6 2.8-3.6c1.5-.1 2.6 1.2 2.6 3.4zm-4.2.1c0 1.5.5 2.6 1.5 2.6s1.5-1.1 1.5-2.6c0-1.4-.4-2.6-1.5-2.6-1 0-1.5 1.1-1.5 2.6zm1.3 8.3l6.8-11.9h1l-6.8 11.9h-1zm10.3-3.7c0 2.4-1.3 3.6-2.7 3.6-1.4 0-2.7-1.1-2.7-3.5 0-2.3 1.2-3.6 2.8-3.6 1.6.1 2.6 1.3 2.6 3.5zm-4.2.1c0 1.5.5 2.6 1.5 2.6s1.5-1.1 1.5-2.6c0-1.4-.4-2.6-1.5-2.6-.9 0-1.5 1.2-1.5 2.6z" class="st11"/>
  <path d="M320.4 26.4c.7-.2 1.7-.3 2.8-.3 1.5 0 2.5.3 3.2.9.6.5 1 1.2 1 2.1 0 1.2-.8 2.2-2 2.6v.1c1.1.3 2.5 1.2 2.5 3 0 1-.4 1.8-1 2.4-.8.8-2.2 1.1-4.1 1.1-1.1 0-1.9-.1-2.4-.1V26.4zm1.5 4.9h1.4c1.6 0 2.6-.9 2.6-2 0-1.4-1-1.9-2.6-1.9-.7 0-1.1.1-1.4.1v3.8zm0 5.6c.3.1.7.1 1.3.1 1.6 0 3.1-.6 3.1-2.3 0-1.6-1.4-2.3-3.1-2.3h-1.3v4.5z" class="st11"/>
  <path d="M335.9 36.1c0 .7 0 1.5.1 2h-1.4l-.1-1.1h-.1c-.5.7-1.4 1.3-2.6 1.3-1.7 0-2.6-1.2-2.6-2.5 0-2.1 1.8-3.2 5.1-3.2v-.2c0-.7-.2-2-1.9-2-.8 0-1.6.2-2.2.6l-.4-1c.7-.4 1.7-.7 2.8-.7 2.6 0 3.2 1.8 3.2 3.5v3.3zm-1.5-2.3c-1.7 0-3.6.3-3.6 1.9 0 1 .7 1.5 1.4 1.5 1.1 0 1.9-.7 2.1-1.4.1-.2.1-.4.1-.5v-1.5z" class="st11"/>
  <path d="M338.4 32.2c0-1 0-1.9-.1-2.7h1.4l.1 1.7h.1c.4-1.1 1.3-1.9 2.4-1.9h.4v1.5h-.5c-1.1 0-1.9.8-2.1 2 0 .2-.1.5-.1.7v4.6h-1.6v-5.9z" class="st11"/>
  <path d="M355.6 33.8c0 3.2-2.2 4.5-4.3 4.5-2.3 0-4.1-1.7-4.1-4.4 0-2.8 1.9-4.5 4.2-4.5 2.6 0 4.2 1.8 4.2 4.4zm-6.7.1c0 1.9 1.1 3.3 2.6 3.3s2.6-1.4 2.6-3.3c0-1.4-.7-3.3-2.6-3.3-1.8 0-2.6 1.7-2.6 3.3z" class="st11"/>
  <path d="M357.7 38.1v-7.4h-1.2v-1.2h1.2v-.4c0-1.2.3-2.3 1-3 .6-.6 1.4-.8 2.1-.8.6 0 1 .1 1.3.2l-.2 1.2c-.2-.1-.5-.2-1-.2-1.3 0-1.7 1.1-1.7 2.5v.5h2.1v1.2h-2.1v7.4h-1.5z" class="st11"/>
  <path d="M300.1 59c-.4.2-1.3.5-2.5.5-2.6 0-4.3-1.7-4.3-4.4 0-2.6 1.8-4.6 4.6-4.6.9 0 1.7.2 2.2.5l-.4 1.2c-.4-.2-1-.4-1.8-.4-2 0-3 1.5-3 3.2 0 2 1.3 3.2 3 3.2.9 0 1.5-.2 1.9-.4l.3 1.2z" class="st11"/>
  <path d="M301.9 46.8h1.6v5.3c.2-.4.6-.8 1.1-1.1.5-.3 1-.4 1.6-.4 1.1 0 3 .7 3 3.6v5.1h-1.6v-4.9c0-1.4-.5-2.5-2-2.5-1 0-1.8.7-2.1 1.5-.1.2-.1.5-.1.7v5.2h-1.6V46.8z" class="st11"/>
  <path d="M319.4 54.9c0 3.2-2.2 4.5-4.3 4.5-2.3 0-4.1-1.7-4.1-4.4 0-2.8 1.9-4.5 4.2-4.5 2.6.1 4.2 1.8 4.2 4.4zm-6.7.1c0 1.9 1.1 3.3 2.6 3.3s2.6-1.4 2.6-3.3c0-1.4-.7-3.3-2.6-3.3-1.8 0-2.6 1.7-2.6 3.3z" class="st11"/>
  <path d="M327.5 59c-.4.2-1.3.5-2.5.5-2.6 0-4.3-1.7-4.3-4.4 0-2.6 1.8-4.6 4.6-4.6.9 0 1.7.2 2.2.5l-.4 1.2c-.4-.2-1-.4-1.8-.4-2 0-3 1.5-3 3.2 0 2 1.3 3.2 3 3.2.9 0 1.5-.2 1.9-.4l.3 1.2z" class="st11"/>
  <path d="M336.9 54.9c0 3.2-2.2 4.5-4.3 4.5-2.3 0-4.1-1.7-4.1-4.4 0-2.8 1.9-4.5 4.2-4.5 2.5.1 4.2 1.8 4.2 4.4zm-6.8.1c0 1.9 1.1 3.3 2.6 3.3s2.6-1.4 2.6-3.3c0-1.4-.7-3.3-2.6-3.3-1.8 0-2.6 1.7-2.6 3.3z" class="st11"/>
  <path d="M338.9 46.8h1.6v12.5h-1.6V46.8z" class="st11"/>
  <path d="M349 57.2c0 .7 0 1.5.1 2h-1.4l-.1-1.1h-.1c-.5.7-1.4 1.3-2.6 1.3-1.7 0-2.6-1.2-2.6-2.5 0-2.1 1.8-3.2 5.1-3.2v-.2c0-.7-.2-2-1.9-2-.8 0-1.6.2-2.2.6l-.4-1c.7-.4 1.7-.7 2.8-.7 2.6 0 3.2 1.8 3.2 3.5v3.3zm-1.5-2.3c-1.7 0-3.6.3-3.6 1.9 0 1 .7 1.5 1.4 1.5 1.1 0 1.9-.7 2.1-1.4.1-.2.1-.4.1-.5v-1.5z" class="st11"/>
  <path d="M353.3 48.7v2h2.2v1.2h-2.2v4.6c0 1.1.3 1.7 1.2 1.7.4 0 .7 0 .9-.1l.1 1.2c-.3.1-.8.2-1.4.2-.7 0-1.3-.2-1.7-.7-.4-.5-.6-1.2-.6-2.2v-4.7h-1.3v-1.2h1.3v-1.6l1.5-.4z" class="st11"/>
  <path d="M358.1 55.3c0 2.1 1.4 3 2.9 3 1.1 0 1.8-.2 2.4-.4l.3 1.1c-.5.2-1.5.5-2.9.5-2.6 0-4.2-1.7-4.2-4.3 0-2.6 1.5-4.6 4-4.6 2.8 0 3.5 2.4 3.5 4 0 .3 0 .5-.1.7h-5.9zm4.5-1.1c0-1-.4-2.5-2.2-2.5-1.6 0-2.3 1.4-2.4 2.5h4.6z" class="st11"/>
  <path d="M10.3 367.5l-2 1.1-.3-1.2 2.5-1.3h1.3v11.5h-1.5v-10.1z" class="st11"/>
  <path d="M19.3 367.5l-2 1.1-.3-1.2 2.5-1.3h1.3v11.5h-1.5v-10.1z" class="st11"/>
  <path d="M30.2 369.2c0 2.4-1.3 3.6-2.7 3.6-1.4 0-2.7-1.1-2.7-3.4s1.2-3.6 2.8-3.6c1.5 0 2.6 1.3 2.6 3.4zm-4.2.1c0 1.5.5 2.6 1.5 2.6s1.5-1.1 1.5-2.6c0-1.4-.4-2.6-1.5-2.6-1 .1-1.5 1.2-1.5 2.6zm1.3 8.4l6.8-11.9h1l-6.8 11.9h-1zm10.3-3.7c0 2.4-1.3 3.6-2.7 3.6-1.4 0-2.7-1.1-2.7-3.5 0-2.3 1.2-3.6 2.8-3.6 1.6.1 2.6 1.3 2.6 3.5zm-4.2.1c0 1.5.5 2.6 1.5 2.6s1.5-1.1 1.5-2.6c0-1.4-.4-2.6-1.5-2.6-.9 0-1.5 1.1-1.5 2.6z" class="st11"/>
  <path d="M44.8 365.6v7.1c0 2.6 1.2 3.8 2.8 3.8 1.7 0 2.9-1.2 2.9-3.8v-7.1H52v6.9c0 3.7-1.9 5.1-4.5 5.1-2.4 0-4.3-1.4-4.3-5.1v-7h1.6z" class="st11"/>
  <path d="M54.6 371.3c0-.9 0-1.6-.1-2.3h1.4l.1 1.4c.4-.8 1.4-1.6 2.8-1.6 1.2 0 3 .7 3 3.6v5.1h-1.6v-4.9c0-1.4-.5-2.5-2-2.5-1 0-1.8.7-2.1 1.6-.1.2-.1.5-.1.7v5.1h-1.6v-6.2z" class="st11"/>
  <path d="M64.6 377.5v-7.4h-1.2v-1.2h1.2v-.4c0-1.2.4-2.3 1.2-2.9.7-.6 1.6-.9 2.8-.9 1 0 1.9.2 2.6.6v12.2h-1.6v-11.3c-.3-.1-.7-.2-1.3-.2-1.6 0-2.2 1.2-2.2 2.5v.4h2v1.2h-2v7.4h-1.5z" class="st11"/>
  <path d="M79.6 375.4c0 .7 0 1.5.1 2h-1.4l-.1-1.1h-.1c-.5.7-1.4 1.3-2.6 1.3-1.7 0-2.6-1.2-2.6-2.5 0-2.1 1.8-3.2 5.1-3.2v-.2c0-.7-.2-2-1.9-2-.8 0-1.6.2-2.2.6l-.4-1c.7-.4 1.7-.7 2.8-.7 2.6 0 3.2 1.8 3.2 3.5v3.3zm-1.5-2.3c-1.7 0-3.6.3-3.6 1.9 0 1 .7 1.5 1.4 1.5 1.1 0 1.9-.7 2.1-1.4.1-.2.1-.4.1-.5v-1.5z" class="st11"/>
  <path d="M84 366.9v2h2.2v1.2H84v4.6c0 1.1.3 1.7 1.2 1.7.4 0 .7 0 .9-.1l.1 1.2c-.3.1-.8.2-1.4.2-.7 0-1.3-.2-1.7-.7-.4-.5-.6-1.2-.6-2.2v-4.7h-1.3v-1.2h1.3v-1.6l1.5-.4z" class="st11"/>
  <path d="M89.8 366.9v2H92v1.2h-2.2v4.6c0 1.1.3 1.7 1.2 1.7.4 0 .7 0 .9-.1l.1 1.2c-.3.1-.8.2-1.4.2-.7 0-1.3-.2-1.7-.7-.4-.5-.6-1.2-.6-2.2v-4.7H87v-1.2h1.3v-1.6l1.5-.4z" class="st11"/>
  <path d="M94.5 373.5c0 2.1 1.4 3 2.9 3 1.1 0 1.8-.2 2.4-.4l.3 1.1c-.5.2-1.5.5-2.9.5-2.6 0-4.2-1.7-4.2-4.3s1.5-4.6 4-4.6c2.8 0 3.5 2.4 3.5 4 0 .3 0 .5-.1.7h-5.9zm4.6-1.1c0-1-.4-2.5-2.2-2.5-1.6 0-2.3 1.4-2.4 2.5h4.6z" class="st11"/>
  <path d="M102.5 371.6c0-1 0-1.9-.1-2.7h1.4l.1 1.7h.1c.4-1.1 1.3-1.9 2.4-1.9h.4v1.5h-.5c-1.1 0-1.9.8-2.1 2 0 .2-.1.5-.1.7v4.6h-1.6v-5.9z" class="st11"/>
  <path d="M110.1 366.5c0 .5-.4 1-1 1s-.9-.4-.9-1 .4-1 1-1c.5.1.9.5.9 1zm-1.8 11V369h1.6v8.5h-1.6z" class="st11"/>
  <path d="M112.5 371.3c0-.9 0-1.6-.1-2.3h1.4l.1 1.4c.4-.8 1.4-1.6 2.8-1.6 1.2 0 3 .7 3 3.6v5.1h-1.6v-4.9c0-1.4-.5-2.5-2-2.5-1 0-1.8.7-2.1 1.6-.1.2-.1.5-.1.7v5.1h-1.6v-6.2z" class="st11"/>
  <path d="M129.6 376.2c0 2-.4 3.2-1.2 3.9-.8.8-2 1-3.1 1-1 0-2.2-.2-2.8-.7l.4-1.2c.6.4 1.4.7 2.5.7 1.6 0 2.8-.8 2.8-3v-.9c-.5.8-1.4 1.4-2.7 1.4-2.1 0-3.6-1.8-3.6-4.2 0-2.9 1.9-4.5 3.9-4.5 1.5 0 2.3.8 2.7 1.5l.1-1.3h1.4c-.1.6-.1 1.3-.1 2.3v5zm-1.6-3.9c0-.3 0-.5-.1-.7-.3-.9-1-1.7-2.2-1.7-1.5 0-2.5 1.3-2.5 3.2 0 1.7.9 3.1 2.5 3.1 1 0 1.8-.6 2.2-1.6.1-.3.1-.6.1-.8v-1.5z" class="st11"/>
  <path d="M38.6 396.3c0 .9 0 1.7.1 2.3h-1.4l-.1-1.4c-.4.7-1.3 1.6-2.8 1.6-1.3 0-2.9-.8-2.9-3.7v-5h1.6v4.7c0 1.6.5 2.7 1.9 2.7 1 0 1.8-.7 2-1.4.1-.2.1-.5.1-.8v-5.2h1.6v6.2z" class="st11"/>
  <path d="M41.1 392.4c0-.9 0-1.6-.1-2.3h1.4l.1 1.4c.4-.8 1.4-1.6 2.8-1.6 1.2 0 3 .7 3 3.6v5.1h-1.6v-4.9c0-1.4-.5-2.5-2-2.5-1 0-1.8.7-2.1 1.6-.1.2-.1.5-.1.7v5.1h-1.6v-6.2z" class="st11"/>
  <path d="M58.3 386.1v10.3c0 .8 0 1.6.1 2.2H57l-.1-1.5h-.1c-.5 1-1.5 1.7-2.9 1.7-2.1 0-3.7-1.7-3.7-4.3 0-2.8 1.8-4.6 3.8-4.6 1.3 0 2.2.6 2.6 1.3v-5.1h1.7zm-1.5 7.5c0-.2 0-.5-.1-.7-.2-1-1.1-1.8-2.2-1.8-1.6 0-2.6 1.4-2.6 3.3 0 1.7.9 3.2 2.5 3.2 1 0 2-.7 2.3-1.9.1-.2.1-.4.1-.7v-1.4z" class="st11"/>
  <path d="M61.7 394.7c0 2.1 1.4 3 2.9 3 1.1 0 1.8-.2 2.4-.4l.3 1.1c-.5.2-1.5.5-2.9.5-2.6 0-4.2-1.7-4.2-4.3s1.5-4.6 4-4.6c2.8 0 3.5 2.4 3.5 4 0 .3 0 .5-.1.7h-5.9zm4.6-1.2c0-1-.4-2.5-2.2-2.5-1.6 0-2.3 1.4-2.4 2.5h4.6z" class="st11"/>
  <path d="M69.7 392.8c0-1 0-1.9-.1-2.7H71l.1 1.7h.1c.4-1.1 1.3-1.9 2.4-1.9h.4v1.5h-.5c-1.1 0-1.9.8-2.1 2 0 .2-.1.5-.1.7v4.6h-1.6v-5.9z" class="st11"/>
  <path d="M76.5 390.1l1.1 4.3c.2 1 .5 1.8.6 2.7h.1c.2-.9.5-1.8.8-2.7l1.4-4.4h1.3l1.3 4.3c.3 1 .6 1.9.8 2.8h.1c.1-.9.4-1.8.7-2.8l1.2-4.3h1.5l-2.8 8.5h-1.4l-1.3-4.1c-.3-1-.5-1.8-.8-2.8-.2 1-.5 1.9-.8 2.8l-1.4 4.1h-1.4l-2.6-8.5h1.6z" class="st11"/>
  <path d="M89.6 394.7c0 2.1 1.4 3 2.9 3 1.1 0 1.8-.2 2.4-.4l.3 1.1c-.5.2-1.5.5-2.9.5-2.6 0-4.2-1.7-4.2-4.3s1.5-4.6 4-4.6c2.8 0 3.5 2.4 3.5 4 0 .3 0 .5-.1.7h-5.9zm4.5-1.2c0-1-.4-2.5-2.2-2.5-1.6 0-2.3 1.4-2.4 2.5h4.6z" class="st11"/>
  <path d="M103.6 396.6c0 .7 0 1.5.1 2h-1.4l-.1-1.1h-.1c-.5.7-1.4 1.3-2.6 1.3-1.7 0-2.6-1.2-2.6-2.5 0-2.1 1.8-3.2 5.1-3.2v-.1c0-.7-.2-2-1.9-2-.8 0-1.6.2-2.2.6l-.4-1c.7-.4 1.7-.7 2.8-.7 2.6 0 3.2 1.8 3.2 3.5v3.2zm-1.5-2.3c-1.7 0-3.6.3-3.6 1.9 0 1 .7 1.5 1.4 1.5 1.1 0 1.9-.7 2.1-1.4.1-.2.1-.4.1-.5v-1.5z" class="st11"/>
  <path d="M106.1 392.8c0-1 0-1.9-.1-2.7h1.4l.1 1.7h.1c.4-1.1 1.3-1.9 2.4-1.9h.4v1.5h-.5c-1.1 0-1.9.8-2.1 2 0 .2-.1.5-.1.7v4.6h-1.6v-5.9z" class="st11"/>
  <path d="M409.1 79.2c.4.3 1.4.7 2.5.7 2 0 2.6-1.3 2.6-2.2 0-1.6-1.5-2.3-3-2.3h-.9v-1.2h.9c1.1 0 2.6-.6 2.6-1.9 0-.9-.6-1.7-2-1.7-.9 0-1.8.4-2.3.8l-.4-1.1c.6-.4 1.8-.9 3-.9 2.3 0 3.3 1.3 3.3 2.7 0 1.2-.7 2.2-2.1 2.7 1.4.3 2.5 1.3 2.6 2.9 0 1.8-1.4 3.4-4.2 3.4-1.3 0-2.4-.4-3-.8l.4-1.1z" class="st11"/>
  <path d="M423 72.7c0 2.4-1.3 3.6-2.7 3.6-1.4 0-2.7-1.1-2.7-3.4s1.2-3.6 2.8-3.6c1.5 0 2.6 1.2 2.6 3.4zm-4.2.1c0 1.5.5 2.6 1.5 2.6s1.5-1.1 1.5-2.6c0-1.4-.4-2.6-1.5-2.6-1 0-1.5 1.2-1.5 2.6zm1.3 8.3l6.8-11.9h1l-6.8 11.9h-1zm10.3-3.7c0 2.4-1.3 3.6-2.7 3.6-1.4 0-2.7-1.1-2.7-3.5 0-2.3 1.2-3.6 2.8-3.6 1.6.1 2.6 1.4 2.6 3.5zm-4.2.1c0 1.5.5 2.6 1.5 2.6s1.5-1.1 1.5-2.6c0-1.4-.4-2.6-1.5-2.6-.9.1-1.5 1.2-1.5 2.6z" class="st11"/>
  <path d="M437.6 70.3H434V69h8.8v1.3h-3.6v10.6h-1.6V70.3z" class="st11"/>
  <path d="M445.6 70c0 .5-.4 1-1 1s-.9-.4-.9-1c0-.5.4-1 1-1 .5 0 .9.4.9 1zm-1.8 10.9v-8.5h1.6v8.5h-1.6z" class="st11"/>
  <path d="M454.1 80.6c-.4.2-1.3.5-2.5.5-2.6 0-4.3-1.7-4.3-4.4 0-2.6 1.8-4.6 4.6-4.6.9 0 1.7.2 2.2.5l-.4 1.2c-.4-.2-1-.4-1.8-.4-2 0-3 1.5-3 3.2 0 2 1.3 3.2 3 3.2.9 0 1.5-.2 1.9-.4l.3 1.2z" class="st11"/>
  <path d="M457.4 76.3c.2-.3.5-.7.8-1l2.5-2.9h1.9l-3.3 3.5 3.8 5h-1.9l-2.9-4.1-.8.9v3.2H456V68.4h1.5v7.9z" class="st11"/>
  <path d="M465 76.9c0 2.1 1.4 3 2.9 3 1.1 0 1.8-.2 2.4-.4l.3 1.1c-.5.2-1.5.5-2.9.5-2.6 0-4.2-1.7-4.2-4.3 0-2.6 1.5-4.6 4-4.6 2.8 0 3.5 2.4 3.5 4 0 .3 0 .5-.1.7H465zm4.6-1.1c0-1-.4-2.5-2.2-2.5-1.6 0-2.3 1.4-2.4 2.5h4.6z" class="st11"/>
  <path d="M474.9 70.3v2h2.2v1.2h-2.2v4.6c0 1.1.3 1.7 1.2 1.7.4 0 .7 0 .9-.1l.1 1.2c-.3.1-.8.2-1.4.2-.7 0-1.3-.2-1.7-.7-.4-.5-.6-1.2-.6-2.2v-4.7H472v-1.2h1.3v-1.6l1.6-.4z" class="st11"/>
  <path d="M478.6 79.4c.5.3 1.3.6 2.1.6 1.1 0 1.6-.5 1.6-1.3 0-.7-.4-1.1-1.6-1.6-1.6-.6-2.3-1.4-2.3-2.4 0-1.4 1.1-2.5 2.9-2.5.9 0 1.6.2 2.1.5l-.4 1.1c-.3-.2-1-.5-1.7-.5-.9 0-1.4.5-1.4 1.2s.5 1 1.6 1.5c1.5.5 2.2 1.3 2.2 2.6 0 1.5-1.2 2.6-3.2 2.6-.9 0-1.8-.2-2.4-.6l.5-1.2z" class="st11"/>
  <path d="M405.1 91.5v2h2.2v1.2h-2.2v4.6c0 1.1.3 1.7 1.2 1.7.4 0 .7 0 .9-.1l.1 1.2c-.3.1-.8.2-1.4.2-.7 0-1.3-.2-1.7-.7-.4-.5-.6-1.2-.6-2.2v-4.7h-1.3v-1.2h1.3V92l1.5-.5z" class="st11"/>
  <path d="M416.7 97.8c0 3.2-2.2 4.5-4.3 4.5-2.3 0-4.1-1.7-4.1-4.4 0-2.8 1.9-4.5 4.2-4.5 2.5 0 4.2 1.8 4.2 4.4zm-6.7 0c0 1.9 1.1 3.3 2.6 3.3s2.6-1.4 2.6-3.3c0-1.4-.7-3.3-2.6-3.3-1.9 0-2.6 1.7-2.6 3.3z" class="st11"/>
  <path d="M423 93.6l1.1 4.3c.2 1 .5 1.8.6 2.7h.1c.2-.9.5-1.8.8-2.7l1.4-4.4h1.3l1.3 4.3c.3 1 .6 1.9.8 2.8h.1c.1-.9.4-1.8.7-2.8l1.2-4.3h1.5l-2.8 8.5h-1.4l-1.3-4.1c-.3-1-.5-1.8-.8-2.8-.2 1-.5 1.9-.8 2.8l-1.4 4.1H424l-2.6-8.5h1.6z" class="st11"/>
  <path d="M441.3 100.1c0 .7 0 1.5.1 2H440l-.1-1.1h-.1c-.5.7-1.4 1.3-2.6 1.3-1.7 0-2.6-1.2-2.6-2.5 0-2.1 1.8-3.2 5.1-3.2v-.2c0-.7-.2-2-1.9-2-.8 0-1.6.2-2.2.6l-.4-1c.7-.4 1.7-.7 2.8-.7 2.6 0 3.2 1.8 3.2 3.5v3.3zm-1.5-2.4c-1.7 0-3.6.3-3.6 1.9 0 1 .7 1.5 1.4 1.5 1.1 0 1.9-.7 2.1-1.4.1-.2.1-.4.1-.5v-1.5z" class="st11"/>
  <path d="M445.6 91.5v2h2.2v1.2h-2.2v4.6c0 1.1.3 1.7 1.2 1.7.4 0 .7 0 .9-.1l.1 1.2c-.3.1-.8.2-1.4.2-.7 0-1.3-.2-1.7-.7-.4-.5-.6-1.2-.6-2.2v-4.7h-1.3v-1.2h1.3V92l1.5-.5z" class="st11"/>
  <path d="M455.6 101.8c-.4.2-1.3.5-2.5.5-2.6 0-4.3-1.7-4.3-4.4 0-2.6 1.8-4.6 4.6-4.6.9 0 1.7.2 2.2.5l-.4 1.2c-.4-.2-1-.4-1.8-.4-2 0-3 1.5-3 3.2 0 2 1.3 3.2 3 3.2.9 0 1.5-.2 1.9-.4l.3 1.2z" class="st11"/>
  <path d="M457.4 89.6h1.6v5.3c.2-.4.6-.8 1.1-1.1.5-.3 1-.4 1.6-.4 1.1 0 3 .7 3 3.6v5.1h-1.6v-4.9c0-1.4-.5-2.5-2-2.5-1 0-1.8.7-2.1 1.5-.1.2-.1.5-.1.7v5.2h-1.6V89.6z" class="st11"/>
  <path d="M470.9 89.6h1.6v5.3c.2-.4.6-.8 1.1-1.1.5-.3 1-.4 1.6-.4 1.1 0 3 .7 3 3.6v5.1h-1.6v-4.9c0-1.4-.5-2.5-2-2.5-1 0-1.8.7-2.1 1.5-.1.2-.1.5-.1.7v5.2h-1.6V89.6z" class="st11"/>
  <path d="M482.4 91.2c0 .5-.4 1-1 1s-.9-.4-.9-1c0-.5.4-1 1-1 .5 0 .9.4.9 1zm-1.7 10.9v-8.5h1.6v8.5h-1.6z" class="st11"/>
  <path d="M484.6 100.5c.5.3 1.3.6 2.1.6 1.1 0 1.6-.5 1.6-1.3 0-.7-.4-1.1-1.6-1.6-1.6-.6-2.3-1.4-2.3-2.4 0-1.4 1.1-2.5 2.9-2.5.9 0 1.6.2 2.1.5l-.4 1.1c-.3-.2-1-.5-1.7-.5-.9 0-1.4.5-1.4 1.2s.5 1 1.6 1.5c1.5.5 2.2 1.3 2.2 2.6 0 1.5-1.2 2.6-3.2 2.6-.9 0-1.8-.2-2.4-.6l.5-1.2z" class="st11"/>
  <path d="M400.3 123.3v-7.4h-1.2v-1.2h1.2v-.4c0-1.2.3-2.3 1-3 .6-.6 1.4-.8 2.1-.8.6 0 1 .1 1.3.2l-.2 1.2c-.2-.1-.5-.2-1-.2-1.3 0-1.7 1.1-1.7 2.5v.5h2.1v1.2h-2.1v7.4h-1.5z" class="st11"/>
  <path d="M412.8 118.9c0 3.2-2.2 4.5-4.3 4.5-2.3 0-4.1-1.7-4.1-4.4 0-2.8 1.9-4.5 4.2-4.5 2.5.1 4.2 1.8 4.2 4.4zm-6.8.1c0 1.9 1.1 3.3 2.6 3.3s2.6-1.4 2.6-3.3c0-1.4-.7-3.3-2.6-3.3-1.8 0-2.6 1.7-2.6 3.3z" class="st11"/>
  <path d="M422.5 118.9c0 3.2-2.2 4.5-4.3 4.5-2.3 0-4.1-1.7-4.1-4.4 0-2.8 1.9-4.5 4.2-4.5 2.5.1 4.2 1.8 4.2 4.4zm-6.8.1c0 1.9 1.1 3.3 2.6 3.3s2.6-1.4 2.6-3.3c0-1.4-.7-3.3-2.6-3.3-1.8 0-2.6 1.7-2.6 3.3z" class="st11"/>
  <path d="M426.3 112.7v2h2.2v1.2h-2.2v4.6c0 1.1.3 1.7 1.2 1.7.4 0 .7 0 .9-.1l.1 1.2c-.3.1-.8.2-1.4.2-.7 0-1.3-.2-1.7-.7-.4-.5-.6-1.2-.6-2.2v-4.7h-1.3v-1.2h1.3v-1.6l1.5-.4z" class="st11"/>
  <path d="M430.3 110.7h1.5v5.4c.5-1 1.5-1.6 2.9-1.6 2.1 0 3.6 1.8 3.6 4.3 0 3.1-1.9 4.6-3.8 4.6-1.2 0-2.2-.5-2.9-1.6l-.1 1.4h-1.3c0-.6.1-1.4.1-2.2v-10.3zm1.5 9.1c0 .2 0 .4.1.6.3 1.1 1.2 1.8 2.3 1.8 1.6 0 2.6-1.3 2.6-3.3 0-1.7-.9-3.2-2.6-3.2-1 0-2 .7-2.3 1.9-.1.2-.1.4-.1.7v1.5z" class="st11"/>
  <path d="M446.3 121.2c0 .7 0 1.5.1 2H445l-.1-1.1h-.1c-.5.7-1.4 1.3-2.6 1.3-1.7 0-2.6-1.2-2.6-2.5 0-2.1 1.8-3.2 5.1-3.2v-.2c0-.7-.2-2-1.9-2-.8 0-1.6.2-2.2.6l-.4-1c.7-.4 1.7-.7 2.8-.7 2.6 0 3.2 1.8 3.2 3.5v3.3zm-1.5-2.3c-1.7 0-3.6.3-3.6 1.9 0 1 .7 1.5 1.4 1.5 1.1 0 1.9-.7 2.1-1.4.1-.2.1-.4.1-.5v-1.5z" class="st11"/>
  <path d="M448.8 110.7h1.6v12.5h-1.6v-12.5z" class="st11"/>
  <path d="M453 110.7h1.6v12.5H453v-12.5z" class="st11"/>
  <path d="M462.7 112.7v2h2.2v1.2h-2.2v4.6c0 1.1.3 1.7 1.2 1.7.4 0 .7 0 .9-.1l.1 1.2c-.3.1-.8.2-1.4.2-.7 0-1.3-.2-1.7-.7-.4-.5-.6-1.2-.6-2.2v-4.7h-1.3v-1.2h1.3v-1.6l1.5-.4z" class="st11"/>
  <path d="M467.5 119.3c0 2.1 1.4 3 2.9 3 1.1 0 1.8-.2 2.4-.4l.3 1.1c-.5.2-1.5.5-2.9.5-2.6 0-4.2-1.7-4.2-4.3 0-2.6 1.5-4.6 4-4.6 2.8 0 3.5 2.4 3.5 4 0 .3 0 .5-.1.7h-5.9zm4.5-1.1c0-1-.4-2.5-2.2-2.5-1.6 0-2.3 1.4-2.4 2.5h4.6z" class="st11"/>
  <path d="M481.4 121.2c0 .7 0 1.5.1 2h-1.4l-.1-1.1c-.5.7-1.4 1.3-2.6 1.3-1.7 0-2.6-1.2-2.6-2.5 0-2.1 1.8-3.2 5.1-3.2v-.2c0-.7-.2-2-1.9-2-.8 0-1.6.2-2.2.6l-.4-1c.7-.4 1.7-.7 2.8-.7 2.6 0 3.2 1.8 3.2 3.5v3.3zm-1.5-2.3c-1.7 0-3.6.3-3.6 1.9 0 1 .7 1.5 1.4 1.5 1.1 0 1.9-.7 2.1-1.4.1-.2.1-.4.1-.5v-1.5z" class="st11"/>
  <path d="M483.9 117c0-.9 0-1.6-.1-2.3h1.4l.1 1.4h.1c.5-.8 1.3-1.6 2.7-1.6 1.1 0 2 .7 2.4 1.7.3-.5.6-.8 1-1.1.5-.4 1.1-.6 1.9-.6 1.1 0 2.8.7 2.8 3.7v5h-1.5v-4.8c0-1.7-.6-2.6-1.9-2.6-.9 0-1.6.7-1.9 1.4-.1.2-.1.5-.1.8v5.3h-1.5v-5.1c0-1.4-.6-2.3-1.8-2.3-1 0-1.7.8-1.9 1.6-.1.2-.1.5-.1.8v5.1H484V117z" class="st11"/>
  <path d="M386.8 508.8l-2 1.1-.3-1.2 2.5-1.3h1.3v11.5h-1.5v-10.1z" class="st11"/>
  <path d="M392.8 517.1c.4.3 1.4.7 2.5.7 2 0 2.6-1.3 2.6-2.2 0-1.6-1.5-2.3-3-2.3h-.9v-1.2h.9c1.1 0 2.6-.6 2.6-1.9 0-.9-.6-1.7-2-1.7-.9 0-1.8.4-2.3.8l-.4-1.1c.6-.4 1.8-.9 3-.9 2.3 0 3.3 1.3 3.3 2.7 0 1.2-.7 2.2-2.1 2.7 1.4.3 2.5 1.3 2.6 2.9 0 1.8-1.4 3.4-4.2 3.4-1.3 0-2.4-.4-3-.8l.4-1.1z" class="st11"/>
  <path d="M406.7 510.6c0 2.4-1.3 3.6-2.7 3.6-1.4 0-2.7-1.1-2.7-3.4s1.2-3.6 2.8-3.6c1.5 0 2.6 1.2 2.6 3.4zm-4.2.1c0 1.5.5 2.6 1.5 2.6s1.5-1.1 1.5-2.6c0-1.4-.4-2.6-1.5-2.6-1 0-1.5 1.2-1.5 2.6zm1.3 8.3l6.8-11.9h1l-6.8 11.9h-1zm10.3-3.7c0 2.4-1.3 3.6-2.7 3.6-1.4 0-2.7-1.1-2.7-3.5 0-2.3 1.2-3.6 2.8-3.6 1.6.1 2.6 1.4 2.6 3.5zm-4.1.1c0 1.5.5 2.6 1.5 2.6s1.5-1.1 1.5-2.6c0-1.4-.4-2.6-1.5-2.6-1 .1-1.5 1.2-1.5 2.6z" class="st11"/>
  <path d="M419.8 507.1c.7-.2 1.7-.3 2.8-.3 1.5 0 2.5.3 3.2.9.6.5 1 1.2 1 2.1 0 1.2-.8 2.2-2 2.6v.1c1.1.3 2.5 1.2 2.5 3 0 1-.4 1.8-1 2.4-.8.8-2.2 1.1-4.1 1.1-1.1 0-1.9-.1-2.4-.1v-11.8zm1.5 4.9h1.4c1.6 0 2.6-.9 2.6-2 0-1.4-1-1.9-2.6-1.9-.7 0-1.1.1-1.4.1v3.8zm0 5.7c.3.1.7.1 1.3.1 1.6 0 3.1-.6 3.1-2.3 0-1.6-1.4-2.3-3.1-2.3h-1.3v4.5z" class="st11"/>
  <path d="M435.3 516.8c0 .7 0 1.5.1 2H434l-.1-1.1h-.1c-.5.7-1.4 1.3-2.6 1.3-1.7 0-2.6-1.2-2.6-2.5 0-2.1 1.8-3.2 5.1-3.2v-.2c0-.7-.2-2-1.9-2-.8 0-1.6.2-2.2.6l-.4-1c.7-.4 1.7-.7 2.8-.7 2.6 0 3.2 1.8 3.2 3.5v3.3zm-1.5-2.3c-1.7 0-3.6.3-3.6 1.9 0 1 .7 1.5 1.4 1.5 1.1 0 1.9-.7 2.1-1.4.1-.2.1-.4.1-.5v-1.5z" class="st11"/>
  <path d="M437.8 513c0-1 0-1.9-.1-2.7h1.4l.1 1.7h.1c.4-1.1 1.3-1.9 2.4-1.9h.4v1.5h-.5c-1.1 0-1.9.8-2.1 2 0 .2-.1.5-.1.7v4.6h-1.6V513z" class="st11"/>
  <path d="M450.7 517.6c0 2-.4 3.2-1.2 3.9-.8.8-2 1-3.1 1-1 0-2.2-.2-2.8-.7l.4-1.2c.6.4 1.4.7 2.5.7 1.6 0 2.8-.8 2.8-3v-.9c-.5.8-1.4 1.4-2.7 1.4-2.1 0-3.6-1.8-3.6-4.2 0-2.9 1.9-4.5 3.9-4.5 1.5 0 2.3.8 2.7 1.5l.1-1.3h1.4c-.1.6-.1 1.3-.1 2.3v5zm-1.5-3.9c0-.3 0-.5-.1-.7-.3-.9-1-1.7-2.2-1.7-1.5 0-2.5 1.3-2.5 3.2 0 1.7.9 3.1 2.5 3.1 1 0 1.8-.6 2.2-1.6.1-.3.1-.6.1-.8v-1.5z" class="st11"/>
  <path d="M459.3 516.8c0 .7 0 1.5.1 2H458l-.1-1.1h-.1c-.5.7-1.4 1.3-2.6 1.3-1.7 0-2.6-1.2-2.6-2.5 0-2.1 1.8-3.2 5.1-3.2v-.2c0-.7-.2-2-1.9-2-.8 0-1.6.2-2.2.6l-.4-1c.7-.4 1.7-.7 2.8-.7 2.6 0 3.2 1.8 3.2 3.5v3.3zm-1.5-2.3c-1.7 0-3.6.3-3.6 1.9 0 1 .7 1.5 1.4 1.5 1.1 0 1.9-.7 2.1-1.4.1-.2.1-.4.1-.5v-1.5z" class="st11"/>
  <path d="M463.5 507.9c0 .5-.4 1-1 1s-.9-.4-.9-1 .4-1 1-1c.5 0 .9.4.9 1zm-1.7 10.9v-8.5h1.6v8.5h-1.6z" class="st11"/>
  <path d="M465.9 512.6c0-.9 0-1.6-.1-2.3h1.4l.1 1.4c.4-.8 1.4-1.6 2.8-1.6 1.2 0 3 .7 3 3.6v5.1h-1.6v-4.9c0-1.4-.5-2.5-2-2.5-1 0-1.8.7-2.1 1.6-.1.2-.1.5-.1.7v5.1h-1.6v-6.2z" class="st11"/>
  <path d="M479.4 506.3h1.5v5.4c.5-1 1.5-1.6 2.9-1.6 2.1 0 3.6 1.8 3.6 4.3 0 3.1-1.9 4.6-3.8 4.6-1.2 0-2.2-.5-2.9-1.6l-.1 1.4h-1.3c0-.6.1-1.4.1-2.2v-10.3zm1.6 9.1c0 .2 0 .4.1.6.3 1.1 1.2 1.8 2.3 1.8 1.6 0 2.6-1.3 2.6-3.3 0-1.7-.9-3.2-2.6-3.2-1 0-2 .7-2.3 1.9-.1.2-.1.4-.1.7v1.5z" class="st11"/>
  <path d="M491.2 507.9c0 .5-.4 1-1 1s-.9-.4-.9-1 .4-1 1-1c.5 0 .9.4.9 1zm-1.7 10.9v-8.5h1.6v8.5h-1.6z" class="st11"/>
  <path d="M493.6 512.6c0-.9 0-1.6-.1-2.3h1.4l.1 1.4c.4-.8 1.4-1.6 2.8-1.6 1.2 0 3 .7 3 3.6v5.1h-1.6v-4.9c0-1.4-.5-2.5-2-2.5-1 0-1.8.7-2.1 1.6-.1.2-.1.5-.1.7v5.1h-1.6v-6.2z" class="st11"/>
  <path d="M515.5 518.5c-.5.3-1.7.6-3.1.6-3.4 0-5.9-2.1-5.9-6 0-3.7 2.5-6.2 6.2-6.2 1.5 0 2.4.3 2.8.5l-.4 1.3c-.6-.3-1.4-.5-2.4-.5-2.8 0-4.6 1.8-4.6 4.9 0 2.9 1.7 4.8 4.6 4.8 1 0 1.9-.2 2.5-.5l.3 1.1z" class="st11"/>
  <path d="M517.4 507.1c.9-.2 2-.3 3.3-.3 2.2 0 3.8.5 4.8 1.5 1.1 1 1.7 2.3 1.7 4.3 0 1.9-.6 3.5-1.7 4.6-1.1 1.1-3 1.7-5.3 1.7-1.1 0-2-.1-2.8-.1v-11.7zm1.5 10.5c.4.1 1 .1 1.6.1 3.3 0 5.1-1.8 5.1-5 0-2.8-1.6-4.6-4.8-4.6-.8 0-1.4.1-1.8.2v9.3z" class="st11"/>
  <path d="M32.6 248.5l-2 1.1-.3-1.2 2.5-1.3h1.3v11.5h-1.5v-10.1z" class="st11"/>
  <path d="M44.8 248.1c-.3 0-.7 0-1.2.1-2.5.4-3.7 2.2-4 4.1.5-.7 1.5-1.3 2.8-1.3 2 0 3.5 1.5 3.5 3.7 0 2.1-1.4 4.1-3.8 4.1s-4-1.9-4-4.9c0-2.3.8-4 1.9-5.2 1-.9 2.2-1.5 3.7-1.7.5-.1.8-.1 1.1-.1v1.2zm-.5 6.6c0-1.6-.9-2.6-2.4-2.6-.9 0-1.8.6-2.2 1.4-.1.2-.2.4-.2.7 0 1.9.9 3.3 2.5 3.3 1.4 0 2.3-1.1 2.3-2.8z" class="st11"/>
  <path d="M52.4 250.2c0 2.4-1.3 3.6-2.7 3.6-1.4 0-2.7-1.1-2.7-3.4s1.2-3.6 2.8-3.6c1.6 0 2.6 1.3 2.6 3.4zm-4.2.1c0 1.5.5 2.6 1.5 2.6s1.5-1.1 1.5-2.6c0-1.4-.4-2.6-1.5-2.6-.9.1-1.5 1.2-1.5 2.6zm1.4 8.4l6.8-11.9h1l-6.8 11.9h-1zm10.3-3.7c0 2.4-1.3 3.6-2.7 3.6-1.4 0-2.7-1.1-2.7-3.5 0-2.3 1.2-3.6 2.8-3.6 1.6.1 2.6 1.3 2.6 3.5zm-4.2.1c0 1.5.5 2.6 1.5 2.6s1.5-1.1 1.5-2.6c0-1.4-.4-2.6-1.5-2.6-.9 0-1.5 1.2-1.5 2.6z" class="st11"/>
  <path d="M65.5 246.6h1.6v10.6h5.1v1.3h-6.6v-11.9z" class="st11"/>
  <path d="M79.8 256.4c0 .7 0 1.5.1 2h-1.4l-.1-1.1h-.1c-.5.7-1.4 1.3-2.6 1.3-1.7 0-2.6-1.2-2.6-2.5 0-2.1 1.8-3.2 5.1-3.2v-.2c0-.7-.2-2-1.9-2-.8 0-1.6.2-2.2.6l-.4-1c.7-.4 1.7-.7 2.8-.7 2.6 0 3.2 1.8 3.2 3.5v3.3zm-1.5-2.3c-1.7 0-3.6.3-3.6 1.9 0 1 .7 1.5 1.4 1.5 1.1 0 1.9-.7 2.1-1.4.1-.2.1-.4.1-.5v-1.5z" class="st11"/>
  <path d="M82.3 252.6c0-1 0-1.9-.1-2.7h1.4l.1 1.7h.1c.4-1.1 1.3-1.9 2.4-1.9h.4v1.5h-.5c-1.1 0-1.9.8-2.1 2 0 .2-.1.5-.1.7v4.6h-1.6v-5.9z" class="st11"/>
  <path d="M95.3 257.2c0 2-.4 3.2-1.2 3.9-.8.8-2 1-3.1 1-1 0-2.2-.2-2.8-.7l.4-1.2c.6.4 1.4.7 2.5.7 1.6 0 2.8-.8 2.8-3v-.9c-.5.8-1.4 1.4-2.7 1.4-2.1 0-3.6-1.8-3.6-4.2 0-2.9 1.9-4.5 3.9-4.5 1.5 0 2.3.8 2.7 1.5l.1-1.3h1.4c-.1.6-.1 1.3-.1 2.3v5zm-1.6-3.9c0-.3 0-.5-.1-.7-.3-.9-1-1.7-2.2-1.7-1.5 0-2.5 1.3-2.5 3.2 0 1.7.9 3.1 2.5 3.1 1 0 1.8-.6 2.2-1.6.1-.3.1-.6.1-.8v-1.5z" class="st11"/>
  <path d="M98.7 254.5c0 2.1 1.4 3 2.9 3 1.1 0 1.8-.2 2.4-.4l.3 1.1c-.5.2-1.5.5-2.9.5-2.6 0-4.2-1.7-4.2-4.3 0-2.6 1.5-4.6 4-4.6 2.8 0 3.5 2.4 3.5 4 0 .3 0 .5-.1.7h-5.9zm4.5-1.1c0-1-.4-2.5-2.2-2.5-1.6 0-2.3 1.4-2.4 2.5h4.6z" class="st11"/>
  <path d="M37.5 279.4c-.4.2-1.3.5-2.5.5-2.6 0-4.3-1.7-4.3-4.4 0-2.6 1.8-4.6 4.6-4.6.9 0 1.7.2 2.2.5l-.4 1.2c-.4-.2-1-.4-1.8-.4-2 0-3 1.5-3 3.2 0 2 1.3 3.2 3 3.2.9 0 1.5-.2 1.9-.4l.3 1.2z" class="st11"/>
  <path d="M46.4 277.3c0 .9 0 1.7.1 2.3h-1.4l-.1-1.4c-.4.7-1.3 1.6-2.8 1.6-1.3 0-2.9-.8-2.9-3.7v-5h1.6v4.7c0 1.6.5 2.7 1.9 2.7 1 0 1.8-.7 2-1.4.1-.2.1-.5.1-.8v-5.2h1.6v6.2z" class="st11"/>
  <path d="M56.3 267.1v10.3c0 .8 0 1.6.1 2.2H55l-.1-1.5h-.1c-.5 1-1.5 1.7-2.9 1.7-2.1 0-3.7-1.7-3.7-4.3 0-2.8 1.8-4.6 3.8-4.6 1.3 0 2.2.6 2.6 1.3v-5.1h1.7zm-1.5 7.5c0-.2 0-.5-.1-.7-.2-1-1.1-1.8-2.2-1.8-1.6 0-2.6 1.4-2.6 3.3 0 1.7.9 3.2 2.5 3.2 1 0 2-.7 2.3-1.9.1-.2.1-.4.1-.7v-1.4z" class="st11"/>
  <path d="M66.3 267.1v10.3c0 .8 0 1.6.1 2.2H65l-.1-1.5h-.1c-.5 1-1.5 1.7-2.9 1.7-2.1 0-3.7-1.7-3.7-4.3 0-2.8 1.8-4.6 3.8-4.6 1.3 0 2.2.6 2.6 1.3v-5.1h1.7zm-1.5 7.5c0-.2 0-.5-.1-.7-.2-1-1.1-1.8-2.2-1.8-1.6 0-2.6 1.4-2.6 3.3 0 1.7.9 3.2 2.5 3.2 1 0 2-.7 2.3-1.9.1-.2.1-.4.1-.7v-1.4z" class="st11"/>
  <path d="M68.9 267.1h1.6v12.5h-1.6v-12.5z" class="st11"/>
  <path d="M73.6 271.1l1.9 5c.2.6.4 1.2.6 1.7.2-.5.3-1.2.5-1.8l1.7-5H80l-2.3 6.1c-1.1 2.9-1.9 4.4-2.9 5.3-.8.7-1.5.9-1.9 1l-.4-1.3c.4-.1.9-.4 1.4-.8.4-.3.9-.9 1.3-1.7.1-.2.1-.3.1-.4 0-.1 0-.2-.1-.4l-3.1-7.9h1.5z" class="st11"/>
  <path d="M87 269.1v2h2.2v1.2H87v4.6c0 1.1.3 1.7 1.2 1.7.4 0 .7 0 .9-.1l.1 1.2c-.3.1-.8.2-1.4.2-.7 0-1.3-.2-1.7-.7-.4-.5-.6-1.2-.6-2.2v-4.7h-1.3v-1.2h1.3v-1.6l1.5-.4z" class="st11"/>
  <path d="M98.6 275.3c0 3.2-2.2 4.5-4.3 4.5-2.3 0-4.1-1.7-4.1-4.4 0-2.8 1.9-4.5 4.2-4.5 2.5 0 4.2 1.8 4.2 4.4zm-6.8.1c0 1.9 1.1 3.3 2.6 3.3s2.6-1.4 2.6-3.3c0-1.4-.7-3.3-2.6-3.3-1.8 0-2.6 1.7-2.6 3.3z" class="st11"/>
  <path d="M101 271.1l1.9 5c.2.6.4 1.2.6 1.7.2-.5.3-1.2.5-1.8l1.7-5h1.6l-2.3 6.1c-1.1 2.9-1.9 4.4-2.9 5.3-.8.7-1.5.9-1.9 1l-.4-1.3c.4-.1.9-.4 1.4-.8.4-.3.9-.9 1.3-1.7.1-.2.1-.3.1-.4 0-.1 0-.2-.1-.4l-3.1-7.9h1.6z" class="st11"/>
  <path d="M98.9 512.6l-2 1.1-.3-1.2 2.5-1.3h1.3v11.5h-1.5v-10.1z" class="st11"/>
  <path d="M112 511.1v1l-5 10.4h-1.6l5-10.1h-5.6v-1.3h7.2z" class="st11"/>
  <path d="M118.8 514.3c0 2.4-1.3 3.6-2.7 3.6-1.4 0-2.7-1.1-2.7-3.4s1.2-3.6 2.8-3.6c1.5 0 2.6 1.3 2.6 3.4zm-4.2.2c0 1.5.5 2.6 1.5 2.6s1.5-1.1 1.5-2.6c0-1.4-.4-2.6-1.5-2.6-1 0-1.5 1.1-1.5 2.6zm1.3 8.3l6.8-11.9h1l-6.8 11.9h-1zm10.3-3.7c0 2.4-1.3 3.6-2.7 3.6-1.4 0-2.7-1.1-2.7-3.5 0-2.3 1.2-3.6 2.8-3.6 1.6.1 2.6 1.3 2.6 3.5zm-4.1.1c0 1.5.5 2.6 1.5 2.6s1.5-1.1 1.5-2.6c0-1.4-.4-2.6-1.5-2.6-1 0-1.5 1.2-1.5 2.6z" class="st11"/>
  <path d="M133.4 512h-3.6v-1.3h8.8v1.3H135v10.6h-1.6V512z" class="st11"/>
  <path d="M144.7 520.6c0 .7 0 1.5.1 2h-1.4l-.1-1.1h-.1c-.5.7-1.4 1.3-2.6 1.3-1.7 0-2.6-1.2-2.6-2.5 0-2.1 1.8-3.2 5.1-3.2v-.1c0-.7-.2-2-1.9-2-.8 0-1.6.2-2.2.6l-.4-1c.7-.4 1.7-.7 2.8-.7 2.6 0 3.2 1.8 3.2 3.5v3.2zm-1.5-2.4c-1.7 0-3.6.3-3.6 1.9 0 1 .7 1.5 1.4 1.5 1.1 0 1.9-.7 2.1-1.4.1-.2.1-.4.1-.5v-1.5z" class="st11"/>
  <path d="M153.3 522.3c-.4.2-1.3.5-2.5.5-2.6 0-4.3-1.7-4.3-4.4 0-2.6 1.8-4.6 4.6-4.6.9 0 1.7.2 2.2.5l-.4 1.2c-.4-.2-1-.4-1.8-.4-2 0-3 1.5-3 3.2 0 2 1.3 3.2 3 3.2.9 0 1.5-.2 1.9-.4l.3 1.2z" class="st11"/>
  <path d="M156.7 518c.2-.3.5-.7.8-1l2.5-2.9h1.9l-3.3 3.5 3.8 5h-1.9l-2.9-4.1-.8.9v3.2h-1.5v-12.5h1.5v7.9z" class="st11"/>
  <path d="M164.2 514.1l1.9 5c.2.6.4 1.2.6 1.7.2-.5.3-1.2.5-1.8l1.7-5h1.6l-2.3 6.1c-1.1 2.9-1.9 4.4-2.9 5.3-.8.7-1.5.9-1.9 1l-.4-1.3c.4-.1.9-.4 1.4-.8.4-.3.9-.9 1.3-1.7.1-.2.1-.3.1-.4s0-.2-.1-.4l-3.1-7.9h1.6z" class="st11"/>
  <path d="M100.5 546.3c.7-.1 1.3-.2 1.7-.7.4-.5.6-1.1.6-3.2v-7.2h1.6v7.8c0 1.7-.3 2.7-1 3.5-.7.7-1.8 1-2.6 1l-.3-1.2zm4.1-13.5c0 .5-.4 1-1 1s-.9-.4-.9-1c0-.5.4-1 1-1s.9.5.9 1z" class="st11"/>
  <path d="M107.8 539.8c0 2.1 1.4 3 2.9 3 1.1 0 1.8-.2 2.4-.4l.3 1.1c-.5.2-1.5.5-2.9.5-2.6 0-4.2-1.7-4.2-4.3 0-2.6 1.5-4.6 4-4.6 2.8 0 3.5 2.4 3.5 4 0 .3 0 .5-.1.7h-5.9zm4.5-1.1c0-1-.4-2.5-2.2-2.5-1.6 0-2.3 1.4-2.4 2.5h4.6z" class="st11"/>
  <path d="M116.4 535.2l1.1 4.3c.2 1 .5 1.8.6 2.7h.1c.2-.9.5-1.8.8-2.7l1.4-4.4h1.3l1.3 4.3c.3 1 .6 1.9.8 2.8h.1c.1-.9.4-1.8.7-2.8l1.2-4.3h1.5l-2.8 8.5H123l-1.3-4.1c-.3-1-.5-1.8-.8-2.8-.2 1-.5 1.9-.8 2.8l-1.4 4.1h-1.4l-2.6-8.5h1.7z" class="st11"/>
  <path d="M129.4 539.8c0 2.1 1.4 3 2.9 3 1.1 0 1.8-.2 2.4-.4l.3 1.1c-.5.2-1.5.5-2.9.5-2.6 0-4.2-1.7-4.2-4.3 0-2.6 1.5-4.6 4-4.6 2.8 0 3.5 2.4 3.5 4 0 .3 0 .5-.1.7h-5.9zm4.6-1.1c0-1-.4-2.5-2.2-2.5-1.6 0-2.3 1.4-2.4 2.5h4.6z" class="st11"/>
  <path d="M137.4 531.2h1.6v12.5h-1.6v-12.5z" class="st11"/>
  <path d="M141.6 531.2h1.6v12.5h-1.6v-12.5z" class="st11"/>
  <path d="M146.6 539.8c0 2.1 1.4 3 2.9 3 1.1 0 1.8-.2 2.4-.4l.3 1.1c-.5.2-1.5.5-2.9.5-2.6 0-4.2-1.7-4.2-4.3 0-2.6 1.5-4.6 4-4.6 2.8 0 3.5 2.4 3.5 4 0 .3 0 .5-.1.7h-5.9zm4.5-1.1c0-1-.4-2.5-2.2-2.5-1.6 0-2.3 1.4-2.4 2.5h4.6z" class="st11"/>
  <path d="M154.6 537.9c0-1 0-1.9-.1-2.7h1.4l.1 1.7h.1c.4-1.1 1.3-1.9 2.4-1.9h.4v1.5h-.5c-1.1 0-1.9.8-2.1 2 0 .2-.1.5-.1.7v4.6h-1.6v-5.9z" class="st11"/>
  <path d="M161.3 535.2l1.9 5c.2.6.4 1.2.6 1.7.2-.5.3-1.2.5-1.8l1.7-5h1.6l-2.3 6.1c-1.1 2.9-1.9 4.4-2.9 5.3-.8.7-1.5.9-1.9 1l-.4-1.3c.4-.1.9-.4 1.4-.8.4-.3.9-.9 1.3-1.7.1-.2.1-.3.1-.4s0-.2-.1-.4l-3.1-7.9h1.6z" class="st11"/>
  <path d="M522.8 256v-1l1.2-1.2c2.9-2.8 4.3-4.3 4.3-6 0-1.2-.5-2.2-2.3-2.2-1 0-1.9.5-2.4 1l-.5-1.1c.8-.7 1.9-1.2 3.2-1.2 2.5 0 3.5 1.7 3.5 3.3 0 2.1-1.5 3.8-4 6.2l-.9.8h5.1v1.3h-7.2z" class="st11"/>
  <path d="M539.5 250.1c0 3.9-1.5 6.1-4 6.1-2.2 0-3.8-2.1-3.8-5.9 0-3.9 1.7-6 4-6 2.4 0 3.8 2.2 3.8 5.8zm-6.2.2c0 3 .9 4.7 2.3 4.7 1.6 0 2.3-1.9 2.3-4.8 0-2.8-.7-4.7-2.3-4.7-1.4 0-2.3 1.7-2.3 4.8z" class="st11"/>
  <path d="M546 247.7c0 2.4-1.3 3.6-2.7 3.6-1.4 0-2.7-1.1-2.7-3.4s1.2-3.6 2.8-3.6c1.6 0 2.6 1.3 2.6 3.4zm-4.1.1c0 1.5.5 2.6 1.5 2.6s1.5-1.1 1.5-2.6c0-1.4-.4-2.6-1.5-2.6-1 .1-1.5 1.2-1.5 2.6zm1.3 8.4l6.8-11.9h1l-6.8 11.9h-1zm10.3-3.7c0 2.4-1.3 3.6-2.7 3.6-1.4 0-2.7-1.1-2.7-3.5 0-2.3 1.2-3.6 2.8-3.6 1.6.1 2.6 1.3 2.6 3.5zm-4.2.1c0 1.5.5 2.6 1.5 2.6s1.5-1.1 1.5-2.6c0-1.4-.4-2.6-1.5-2.6-.9 0-1.5 1.1-1.5 2.6z" class="st11"/>
  <path d="M559.2 244.2c.7-.1 1.7-.2 2.9-.2 1.5 0 2.6.4 3.3 1 .6.6 1 1.4 1 2.5s-.3 1.9-.9 2.5c-.8.9-2.1 1.3-3.6 1.3-.5 0-.9 0-1.2-.1v4.8h-1.5v-11.8zm1.5 5.8c.3.1.8.1 1.3.1 1.9 0 3-.9 3-2.5s-1.1-2.3-2.8-2.3c-.7 0-1.2.1-1.4.1v4.6z" class="st11"/>
  <path d="M568.9 252c0 2.1 1.4 3 2.9 3 1.1 0 1.8-.2 2.4-.4l.3 1.1c-.5.2-1.5.5-2.9.5-2.6 0-4.2-1.7-4.2-4.3 0-2.6 1.5-4.6 4-4.6 2.8 0 3.5 2.4 3.5 4 0 .3 0 .5-.1.7h-5.9zm4.6-1.1c0-1-.4-2.5-2.2-2.5-1.6 0-2.3 1.4-2.4 2.5h4.6z" class="st11"/>
  <path d="M578.8 245.4v2h2.2v1.2h-2.2v4.6c0 1.1.3 1.7 1.2 1.7.4 0 .7 0 .9-.1l.1 1.2c-.3.1-.8.2-1.4.2-.7 0-1.3-.2-1.7-.7-.4-.5-.6-1.2-.6-2.2v-4.7H576v-1.2h1.3v-1.6l1.5-.4z" class="st11"/>
  <path d="M582.7 250.1c0-1 0-1.9-.1-2.7h1.4l.1 1.7h.1c.4-1.1 1.3-1.9 2.4-1.9h.4v1.5h-.5c-1.1 0-1.9.8-2.1 2 0 .2-.1.5-.1.7v4.6h-1.6v-5.9z" class="st11"/>
  <path d="M596 251.6c0 3.2-2.2 4.5-4.3 4.5-2.3 0-4.1-1.7-4.1-4.4 0-2.8 1.9-4.5 4.2-4.5 2.6.1 4.2 1.8 4.2 4.4zm-6.7.1c0 1.9 1.1 3.3 2.6 3.3s2.6-1.4 2.6-3.3c0-1.4-.7-3.3-2.6-3.3-1.8 0-2.6 1.7-2.6 3.3z" class="st11"/>
  <path d="M598 243.5h1.6V256H598v-12.5z" class="st11"/>
  <path d="M510.6 275.6c.5.3 1.3.6 2.1.6 1.1 0 1.6-.5 1.6-1.3 0-.7-.4-1.1-1.6-1.6-1.6-.6-2.3-1.4-2.3-2.4 0-1.4 1.1-2.5 2.9-2.5.9 0 1.6.2 2.1.5l-.4 1.1c-.3-.2-1-.5-1.7-.5-.9 0-1.4.5-1.4 1.2s.5 1 1.6 1.5c1.5.5 2.2 1.3 2.2 2.6 0 1.5-1.2 2.6-3.2 2.6-.9 0-1.8-.2-2.4-.6l.5-1.2z" class="st11"/>
  <path d="M519.6 266.6v2h2.2v1.2h-2.2v4.6c0 1.1.3 1.7 1.2 1.7.4 0 .7 0 .9-.1l.1 1.2c-.3.1-.8.2-1.4.2-.7 0-1.3-.2-1.7-.7-.4-.5-.6-1.2-.6-2.2v-4.7h-1.3v-1.2h1.3V267l1.5-.4z" class="st11"/>
  <path d="M529.6 275.1c0 .7 0 1.5.1 2h-1.4l-.1-1.1h-.1c-.5.7-1.4 1.3-2.6 1.3-1.7 0-2.6-1.2-2.6-2.5 0-2.1 1.8-3.2 5.1-3.2v-.2c0-.7-.2-2-1.9-2-.8 0-1.6.2-2.2.6l-.4-1c.7-.4 1.7-.7 2.8-.7 2.6 0 3.2 1.8 3.2 3.5v3.3zm-1.5-2.3c-1.7 0-3.6.3-3.6 1.9 0 1 .7 1.5 1.4 1.5 1.1 0 1.9-.7 2.1-1.4.1-.2.1-.4.1-.5v-1.5z" class="st11"/>
  <path d="M533.9 266.6v2h2.2v1.2h-2.2v4.6c0 1.1.3 1.7 1.2 1.7.4 0 .7 0 .9-.1l.1 1.2c-.3.1-.8.2-1.4.2-.7 0-1.3-.2-1.7-.7-.4-.5-.6-1.2-.6-2.2v-4.7h-1.3v-1.2h1.3V267l1.5-.4z" class="st11"/>
  <path d="M539.6 266.2c0 .5-.4 1-1 1s-.9-.4-.9-1c0-.5.4-1 1-1 .5 0 .9.5.9 1zm-1.7 10.9v-8.5h1.6v8.5h-1.6z" class="st11"/>
  <path d="M549.7 272.8c0 3.2-2.2 4.5-4.3 4.5-2.3 0-4.1-1.7-4.1-4.4 0-2.8 1.9-4.5 4.2-4.5 2.6 0 4.2 1.8 4.2 4.4zm-6.7.1c0 1.9 1.1 3.3 2.6 3.3s2.6-1.4 2.6-3.3c0-1.4-.7-3.3-2.6-3.3-1.8 0-2.6 1.7-2.6 3.3z" class="st11"/>
  <path d="M551.7 270.9c0-.9 0-1.6-.1-2.3h1.4l.1 1.4c.4-.8 1.4-1.6 2.8-1.6 1.2 0 3 .7 3 3.6v5.1h-1.6v-4.9c0-1.4-.5-2.5-2-2.5-1 0-1.8.7-2.1 1.6-.1.2-.1.5-.1.7v5.1h-1.6v-6.2z" class="st11"/>
  <path d="M565.4 277.1v-7.4h-1.2v-1.2h1.2v-.4c0-1.2.4-2.3 1.2-2.9.7-.6 1.6-.9 2.8-.9 1 0 1.9.2 2.6.6v12.2h-1.6v-11.3c-.3-.1-.7-.2-1.3-.2-1.6 0-2.2 1.2-2.2 2.5v.4h2v1.2h-2v7.4h-1.5z" class="st11"/>
  <path d="M582.2 272.8c0 3.2-2.2 4.5-4.3 4.5-2.3 0-4.1-1.7-4.1-4.4 0-2.8 1.9-4.5 4.2-4.5 2.5 0 4.2 1.8 4.2 4.4zm-6.8.1c0 1.9 1.1 3.3 2.6 3.3s2.6-1.4 2.6-3.3c0-1.4-.7-3.3-2.6-3.3-1.8 0-2.6 1.7-2.6 3.3z" class="st11"/>
  <path d="M584.6 268.6l1.1 4.3c.2 1 .5 1.8.6 2.7h.1c.2-.9.5-1.8.8-2.7l1.4-4.4h1.3l1.3 4.3c.3 1 .6 1.9.8 2.8h.1c.1-.9.4-1.8.7-2.8l1.2-4.3h1.5l-2.8 8.5h-1.4l-1.3-4.1c-.3-1-.5-1.8-.8-2.8-.2 1-.5 1.9-.8 2.8L587 277h-1.4l-2.6-8.5h1.6z" class="st11"/>
  <path d="M597.7 273.2c0 2.1 1.4 3 2.9 3 1.1 0 1.8-.2 2.4-.4l.3 1.1c-.5.2-1.5.5-2.9.5-2.6 0-4.2-1.7-4.2-4.3 0-2.6 1.5-4.6 4-4.6 2.8 0 3.5 2.4 3.5 4 0 .3 0 .5-.1.7h-5.9zm4.5-1.2c0-1-.4-2.5-2.2-2.5-1.6 0-2.3 1.4-2.4 2.5h4.6z" class="st11"/>
  <path d="M605.7 271.3c0-1 0-1.9-.1-2.7h1.4l.1 1.7h.1c.4-1.1 1.3-1.9 2.4-1.9h.4v1.5h-.5c-1.1 0-1.9.8-2.1 2 0 .2-.1.5-.1.7v4.6h-1.6v-5.9z" class="st11"/>
  <path d="M611.2 275.6c.5.3 1.3.6 2.1.6 1.1 0 1.6-.5 1.6-1.3 0-.7-.4-1.1-1.6-1.6-1.6-.6-2.3-1.4-2.3-2.4 0-1.4 1.1-2.5 2.9-2.5.9 0 1.6.2 2.1.5l-.4 1.1c-.3-.2-1-.5-1.7-.5-.9 0-1.4.5-1.4 1.2s.5 1 1.6 1.5c1.5.5 2.2 1.3 2.2 2.6 0 1.5-1.2 2.6-3.2 2.6-.9 0-1.8-.2-2.4-.6l.5-1.2z" class="st11"/>
  <path d="M454.2 382.3c-1.3-.6-1.8-1.6-1.8-2.6 0-1.8 1.5-3.1 3.6-3.1 2.2 0 3.4 1.4 3.4 2.8 0 1-.5 2-1.9 2.7v.1c1.4.6 2.3 1.6 2.3 3 0 2-1.7 3.3-3.9 3.3-2.4 0-3.8-1.4-3.8-3.1-.1-1.4.7-2.4 2.1-3.1zm4 3.1c0-1.4-1-2.1-2.5-2.5-1.3.4-2.1 1.3-2.1 2.4-.1 1.1.8 2.2 2.3 2.2 1.4-.1 2.3-.9 2.3-2.1zm-4.3-5.8c0 1.1.9 1.8 2.2 2.1 1-.3 1.7-1 1.7-2.1 0-.9-.5-1.9-1.9-1.9-1.3.1-2 1-2 1.9z" class="st11"/>
  <path d="M466.3 380.1c0 2.4-1.3 3.6-2.7 3.6-1.4 0-2.7-1.1-2.7-3.4s1.2-3.6 2.8-3.6c1.6 0 2.6 1.2 2.6 3.4zm-4.2.1c0 1.5.5 2.6 1.5 2.6s1.5-1.1 1.5-2.6c0-1.4-.4-2.6-1.5-2.6-1 0-1.5 1.2-1.5 2.6zm1.4 8.4l6.8-11.9h1l-6.8 11.9h-1zm10.3-3.7c0 2.4-1.3 3.6-2.7 3.6-1.4 0-2.7-1.1-2.7-3.5 0-2.3 1.2-3.6 2.8-3.6 1.6 0 2.6 1.3 2.6 3.5zm-4.2.1c0 1.5.5 2.6 1.5 2.6s1.5-1.1 1.5-2.6c0-1.4-.4-2.6-1.5-2.6-1 0-1.5 1.1-1.5 2.6z" class="st11"/>
  <path d="M479.4 376.6c.7-.2 1.7-.3 2.8-.3 1.5 0 2.5.3 3.2.9.6.5 1 1.2 1 2.1 0 1.2-.8 2.2-2 2.6v.1c1.1.3 2.5 1.2 2.5 3 0 1-.4 1.8-1 2.4-.8.8-2.2 1.1-4.1 1.1-1.1 0-1.9-.1-2.4-.1v-11.8zm1.6 4.9h1.4c1.6 0 2.6-.9 2.6-2 0-1.4-1-1.9-2.6-1.9-.7 0-1.1.1-1.4.1v3.8zm0 5.7c.3.1.7.1 1.3.1 1.6 0 3.1-.6 3.1-2.3 0-1.6-1.4-2.3-3.1-2.3H481v4.5z" class="st11"/>
  <path d="M496.7 384c0 3.2-2.2 4.5-4.3 4.5-2.3 0-4.1-1.7-4.1-4.4 0-2.8 1.9-4.5 4.2-4.5 2.6 0 4.2 1.8 4.2 4.4zm-6.7.1c0 1.9 1.1 3.3 2.6 3.3s2.6-1.4 2.6-3.3c0-1.4-.7-3.3-2.6-3.3-1.8 0-2.6 1.7-2.6 3.3z" class="st11"/>
  <path d="M500.6 377.8v2h2.2v1.2h-2.2v4.6c0 1.1.3 1.7 1.2 1.7.4 0 .7 0 .9-.1l.1 1.2c-.3.1-.8.2-1.4.2-.7 0-1.3-.2-1.7-.7-.4-.5-.6-1.2-.6-2.2V381h-1.3v-1.2h1.3v-1.6l1.5-.4z" class="st11"/>
  <path d="M506.4 377.8v2h2.2v1.2h-2.2v4.6c0 1.1.3 1.7 1.2 1.7.4 0 .7 0 .9-.1l.1 1.2c-.3.1-.8.2-1.4.2-.7 0-1.3-.2-1.7-.7-.4-.5-.6-1.2-.6-2.2V381h-1.3v-1.2h1.3v-1.6l1.5-.4z" class="st11"/>
  <path d="M510.4 375.8h1.6v12.5h-1.6v-12.5z" class="st11"/>
  <path d="M515.4 384.4c0 2.1 1.4 3 2.9 3 1.1 0 1.8-.2 2.4-.4l.3 1.1c-.5.2-1.5.5-2.9.5-2.6 0-4.2-1.7-4.2-4.3 0-2.6 1.5-4.6 4-4.6 2.8 0 3.5 2.4 3.5 4 0 .3 0 .5-.1.7h-5.9zm4.5-1.1c0-1-.4-2.5-2.2-2.5-1.6 0-2.3 1.4-2.4 2.5h4.6z" class="st11"/>
  <path d="M534.8 384c0 3.2-2.2 4.5-4.3 4.5-2.3 0-4.1-1.7-4.1-4.4 0-2.8 1.9-4.5 4.2-4.5 2.6 0 4.2 1.8 4.2 4.4zm-6.7.1c0 1.9 1.1 3.3 2.6 3.3s2.6-1.4 2.6-3.3c0-1.4-.7-3.3-2.6-3.3-1.8 0-2.6 1.7-2.6 3.3z" class="st11"/>
  <path d="M536.9 388.4V381h-1.2v-1.2h1.2v-.4c0-1.2.3-2.3 1-3 .6-.6 1.4-.8 2.1-.8.6 0 1 .1 1.3.2l-.2 1.2c-.2-.1-.5-.2-1-.2-1.3 0-1.7 1.1-1.7 2.5v.5h2.1v1.2h-2.1v7.4h-1.5z" class="st11"/>
  <path d="M449 409.2c-.4.2-1.3.5-2.5.5-2.6 0-4.3-1.7-4.3-4.4 0-2.6 1.8-4.6 4.6-4.6.9 0 1.7.2 2.2.5l-.4 1.2c-.4-.2-1-.4-1.8-.4-2 0-3 1.5-3 3.2 0 2 1.3 3.2 3 3.2.9 0 1.5-.2 1.9-.4l.3 1.2z" class="st11"/>
  <path d="M450.8 397h1.6v5.3c.2-.4.6-.8 1.1-1.1.5-.3 1-.4 1.6-.4 1.1 0 3 .7 3 3.6v5.1h-1.6v-4.9c0-1.4-.5-2.5-2-2.5-1 0-1.8.7-2.1 1.5-.1.2-.1.5-.1.7v5.2h-1.6V397z" class="st11"/>
  <path d="M461.5 405.5c0 2.1 1.4 3 2.9 3 1.1 0 1.8-.2 2.4-.4l.3 1.1c-.5.2-1.5.5-2.9.5-2.6 0-4.2-1.7-4.2-4.3 0-2.6 1.5-4.6 4-4.6 2.8 0 3.5 2.4 3.5 4 0 .3 0 .5-.1.7h-5.9zm4.6-1.1c0-1-.4-2.5-2.2-2.5-1.6 0-2.3 1.4-2.4 2.5h4.6z" class="st11"/>
  <path d="M475.5 407.5c0 .7 0 1.5.1 2h-1.4l-.1-1.1h-.1c-.5.7-1.4 1.3-2.6 1.3-1.7 0-2.6-1.2-2.6-2.5 0-2.1 1.8-3.2 5.1-3.2v-.2c0-.7-.2-2-1.9-2-.8 0-1.6.2-2.2.6l-.4-1c.7-.4 1.7-.7 2.8-.7 2.6 0 3.2 1.8 3.2 3.5v3.3zm-1.5-2.3c-1.7 0-3.6.3-3.6 1.9 0 1 .7 1.5 1.4 1.5 1.1 0 1.9-.7 2.1-1.4.1-.2.1-.4.1-.5v-1.5z" class="st11"/>
  <path d="M478 403.8c0-1.1 0-2-.1-2.8h1.4l.1 1.5c.6-1 1.6-1.6 3-1.6 2.1 0 3.6 1.7 3.6 4.3 0 3.1-1.9 4.6-3.9 4.6-1.1 0-2.1-.5-2.6-1.3v4.6H478v-9.3zm1.5 2.2c0 .2 0 .4.1.6.3 1.1 1.2 1.8 2.3 1.8 1.6 0 2.6-1.3 2.6-3.3 0-1.7-.9-3.2-2.5-3.2-1.1 0-2.1.7-2.3 1.9-.1.2-.1.4-.1.6v1.6z" class="st11"/>
  <path d="M491.8 403.8c0-1.1 0-2-.1-2.8h1.4l.1 1.5c.6-1 1.6-1.6 3-1.6 2.1 0 3.6 1.7 3.6 4.3 0 3.1-1.9 4.6-3.9 4.6-1.1 0-2.1-.5-2.6-1.3v4.6h-1.5v-9.3zm1.5 2.2c0 .2 0 .4.1.6.3 1.1 1.2 1.8 2.3 1.8 1.6 0 2.6-1.3 2.6-3.3 0-1.7-.9-3.2-2.5-3.2-1.1 0-2.1.7-2.3 1.9-.1.2-.1.4-.1.6v1.6z" class="st11"/>
  <path d="M502.7 405.5c0 2.1 1.4 3 2.9 3 1.1 0 1.8-.2 2.4-.4l.3 1.1c-.5.2-1.5.5-2.9.5-2.6 0-4.2-1.7-4.2-4.3 0-2.6 1.5-4.6 4-4.6 2.8 0 3.5 2.4 3.5 4 0 .3 0 .5-.1.7h-5.9zm4.5-1.1c0-1-.4-2.5-2.2-2.5-1.6 0-2.3 1.4-2.4 2.5h4.6z" class="st11"/>
  <path d="M510.6 403.6c0-1 0-1.9-.1-2.7h1.4l.1 1.7h.1c.4-1.1 1.3-1.9 2.4-1.9h.4v1.5h-.5c-1.1 0-1.9.8-2.1 2 0 .2-.1.5-.1.7v4.6h-1.6v-5.9z" class="st11"/>
  <path d="M517.1 409.5v-7.4h-1.2V401h1.2v-.4c0-1.2.3-2.3 1-3 .6-.6 1.4-.8 2.1-.8.6 0 1 .1 1.3.2l-.2 1.2c-.2-.1-.5-.2-1-.2-1.3 0-1.7 1.1-1.7 2.5v.5h2.1v1.2h-2.1v7.4h-1.5z" class="st11"/>
  <path d="M529.2 407.2c0 .9 0 1.7.1 2.3h-1.4l-.1-1.4c-.4.7-1.3 1.6-2.8 1.6-1.3 0-2.9-.8-2.9-3.7v-5h1.6v4.7c0 1.6.5 2.7 1.9 2.7 1 0 1.8-.7 2-1.4.1-.2.1-.5.1-.8V401h1.6v6.2z" class="st11"/>
  <path d="M531.8 403.3c0-.9 0-1.6-.1-2.3h1.4l.1 1.4h.1c.5-.8 1.3-1.6 2.7-1.6 1.1 0 2 .7 2.4 1.7.3-.5.6-.8 1-1.1.5-.4 1.1-.6 1.9-.6 1.1 0 2.8.7 2.8 3.7v5h-1.5v-4.8c0-1.7-.6-2.6-1.9-2.6-.9 0-1.6.7-1.9 1.4-.1.2-.1.5-.1.8v5.3h-1.5v-5.1c0-1.4-.6-2.3-1.8-2.3-1 0-1.7.8-1.9 1.6-.1.2-.1.5-.1.8v5.1h-1.5v-6.4z" class="st11"/>
  <path d="M547.4 405.5c0 2.1 1.4 3 2.9 3 1.1 0 1.8-.2 2.4-.4l.3 1.1c-.5.2-1.5.5-2.9.5-2.6 0-4.2-1.7-4.2-4.3 0-2.6 1.5-4.6 4-4.6 2.8 0 3.5 2.4 3.5 4 0 .3 0 .5-.1.7h-5.9zm4.5-1.1c0-1-.4-2.5-2.2-2.5-1.6 0-2.3 1.4-2.4 2.5h4.6z" class="st11"/>
  <path d="M120.4 76H116l-.4 2.9c.3 0 .5-.1.9-.1.9 0 1.8.2 2.5.6.9.5 1.6 1.5 1.6 2.9 0 2.2-1.8 3.9-4.3 3.9-1.3 0-2.3-.4-2.9-.7l.4-1.2c.5.3 1.4.6 2.5.6 1.4 0 2.7-1 2.7-2.5s-1-2.5-3.3-2.5c-.7 0-1.2.1-1.6.1l.7-5.5h5.5V76z" class="st11"/>
  <path d="M127.8 77.9c0 2.4-1.3 3.6-2.7 3.6-1.4 0-2.7-1.1-2.7-3.4s1.2-3.6 2.8-3.6c1.6 0 2.6 1.3 2.6 3.4zm-4.2.2c0 1.5.5 2.6 1.5 2.6s1.5-1.1 1.5-2.6c0-1.4-.4-2.6-1.5-2.6-1 0-1.5 1.1-1.5 2.6zm1.3 8.3l6.8-11.9h1l-6.8 11.9h-1zm10.4-3.7c0 2.4-1.3 3.6-2.7 3.6-1.4 0-2.7-1.1-2.7-3.5 0-2.3 1.2-3.6 2.8-3.6 1.5.1 2.6 1.3 2.6 3.5zm-4.2.1c0 1.5.5 2.6 1.5 2.6s1.5-1.1 1.5-2.6c0-1.4-.4-2.6-1.5-2.6-1 0-1.5 1.2-1.5 2.6z" class="st11"/>
  <path d="M140.9 74.5c.9-.2 2-.3 3.3-.3 2.2 0 3.8.5 4.8 1.5 1.1 1 1.7 2.3 1.7 4.3 0 1.9-.6 3.5-1.7 4.6-1.1 1.1-3 1.7-5.3 1.7-1.1 0-2-.1-2.8-.1V74.5zm1.5 10.5c.4.1 1 .1 1.6.1 3.3 0 5.1-1.8 5.1-5 0-2.8-1.6-4.6-4.8-4.6-.8 0-1.4.1-1.8.2V85z" class="st11"/>
  <path d="M155.3 86.2l-3.9-11.9h1.7l1.9 5.9c.5 1.6.9 3.1 1.3 4.4.3-1.4.8-2.9 1.4-4.4l2-5.9h1.6L157 86.2h-1.7z" class="st11"/>
  <path d="M162.5 74.5c.9-.2 2-.3 3.3-.3 2.2 0 3.8.5 4.8 1.5 1.1 1 1.7 2.3 1.7 4.3 0 1.9-.6 3.5-1.7 4.6-1.1 1.1-3 1.7-5.3 1.7-1.1 0-2-.1-2.8-.1V74.5zM164 85c.4.1 1 .1 1.6.1 3.3 0 5.1-1.8 5.1-5 0-2.8-1.6-4.6-4.8-4.6-.8 0-1.4.1-1.8.2V85z" class="st11"/>
  <path d="M185.6 81.9c0 3.2-2.2 4.5-4.3 4.5-2.3 0-4.1-1.7-4.1-4.4 0-2.8 1.9-4.5 4.2-4.5 2.6 0 4.2 1.8 4.2 4.4zm-6.7 0c0 1.9 1.1 3.3 2.6 3.3s2.6-1.4 2.6-3.3c0-1.4-.7-3.3-2.6-3.3-1.8.1-2.6 1.7-2.6 3.3z" class="st11"/>
  <path d="M187.8 86.2v-7.4h-1.2v-1.2h1.2v-.4c0-1.2.3-2.3 1-3 .6-.6 1.4-.8 2.1-.8.6 0 1 .1 1.3.2l-.2 1.2c-.2-.1-.5-.2-1-.2-1.3 0-1.7 1.1-1.7 2.5v.5h2.1v1.2h-2.1v7.4h-1.5z" class="st11"/>
  <path d="M114.1 94.8h1.6v5.3c.2-.4.6-.8 1.1-1.1.5-.3 1-.4 1.6-.4 1.1 0 3 .7 3 3.6v5.1h-1.6v-4.9c0-1.4-.5-2.5-2-2.5-1 0-1.8.7-2.1 1.5-.1.2-.1.5-.1.7v5.2H114V94.8z" class="st11"/>
  <path d="M125.6 96.4c0 .5-.4 1-1 1s-.9-.4-.9-1c0-.5.4-1 1-1 .5.1.9.5.9 1zm-1.7 11v-8.5h1.6v8.5h-1.6z" class="st11"/>
  <path d="M127.8 105.8c.5.3 1.3.6 2.1.6 1.1 0 1.6-.5 1.6-1.3 0-.7-.4-1.1-1.6-1.6-1.6-.6-2.3-1.4-2.3-2.4 0-1.4 1.1-2.5 2.9-2.5.9 0 1.6.2 2.1.5l-.4 1.1c-.3-.2-1-.5-1.7-.5-.9 0-1.4.5-1.4 1.2s.5 1 1.6 1.5c1.5.5 2.2 1.3 2.2 2.6 0 1.5-1.2 2.6-3.2 2.6-.9 0-1.8-.2-2.4-.6l.5-1.2z" class="st11"/>
  <path d="M138.9 107.4V100h-1.2v-1.2h1.2v-.4c0-1.2.3-2.3 1-3 .6-.6 1.4-.8 2.1-.8.6 0 1 .1 1.3.2l-.2 1.2c-.2-.1-.5-.2-1-.2-1.3 0-1.7 1.1-1.7 2.5v.5h2.1v1.2h-2.1v7.4h-1.5z" class="st11"/>
  <path d="M149.9 105.3c0 .7 0 1.5.1 2h-1.4l-.1-1.1h-.1c-.5.7-1.4 1.3-2.6 1.3-1.7 0-2.6-1.2-2.6-2.5 0-2.1 1.8-3.2 5.1-3.2v-.2c0-.7-.2-2-1.9-2-.8 0-1.6.2-2.2.6l-.4-1c.7-.4 1.7-.7 2.8-.7 2.6 0 3.2 1.8 3.2 3.5v3.3zm-1.5-2.3c-1.7 0-3.6.3-3.6 1.9 0 1 .7 1.5 1.4 1.5 1.1 0 1.9-.7 2.1-1.4.1-.2.1-.4.1-.5V103z" class="st11"/>
  <path d="M152.8 98.8l1.7 4.8c.3.8.5 1.5.7 2.2h.1c.2-.7.4-1.4.7-2.2l1.7-4.8h1.6l-3.4 8.5h-1.5l-3.2-8.5h1.6z" class="st11"/>
  <path d="M168.3 103c0 3.2-2.2 4.5-4.3 4.5-2.3 0-4.1-1.7-4.1-4.4 0-2.8 1.9-4.5 4.2-4.5 2.5.1 4.2 1.8 4.2 4.4zm-6.8.1c0 1.9 1.1 3.3 2.6 3.3s2.6-1.4 2.6-3.3c0-1.4-.7-3.3-2.6-3.3-1.8 0-2.6 1.7-2.6 3.3z" class="st11"/>
  <path d="M170.2 101.5c0-1 0-1.9-.1-2.7h1.4l.1 1.7h.1c.4-1.1 1.3-1.9 2.4-1.9h.4v1.5h-.5c-1.1 0-1.9.8-2.1 2 0 .2-.1.5-.1.7v4.6h-1.6v-5.9z" class="st11"/>
  <path d="M177.8 96.4c0 .5-.4 1-1 1s-.9-.4-.9-1c0-.5.4-1 1-1 .5.1.9.5.9 1zm-1.7 11v-8.5h1.6v8.5h-1.6z" class="st11"/>
  <path d="M182.1 96.8v2h2.2v1.2h-2.2v4.6c0 1.1.3 1.7 1.2 1.7.4 0 .7 0 .9-.1l.1 1.2c-.3.1-.8.2-1.4.2-.7 0-1.3-.2-1.7-.7-.4-.5-.6-1.2-.6-2.2V100h-1.3v-1.2h1.3v-1.6l1.5-.4z" class="st11"/>
  <path d="M186.8 103.4c0 2.1 1.4 3 2.9 3 1.1 0 1.8-.2 2.4-.4l.3 1.1c-.5.2-1.5.5-2.9.5-2.6 0-4.2-1.7-4.2-4.3 0-2.6 1.5-4.6 4-4.6 2.8 0 3.5 2.4 3.5 4 0 .3 0 .5-.1.7h-5.9zm4.5-1.1c0-1-.4-2.5-2.2-2.5-1.6 0-2.3 1.4-2.4 2.5h4.6z" class="st11"/>
  <path d="M120.1 126.5c0 .7 0 1.5.1 2h-1.4l-.1-1.1h-.1c-.5.7-1.4 1.3-2.6 1.3-1.7 0-2.6-1.2-2.6-2.5 0-2.1 1.8-3.2 5.1-3.2v-.2c0-.7-.2-2-1.9-2-.8 0-1.6.2-2.2.6l-.4-1c.7-.4 1.7-.7 2.8-.7 2.6 0 3.2 1.8 3.2 3.5v3.3zm-1.5-2.3c-1.7 0-3.6.3-3.6 1.9 0 1 .7 1.5 1.4 1.5 1.1 0 1.9-.7 2.1-1.4.1-.2.1-.4.1-.5v-1.5z" class="st11"/>
  <path d="M128.7 128.2c-.4.2-1.3.5-2.5.5-2.6 0-4.3-1.7-4.3-4.4 0-2.6 1.8-4.6 4.6-4.6.9 0 1.7.2 2.2.5l-.4 1.2c-.4-.2-1-.4-1.8-.4-2 0-3 1.5-3 3.2 0 2 1.3 3.2 3 3.2.9 0 1.5-.2 1.9-.4l.3 1.2z" class="st11"/>
  <path d="M132.6 118v2h2.2v1.2h-2.2v4.6c0 1.1.3 1.7 1.2 1.7.4 0 .7 0 .9-.1l.1 1.2c-.3.1-.8.2-1.4.2-.7 0-1.3-.2-1.7-.7-.4-.5-.6-1.2-.6-2.2v-4.7h-1.3V120h1.3v-1.6l1.5-.4z" class="st11"/>
  <path d="M138.3 117.6c0 .5-.4 1-1 1s-.9-.4-.9-1c0-.5.4-1 1-1 .5 0 .9.5.9 1zm-1.7 10.9V120h1.6v8.5h-1.6z" class="st11"/>
  <path d="M148.4 124.2c0 3.2-2.2 4.5-4.3 4.5-2.3 0-4.1-1.7-4.1-4.4 0-2.8 1.9-4.5 4.2-4.5 2.6 0 4.2 1.8 4.2 4.4zm-6.7.1c0 1.9 1.1 3.3 2.6 3.3s2.6-1.4 2.6-3.3c0-1.4-.7-3.3-2.6-3.3-1.9 0-2.6 1.7-2.6 3.3z" class="st11"/>
  <path d="M150.4 122.3c0-.9 0-1.6-.1-2.3h1.4l.1 1.4c.4-.8 1.4-1.6 2.8-1.6 1.2 0 3 .7 3 3.6v5.1H156v-4.9c0-1.4-.5-2.5-2-2.5-1 0-1.8.7-2.1 1.6-.1.2-.1.5-.1.7v5.1h-1.6v-6.2z" class="st11"/>
  <path d="M164.1 128.5v-7.4h-1.2V120h1.2v-.5c0-2.2 1.3-3.7 3.7-3.7.8 0 1.7.2 2.2.6l-.4 1.2c-.4-.3-1-.5-1.8-.5-1.6 0-2.1 1.1-2.1 2.5v.4h5v8.5H169v-7.4h-3.4v7.4h-1.5z" class="st11"/>
  <path d="M173.1 116h1.6v12.5h-1.6V116z" class="st11"/>
  <path d="M177.3 122.3c0-.9 0-1.6-.1-2.3h1.4l.1 1.4h.1c.5-.8 1.3-1.6 2.7-1.6 1.1 0 2 .7 2.4 1.7.3-.5.6-.8 1-1.1.5-.4 1.1-.6 1.9-.6 1.1 0 2.8.7 2.8 3.7v5H188v-4.8c0-1.7-.6-2.6-1.9-2.6-.9 0-1.6.7-1.9 1.4-.1.2-.1.5-.1.8v5.3h-1.5v-5.1c0-1.4-.6-2.3-1.8-2.3-1 0-1.7.8-1.9 1.6-.1.2-.1.5-.1.8v5.1h-1.5v-6.4z" class="st11"/>
  <path d="M191.8 127c.5.3 1.3.6 2.1.6 1.1 0 1.6-.5 1.6-1.3 0-.7-.4-1.1-1.6-1.6-1.6-.6-2.3-1.4-2.3-2.4 0-1.4 1.1-2.5 2.9-2.5.9 0 1.6.2 2.1.5l-.4 1.1c-.3-.2-1-.5-1.7-.5-.9 0-1.4.5-1.4 1.2s.5 1 1.6 1.5c1.5.5 2.2 1.3 2.2 2.6 0 1.5-1.2 2.6-3.2 2.6-.9 0-1.8-.2-2.4-.6l.5-1.2z" class="st11"/>
  <path d="M226.7 514.6c-.3 0-.7 0-1.2.1-2.5.4-3.7 2.2-4 4.1.5-.7 1.5-1.3 2.8-1.3 2 0 3.5 1.5 3.5 3.7 0 2.1-1.4 4.1-3.8 4.1s-4-1.9-4-4.9c0-2.3.8-4 1.9-5.2 1-.9 2.2-1.5 3.7-1.7.5-.1.8-.1 1.1-.1v1.2zm-.4 6.6c0-1.6-.9-2.6-2.4-2.6-.9 0-1.8.6-2.2 1.4-.1.2-.2.4-.2.7 0 1.9.9 3.3 2.5 3.3 1.4 0 2.3-1.1 2.3-2.8z" class="st11"/>
  <path d="M234.4 516.8c0 2.4-1.3 3.6-2.7 3.6-1.4 0-2.7-1.1-2.7-3.4s1.2-3.6 2.8-3.6c1.5-.1 2.6 1.2 2.6 3.4zm-4.2.1c0 1.5.5 2.6 1.5 2.6s1.5-1.1 1.5-2.6c0-1.4-.4-2.6-1.5-2.6-1 0-1.5 1.1-1.5 2.6zm1.3 8.3l6.8-11.9h1l-6.8 11.9h-1zm10.4-3.7c0 2.4-1.3 3.6-2.7 3.6-1.4 0-2.7-1.1-2.7-3.5 0-2.3 1.2-3.6 2.8-3.6 1.5.1 2.6 1.3 2.6 3.5zm-4.2.1c0 1.5.5 2.6 1.5 2.6s1.5-1.1 1.5-2.6c0-1.4-.4-2.6-1.5-2.6-1 0-1.5 1.2-1.5 2.6z" class="st11"/>
  <path d="M249.4 521.3l-1.2 3.7h-1.6l4.1-11.9h1.8l4.1 11.9H255l-1.3-3.7h-4.3zm3.9-1.2l-1.2-3.4c-.3-.8-.4-1.5-.6-2.2-.2.7-.4 1.4-.6 2.2l-1.2 3.4h3.6z" class="st11"/>
  <path d="M258.2 512.5h1.6V525h-1.6v-12.5z" class="st11"/>
  <path d="M262.3 512.5h1.6V525h-1.6v-12.5z" class="st11"/>
  <path d="M270.8 516.5l1.9 5c.2.6.4 1.2.6 1.7.2-.5.3-1.2.5-1.8l1.7-5h1.6l-2.3 6.1c-1.1 2.9-1.9 4.4-2.9 5.3-.8.7-1.5.9-1.9 1l-.4-1.3c.4-.1.9-.4 1.4-.8.4-.3.9-.9 1.3-1.7.1-.2.1-.3.1-.4s0-.2-.1-.4l-3.1-7.9h1.6z" class="st11"/>
  <path d="M286.1 520.7c0 3.2-2.2 4.5-4.3 4.5-2.3 0-4.1-1.7-4.1-4.4 0-2.8 1.9-4.5 4.2-4.5 2.5 0 4.2 1.8 4.2 4.4zm-6.8.1c0 1.9 1.1 3.3 2.6 3.3s2.6-1.4 2.6-3.3c0-1.4-.7-3.3-2.6-3.3-1.8 0-2.6 1.6-2.6 3.3z" class="st11"/>
  <path d="M295.2 522.7c0 .9 0 1.7.1 2.3h-1.4l-.1-1.4c-.4.7-1.3 1.6-2.8 1.6-1.3 0-2.9-.8-2.9-3.7v-5h1.6v4.7c0 1.6.5 2.7 1.9 2.7 1 0 1.8-.7 2-1.4.1-.2.1-.5.1-.8v-5.2h1.6v6.2z" class="st11"/>
  <path d="M307.6 524.7c-.4.2-1.3.5-2.5.5-2.6 0-4.3-1.7-4.3-4.4 0-2.6 1.8-4.6 4.6-4.6.9 0 1.7.2 2.2.5l-.4 1.2c-.4-.2-1-.4-1.8-.4-2 0-3 1.5-3 3.2 0 2 1.3 3.2 3 3.2.9 0 1.5-.2 1.9-.4l.3 1.2z" class="st11"/>
  <path d="M315.4 523c0 .7 0 1.5.1 2h-1.4l-.1-1.1c-.5.7-1.4 1.3-2.6 1.3-1.7 0-2.6-1.2-2.6-2.5 0-2.1 1.8-3.2 5.1-3.2v-.2c0-.7-.2-2-1.9-2-.8 0-1.6.2-2.2.6l-.4-1c.7-.4 1.7-.7 2.8-.7 2.6 0 3.2 1.8 3.2 3.5v3.3zm-1.5-2.4c-1.7 0-3.6.3-3.6 1.9 0 1 .7 1.5 1.4 1.5 1.1 0 1.9-.7 2.1-1.4.1-.2.1-.4.1-.5v-1.5z" class="st11"/>
  <path d="M317.9 518.8c0-.9 0-1.6-.1-2.3h1.4l.1 1.4c.4-.8 1.4-1.6 2.8-1.6 1.2 0 3 .7 3 3.6v5.1h-1.6v-4.9c0-1.4-.5-2.5-2-2.5-1 0-1.8.7-2.1 1.6-.1.2-.1.5-.1.7v5.1h-1.6v-6.2z" class="st11"/>
  <path d="M332.3 521c0 2.1 1.4 3 2.9 3 1.1 0 1.8-.2 2.4-.4l.3 1.1c-.5.2-1.5.5-2.9.5-2.6 0-4.2-1.7-4.2-4.3s1.5-4.6 4-4.6c2.8 0 3.5 2.4 3.5 4 0 .3 0 .5-.1.7h-5.9zm4.6-1.1c0-1-.4-2.5-2.2-2.5-1.6 0-2.3 1.4-2.4 2.5h4.6z" class="st11"/>
  <path d="M346.3 523c0 .7 0 1.5.1 2H345l-.1-1.1h-.1c-.5.7-1.4 1.3-2.6 1.3-1.7 0-2.6-1.2-2.6-2.5 0-2.1 1.8-3.2 5.1-3.2v-.2c0-.7-.2-2-1.9-2-.8 0-1.6.2-2.2.6l-.4-1c.7-.4 1.7-.7 2.8-.7 2.6 0 3.2 1.8 3.2 3.5v3.3zm-1.5-2.4c-1.7 0-3.6.3-3.6 1.9 0 1 .7 1.5 1.4 1.5 1.1 0 1.9-.7 2.1-1.4.1-.2.1-.4.1-.5v-1.5z" class="st11"/>
  <path d="M350.6 514.4v2h2.2v1.2h-2.2v4.6c0 1.1.3 1.7 1.2 1.7.4 0 .7 0 .9-.1l.1 1.2c-.3.1-.8.2-1.4.2-.7 0-1.3-.2-1.7-.7-.4-.5-.6-1.2-.6-2.2v-4.7h-1.3v-1.2h1.3v-1.6l1.5-.4z" class="st11"/>
  <path d="M235.4 533.6h1.5v5.4c.5-1 1.5-1.6 2.9-1.6 2.1 0 3.6 1.8 3.6 4.3 0 3.1-1.9 4.6-3.8 4.6-1.2 0-2.2-.5-2.9-1.6l-.1 1.4h-1.3c0-.6.1-1.4.1-2.2v-10.3zm1.5 9.2c0 .2 0 .4.1.6.3 1.1 1.2 1.8 2.3 1.8 1.6 0 2.6-1.3 2.6-3.3 0-1.7-.9-3.2-2.6-3.2-1 0-2 .7-2.3 1.9-.1.2-.1.4-.1.7v1.5z" class="st11"/>
  <path d="M252.5 543.8c0 .9 0 1.7.1 2.3h-1.4l-.1-1.4c-.4.7-1.3 1.6-2.8 1.6-1.3 0-2.9-.8-2.9-3.7v-5h1.6v4.7c0 1.6.5 2.7 1.9 2.7 1 0 1.8-.7 2-1.4.1-.2.1-.5.1-.8v-5.2h1.6v6.2z" class="st11"/>
  <path d="M260.4 546.2v-7.4h-3.6v7.4h-1.5v-7.4h-1.2v-1.2h1.2v-.3c0-1.2.3-2.2 1-2.9.5-.5 1.2-.8 2.2-.8.5 0 1 .2 1.2.3l-.3 1.2c-.2-.1-.6-.2-.9-.2-1.2 0-1.6 1-1.6 2.4v.4h3.6v-.4c0-1.2.3-2.3 1-3 .6-.6 1.4-.8 2.1-.8.6 0 1 .1 1.3.2l-.2 1.2c-.2-.1-.5-.2-1-.2-1.3 0-1.6 1.1-1.6 2.5v.5h2v1.2h-2v7.4h-1.7z" class="st11"/>
  <path d="M266 542.2c0 2.1 1.4 3 2.9 3 1.1 0 1.8-.2 2.4-.4l.3 1.1c-.5.2-1.5.5-2.9.5-2.6 0-4.2-1.7-4.2-4.3s1.5-4.6 4-4.6c2.8 0 3.5 2.4 3.5 4 0 .3 0 .5-.1.7H266zm4.6-1.1c0-1-.4-2.5-2.2-2.5-1.6 0-2.3 1.4-2.4 2.5h4.6z" class="st11"/>
  <path d="M275.9 535.6v2h2.2v1.2h-2.2v4.6c0 1.1.3 1.7 1.2 1.7.4 0 .7 0 .9-.1l.1 1.2c-.3.1-.8.2-1.4.2-.7 0-1.3-.2-1.7-.7-.4-.5-.6-1.2-.6-2.2v-4.7H273v-1.2h1.3V536l1.6-.4z" class="st11"/>
  <path d="M284.2 537.6l1.7 4.8c.3.8.5 1.5.7 2.2h.1c.2-.7.4-1.4.7-2.2l1.7-4.8h1.6l-3.4 8.5h-1.5l-3.2-8.5h1.6z" class="st11"/>
  <path d="M299.6 541.8c0 3.2-2.2 4.5-4.3 4.5-2.3 0-4.1-1.7-4.1-4.4 0-2.8 1.9-4.5 4.2-4.5 2.6.1 4.2 1.8 4.2 4.4zm-6.7.1c0 1.9 1.1 3.3 2.6 3.3s2.6-1.4 2.6-3.3c0-1.4-.7-3.3-2.6-3.3-1.8 0-2.6 1.7-2.6 3.3z" class="st11"/>
  <path d="M308.7 543.8c0 .9 0 1.7.1 2.3h-1.4l-.1-1.4c-.4.7-1.3 1.6-2.8 1.6-1.3 0-2.9-.8-2.9-3.7v-5h1.6v4.7c0 1.6.5 2.7 1.9 2.7 1 0 1.8-.7 2-1.4.1-.2.1-.5.1-.8v-5.2h1.6v6.2z" class="st11"/>
  <path d="M317.4 545.9c-.4.2-1.3.5-2.5.5-2.6 0-4.3-1.7-4.3-4.4 0-2.6 1.8-4.6 4.6-4.6.9 0 1.7.2 2.2.5l-.4 1.2c-.4-.2-1-.4-1.8-.4-2 0-3 1.5-3 3.2 0 2 1.3 3.2 3 3.2.9 0 1.5-.2 1.9-.4l.3 1.2z" class="st11"/>
  <path d="M319.2 533.6h1.6v5.3c.2-.4.6-.8 1.1-1.1.5-.3 1-.4 1.6-.4 1.1 0 3 .7 3 3.6v5.1h-1.6v-4.9c0-1.4-.5-2.5-2-2.5-1 0-1.8.7-2.1 1.5-.1.2-.1.5-.1.7v5.2h-1.6v-12.5z" class="st11"/>
  <path d="M329.9 542.2c0 2.1 1.4 3 2.9 3 1.1 0 1.8-.2 2.4-.4l.3 1.1c-.5.2-1.5.5-2.9.5-2.6 0-4.2-1.7-4.2-4.3s1.5-4.6 4-4.6c2.8 0 3.5 2.4 3.5 4 0 .3 0 .5-.1.7h-5.9zm4.5-1.1c0-1-.4-2.5-2.2-2.5-1.6 0-2.3 1.4-2.4 2.5h4.6z" class="st11"/>
  <path d="M337.8 540.3c0-1 0-1.9-.1-2.7h1.4l.1 1.7h.1c.4-1.1 1.3-1.9 2.4-1.9h.4v1.5h-.5c-1.1 0-1.9.8-2.1 2 0 .2-.1.5-.1.7v4.6h-1.6v-5.9z" class="st11"/>
</svg>
