<svg xmlns="http://www.w3.org/2000/svg" id="Layer_1" viewBox="0 0 125 75">
  <style>
    .st0{fill:#EDB283;} .st1{fill:#603913;} .st2{fill:#FFFFFF;} .st3{fill:none;stroke:#000000;stroke-width:0.85;stroke-linecap:round;stroke-miterlimit:10;}
  </style>
  <circle cx="48.5" cy="41" r="20.4" class="st0"/>
  <circle cx="89.2" cy="41" r="20.4" class="st0"/>
  <path d="M72.8 23.2c-1 7.5 14.2 7.2 14.2 7.2s-3.3 9 8.3 10.6c-3.2 3.7 1 18.5 6.8 15.8 21.5-20.4 1-36.2-5.3-36.2 0-4.8-7-4.3-8 .2-1.4-2.5-14.4-5-15.6 2.4z" class="st1"/>
  <path d="M42 36.4c5.7 1 21.4-8.8 19-11.5-1-1.6-2.8-2.5-4.3-3-2.5-1-5.3-2-8-2-3.5-.5-6.8.2-9.8 2-4 2-7 6-9 10-1 1-1.8 2.2-2 4l-.3 4.4c0 2.6.4 5.2 1.3 7.6.6 1.4 1 2.7 2 4 .4.6 1 1.4 1.5 1.6C36 55.3 43 44.2 42 36.4z" class="st1"/>
  <circle cx="24.6" cy="24.6" r="11.6" class="st1"/>
  <path d="M31.4 31.5l-2.8-1.3c-1 0-1.6 1.3-1 2l2.8 4.8 15-12-14-8.6c-.7-.5-1.6.3-1.3 1l4.5 5.4c.3.7-.3 1.5-1 1.4l-5-3C27 21.2 26 22.8 27 24l4.6 7.3c0 .3 0 .5-.2.5z" class="st2"/>
  <path d="M55.8 40.7c5.4 2.4 8.7-2.2 8.7-2.2" class="st3"/>
  <path d="M73 38c4 4.5 9 1.7 9 1.7" class="st3"/>
</svg>
