<svg xmlns="http://www.w3.org/2000/svg" id="Layer_1" viewBox="0 0 120 110">
  <style>
    .st0{fill:#BF9E2F;} .st1{fill:#BE1E2D;} .st2{fill:none;stroke:#BF9E2F;stroke-miterlimit:10;} .st3{fill:none;stroke:#000000;stroke-miterlimit:10;} .st4{stroke:#000000;stroke-miterlimit:10;}
  </style>
  <path d="M13 39.8c17 2 81.8-7 95.2-12-17.6-2-79.4 5-95 12z" class="st0"/>
  <path d="M58.7 17.6c-5.7-9.6-16 2-8.7 8 4.5 3.6 8.2 6.7 8.7 8 .6-1.3 7.2-7 9-8.3 7-6.7-3.8-16.5-9-7.7z" class="st1"/>
  <circle cx="11.6" cy="39.7" r="2.4" class="st0"/>
  <circle cx="108.1" cy="27.6" r="2.4" class="st0"/>
  <path d="M55.7 36.7v41.6c0 1.4.2 2.7-.4 4L52.7 88l-18.2.4V96H86l-.3-8H66.4c-.8-1-1.6-2.3-2.4-3.6-.6-1-1.6-2-2-3V64l-.2-18V36l-6 .7z" class="st0"/>
  <path d="M23 66.8l19-.5S38.4 72 32.5 72 23 66.7 23 66.7z" class="st0"/>
  <path d="M32 38.8l-8.4 28" class="st2"/>
  <path d="M34 38l7.6 28.4" class="st2"/>
  <path d="M75 59.2l19-.5s-3.6 5.6-9.5 5.6c-5.8 0-9.5-5-9.5-5z" class="st0"/>
  <path d="M84 31.3l-8.5 28" class="st2"/>
  <path d="M86 30.5L93.4 59" class="st2"/>
  <circle cx="33" cy="49.9" r="2.2" class="st3"/>
  <path d="M33 52.2v10.6" class="st3"/>
  <path d="M33 62.8l-3.6 3.6" class="st3"/>
  <path d="M33 62.8l3.4 3.4" class="st3"/>
  <path d="M29.4 55.2H37" class="st3"/>
  <circle cx="84.5" cy="41.7" r="2.2" class="st3"/>
  <path d="M84.5 44v10.5" class="st3"/>
  <path d="M82.7 54.5V59" class="st3"/>
  <path d="M86 54.5V59" class="st3"/>
  <path d="M81 47h7.6" class="st3"/>
  <path d="M80.2 54.5l4.3-4.2 4.3 4.2z" class="st4"/>
</svg>
