<svg xmlns="http://www.w3.org/2000/svg" id="Layer_1" xmlns:xlink="http://www.w3.org/1999/xlink" viewBox="0 0 90 85">
  <style>
    .st0{clip-path:url(#SVGID_2_);fill:#213C75;} .st1{clip-path:url(#SVGID_2_);fill:#FFFFFF;} .st2{clip-path:url(#SVGID_2_);fill:#E03A3E;} .st3{clip-path:url(#SVGID_2_);fill:#DD3E44;}
  </style>
  <defs>
    <path id="SVGID_1_" d="M45.4 24.5C27-6.3-6 30.7 17.4 49.7c14.4 11.8 26.3 21.8 28 26.4 2-4 23.2-22 29-27 22-21-12.4-52-29-24z"/>
  </defs>
  <clipPath id="SVGID_2_">
    <use xlink:href="#SVGID_1_" overflow="visible"/>
  </clipPath>
  <path d="M-8 11h45.6v24.7H-8z" class="st0"/>
  <path d="M-7.6 52H38v24.7H-7.7z" class="st0"/>
  <path d="M54.3 53h45.5v24.7H54.3z" class="st0"/>
  <path d="M54.3 11h45.5v24.7H54.3z" class="st0"/>
  <path d="M36.5 10h17.8v67H36.5z" class="st1"/>
  <path d="M7.4 35.3h76.2V53H7.4z" class="st1"/>
  <path d="M36.7 45.3L47.4 31l42.3 32L79 77z" class="st1"/>
  <path d="M32.2 43.7L42.7 58 0 89.3-10.5 75z" class="st1"/>
  <path d="M-12.6 14.4l8-12 44 29-7.8 12z" class="st1"/>
  <path d="M93 4l8.2 11.8-43.6 30-8.2-12z" class="st1"/>
  <path d="M40.5 10h10.2v67H40.5z" class="st2"/>
  <path d="M8.3 39h74.3v10.3H8.3z" class="st2"/>
  <path d="M-7.4 14.2l31.8 21.4h8L-3.3 11z" class="st3"/>
  <path d="M95.2 11L62.4 35.7h-8.2L87.8 11z" class="st3"/>
  <path d="M-.8 74.5L31.7 53h5v1l-30 20.7z" class="st3"/>
  <path d="M59.5 53L93 74.6h5.3V73L66.8 53z" class="st3"/>
</svg>
