<svg xmlns="http://www.w3.org/2000/svg" id="Layer_1" viewBox="0 0 170 160">
  <style>
    .st0{fill:#D42380;} .st1{fill:#FFFFFF;}
  </style>
  <path d="M85.6 43.1C49.5-17.7-15.6 55.4 30.3 92.9c28.5 23.3 51.9 43.1 55.3 52.2 3.8-9.1 45.8-44.5 57-53.6 43.8-42-24.1-104-57-48.4z" class="st0"/>
  <path d="M33.2 48.7v5.6c0 2.1.9 3 2.2 3 1.4 0 2.3-.9 2.3-3v-5.6h1.2v5.5c0 2.9-1.5 4.1-3.6 4.1-1.9 0-3.4-1.1-3.4-4v-5.6h1.3z" class="st1"/>
  <path d="M41.1 48.7h1.2v4.6c.3-.4.5-.7.7-1l2.9-3.5h1.5l-3.4 4 3.7 5.4h-1.4l-3.1-4.6-.9 1v3.6h-1.2v-9.5z" class="st1"/>
  <path d="M53.6 59.4V58c-.8 0-1.6-.3-2.1-.6l.3-.9c.5.3 1.2.6 2 .6 1 0 1.7-.6 1.7-1.4 0-.8-.5-1.2-1.6-1.7-1.4-.6-2.3-1.2-2.3-2.4s.8-2 2.1-2.3v-1.4h.9v1.4c.8 0 1.4.3 1.8.5l-.4.8c-.3-.2-.9-.5-1.8-.5-1.1 0-1.5.6-1.5 1.2 0 .7.5 1.1 1.7 1.6 1.4.6 2.2 1.3 2.2 2.5 0 1.1-.8 2.2-2.2 2.4v1.5h-.8z" class="st1"/>
  <path d="M61 50.2l-1.6.9-.2-.9 2-1.1h1v9.1H61v-8z" class="st1"/>
  <path d="M65.6 57.4c0-.5.3-.9.8-.9s.8.4.8.9-.3.9-.9.9c-.3 0-.7-.4-.7-.9z" class="st1"/>
  <path d="M73.6 49.9c-.3 0-.6 0-.9.1-1.9.3-3 1.7-3.2 3.2.4-.6 1.2-1.1 2.2-1.1 1.6 0 2.7 1.2 2.7 2.9s-1.1 3.2-3 3.2-3.2-1.5-3.2-3.9c0-1.8.6-3.2 1.5-4.1.8-.7 1.8-1.2 2.9-1.3.4-.1.7-.1.9-.1v1.1zm-.3 5.3c0-1.3-.7-2.1-1.9-2.1-.7 0-1.4.4-1.8 1.1-.1.1-.1.3-.1.5 0 1.5.7 2.6 2 2.6 1.1.1 1.8-.8 1.8-2.1z" class="st1"/>
  <path d="M79 48.2h1.2v4.3c.4-.8 1.2-1.2 2.3-1.2 1.7 0 2.9 1.4 2.9 3.4 0 2.4-1.5 3.6-3.1 3.6-1 0-1.8-.4-2.3-1.3v1.2h-1.1c0-.5.1-1.1.1-1.8v-8.2zm1.2 7.2c0 .2 0 .3.1.4.2.9 1 1.4 1.8 1.4 1.3 0 2.1-1.1 2.1-2.6 0-1.4-.7-2.5-2-2.5-.8 0-1.6.6-1.9 1.5 0 .2-.1.3-.1.5v1.3z" class="st1"/>
  <path d="M88.3 49.5c0 .4-.3.8-.8.8-.4 0-.7-.3-.7-.8s.3-.8.8-.8c.4 0 .7.3.7.8zm-1.4 8.7v-6.8h1.2v6.8h-1.2z" class="st1"/>
  <path d="M90.2 48.2h1.2v9.9h-1.2v-9.9z" class="st1"/>
  <path d="M93.5 48.2h1.2v9.9h-1.2v-9.9z" class="st1"/>
  <path d="M98.2 49.5c0 .4-.3.8-.8.8-.4 0-.7-.3-.7-.8s.3-.8.8-.8c.4 0 .7.3.7.8zm-1.4 8.7v-6.8H98v6.8h-1.2z" class="st1"/>
  <path d="M106.2 54.7c0 2.5-1.8 3.6-3.4 3.6-1.8 0-3.2-1.3-3.2-3.5 0-2.3 1.5-3.6 3.4-3.6s3.2 1.5 3.2 3.5zm-5.3.1c0 1.5.8 2.6 2 2.6s2.1-1.1 2.1-2.6c0-1.1-.6-2.6-2-2.6-1.5 0-2.1 1.3-2.1 2.6z" class="st1"/>
  <path d="M107.8 53.2c0-.7 0-1.3-.1-1.8h1.1l.1 1.1c.3-.6 1.1-1.3 2.2-1.3.9 0 2.4.6 2.4 2.9v4h-1.2v-3.9c0-1.1-.4-2-1.6-2-.8 0-1.4.6-1.7 1.3-.1.2-.1.4-.1.6v4.1h-1.2v-5z" class="st1"/>
  <path d="M119.8 48.7v5.6c0 2.1.9 3 2.2 3 1.4 0 2.3-.9 2.3-3v-5.6h1.2v5.5c0 2.9-1.5 4.1-3.6 4.1-1.9 0-3.4-1.1-3.4-4v-5.6h1.3z" class="st1"/>
  <path d="M127.5 56.7c.5.3 1.3.6 2.2.6 1.2 0 2-.7 2-1.6 0-.9-.5-1.4-1.8-1.9-1.5-.6-2.5-1.4-2.5-2.7 0-1.5 1.2-2.6 3.1-2.6 1 0 1.7.2 2.1.5l-.3 1c-.3-.2-.9-.4-1.8-.4-1.3 0-1.8.8-1.8 1.4 0 .9.6 1.3 1.9 1.8 1.6.6 2.4 1.4 2.4 2.8 0 1.5-1.1 2.7-3.3 2.7-.9 0-1.9-.3-2.4-.6l.2-1z" class="st1"/>
  <path d="M134.5 48.9c.7-.1 1.6-.2 2.6-.2 1.8 0 3 .4 3.8 1.2.9.8 1.3 1.9 1.3 3.4s-.5 2.8-1.4 3.7c-.9.9-2.4 1.4-4.2 1.4-.9 0-1.6 0-2.2-.1v-9.4zm1.3 8.3c.3 0 .8.1 1.2.1 2.6 0 4-1.5 4-4 0-2.2-1.2-3.6-3.8-3.6-.6 0-1.1.1-1.4.1v7.4z" class="st1"/>
  <path d="M29.2 66.6h-2.9v-1h7v1h-2.9V75h-1.2v-8.4z" class="st1"/>
  <path d="M34.3 65h1.2v4.2c.2-.3.5-.7.9-.9.4-.2.8-.3 1.3-.3.9 0 2.4.6 2.4 2.9v4h-1.2V71c0-1.1-.4-2-1.6-2-.8 0-1.4.6-1.7 1.2-.1.2-.1.4-.1.6V75h-1.2V65z" class="st1"/>
  <path d="M42.7 71.8c0 1.7 1.1 2.4 2.3 2.4.9 0 1.4-.2 1.9-.4l.2.9c-.4.2-1.2.4-2.3.4-2.1 0-3.3-1.4-3.3-3.4s1.2-3.6 3.2-3.6c2.2 0 2.8 1.9 2.8 3.2v.6h-4.8zm3.6-.9c0-.8-.3-2-1.7-2-1.3 0-1.8 1.1-1.9 2h3.6z" class="st1"/>
  <path d="M58.1 71.5c0 2.5-1.8 3.6-3.4 3.6-1.8 0-3.2-1.3-3.2-3.5 0-2.3 1.5-3.6 3.4-3.6s3.2 1.5 3.2 3.5zm-5.3.1c0 1.5.8 2.6 2 2.6s2.1-1.1 2.1-2.6c0-1.1-.6-2.6-2-2.6-1.5 0-2.1 1.3-2.1 2.6z" class="st1"/>
  <path d="M60.1 68.2l1.3 3.8c.2.6.4 1.2.5 1.8.2-.6.3-1.1.6-1.8l1.3-3.8h1.3L62.5 75h-1.2l-2.6-6.8h1.4z" class="st1"/>
  <path d="M66.9 71.8c0 1.7 1.1 2.4 2.3 2.4.9 0 1.4-.2 1.9-.4l.2.9c-.4.2-1.2.4-2.3.4-2.1 0-3.3-1.4-3.3-3.4s1.2-3.6 3.2-3.6c2.2 0 2.8 1.9 2.8 3.2v.6h-4.8zm3.6-.9c0-.8-.3-2-1.7-2-1.3 0-1.8 1.1-1.9 2h3.6z" class="st1"/>
  <path d="M73.2 70.3c0-.8 0-1.5-.1-2.1h1.1l.1 1.3c.3-.9 1.1-1.5 1.9-1.5h.3v1.2h-.4c-.9 0-1.5.6-1.7 1.6V75h-1.2v-4.7z" class="st1"/>
  <path d="M82.5 73.3c0 .6 0 1.2.1 1.6h-1.1l-.1-.9c-.4.5-1.1 1-2.1 1-1.4 0-2.1-1-2.1-1.9 0-1.6 1.5-2.5 4.1-2.5v-.1c0-.5-.2-1.6-1.5-1.6-.6 0-1.3.2-1.8.5l-.3-.8c.6-.4 1.4-.6 2.2-.6 2.1 0 2.6 1.4 2.6 2.8v2.5zm-1.2-1.8c-1.3 0-2.9.2-2.9 1.5 0 .8.5 1.2 1.1 1.2.9 0 1.5-.6 1.7-1.1 0-.1.1-.3.1-.4v-1.2z" class="st1"/>
  <path d="M84.5 65h1.2v10h-1.2V65z" class="st1"/>
  <path d="M87.8 65H89v10h-1.2V65z" class="st1"/>
  <path d="M94.7 71.8c0 1.7 1.1 2.4 2.3 2.4.9 0 1.4-.2 1.9-.4l.2.9c-.4.2-1.2.4-2.3.4-2.1 0-3.3-1.4-3.3-3.4s1.2-3.6 3.2-3.6c2.2 0 2.8 1.9 2.8 3.2v.6h-4.8zm3.6-.9c0-.8-.3-2-1.7-2-1.3 0-1.8 1.1-1.9 2h3.6z" class="st1"/>
  <path d="M101.6 68.2l1 1.5c.3.4.5.7.7 1.1.2-.4.4-.7.7-1.1l.9-1.4h1.3l-2.3 3.3 2.4 3.5h-1.4l-1-1.5c-.3-.4-.5-.8-.7-1.2-.2.4-.4.8-.7 1.2l-1 1.5h-1.4l2.4-3.5-2.3-3.3h1.4z" class="st1"/>
  <path d="M107.5 70.4c0-.9 0-1.6-.1-2.2h1.1l.1 1.2c.5-.8 1.3-1.3 2.4-1.3 1.7 0 2.9 1.4 2.9 3.4 0 2.4-1.5 3.6-3.1 3.6-.9 0-1.7-.4-2.1-1.1v3.7h-1.2v-7.3zm1.2 1.8c0 .2 0 .4.1.5.2.9 1 1.4 1.8 1.4 1.3 0 2.1-1.1 2.1-2.6 0-1.3-.7-2.5-2-2.5-.8 0-1.6.6-1.9 1.5 0 .2-.1.3-.1.5v1.2z" class="st1"/>
  <path d="M116.1 71.8c0 1.7 1.1 2.4 2.3 2.4.9 0 1.4-.2 1.9-.4l.2.9c-.4.2-1.2.4-2.3.4-2.1 0-3.3-1.4-3.3-3.4s1.2-3.6 3.2-3.6c2.2 0 2.8 1.9 2.8 3.2v.6h-4.8zm3.7-.9c0-.8-.3-2-1.7-2-1.3 0-1.8 1.1-1.9 2h3.6z" class="st1"/>
  <path d="M127.3 74.7c-.3.2-1 .4-1.9.4-2 0-3.4-1.4-3.4-3.5s1.4-3.6 3.6-3.6c.7 0 1.4.2 1.7.4l-.3.9c-.3-.2-.8-.3-1.4-.3-1.6 0-2.4 1.2-2.4 2.6 0 1.6 1 2.5 2.4 2.5.7 0 1.2-.2 1.5-.3l.2.9z" class="st1"/>
  <path d="M130.4 66.6v1.6h1.8v.9h-1.8v3.7c0 .8.2 1.3.9 1.3.3 0 .5 0 .7-.1l.1.9c-.2.1-.6.2-1.1.2-.6 0-1-.2-1.3-.5-.3-.4-.5-1-.5-1.8v-3.7h-1.1v-.9h1.1v-1.3l1.2-.3z" class="st1"/>
  <path d="M134.2 71.8c0 1.7 1.1 2.4 2.3 2.4.9 0 1.4-.2 1.9-.4l.2.9c-.4.2-1.2.4-2.3.4-2.1 0-3.3-1.4-3.3-3.4s1.2-3.6 3.2-3.6c2.2 0 2.8 1.9 2.8 3.2v.6h-4.8zm3.6-.9c0-.8-.3-2-1.7-2-1.3 0-1.8 1.1-1.9 2h3.6z" class="st1"/>
  <path d="M146.3 65v8.2c0 .6 0 1.3.1 1.8h-1.1l-.1-1.2c-.4.8-1.2 1.3-2.3 1.3-1.6 0-2.9-1.4-2.9-3.4 0-2.3 1.4-3.6 3-3.6 1 0 1.7.5 2 1v-4h1.3zm-1.2 5.9c0-.2 0-.4-.1-.5-.2-.8-.9-1.4-1.8-1.4-1.3 0-2 1.1-2 2.6 0 1.4.7 2.5 2 2.5.8 0 1.6-.6 1.8-1.5 0-.2.1-.3.1-.5v-1.2z" class="st1"/>
  <path d="M45.4 90.5c.4.2 1 .5 1.6.5.9 0 1.3-.4 1.3-1s-.3-.9-1.2-1.2c-1.2-.4-1.8-1.1-1.8-1.9 0-1.1.9-2 2.3-2 .7 0 1.3.2 1.7.4l-.3.9c-.3-.2-.8-.4-1.4-.4-.7 0-1.1.4-1.1.9 0 .6.4.8 1.3 1.2 1.2.4 1.8 1 1.8 2 0 1.2-.9 2-2.5 2-.7 0-1.4-.2-1.9-.5l.2-.9z" class="st1"/>
  <path d="M51.1 87.2c0-.9 0-1.6-.1-2.2h1.1l.1 1.2c.5-.8 1.3-1.3 2.4-1.3 1.7 0 2.9 1.4 2.9 3.4 0 2.4-1.5 3.6-3.1 3.6-.9 0-1.7-.4-2.1-1.1v3.7h-1.2v-7.3zm1.3 1.8c0 .2 0 .4.1.5.2.9 1 1.4 1.8 1.4 1.3 0 2.1-1.1 2.1-2.6 0-1.3-.7-2.5-2-2.5-.8 0-1.6.6-1.9 1.5 0 .2-.1.3-.1.5V89z" class="st1"/>
  <path d="M59.8 88.6c0 1.7 1.1 2.4 2.3 2.4.9 0 1.4-.2 1.9-.4l.2.9c-.4.2-1.2.4-2.3.4-2.1 0-3.3-1.4-3.3-3.4s1.2-3.6 3.2-3.6c2.2 0 2.8 1.9 2.8 3.2v.6h-4.8zm3.6-.9c0-.8-.3-2-1.7-2-1.3 0-1.8 1.1-1.9 2h3.6z" class="st1"/>
  <path d="M66.1 86.8c0-.7 0-1.3-.1-1.8h1.1l.1 1.1c.3-.6 1.1-1.3 2.2-1.3.9 0 2.4.6 2.4 2.9v4h-1.2v-3.9c0-1.1-.4-2-1.6-2-.8 0-1.4.6-1.7 1.3-.1.2-.1.4-.1.6v4.1H66v-5z" class="st1"/>
  <path d="M79.7 81.8V90c0 .6 0 1.3.1 1.8h-1.1l-.1-1.2c-.4.8-1.2 1.3-2.3 1.3-1.6 0-2.9-1.4-2.9-3.4 0-2.3 1.4-3.6 3-3.6 1 0 1.7.5 2 1v-4h1.3zm-1.2 5.9c0-.2 0-.4-.1-.5-.2-.8-.9-1.4-1.8-1.4-1.3 0-2 1.1-2 2.6 0 1.4.7 2.5 2 2.5.8 0 1.6-.6 1.8-1.5 0-.2.1-.3.1-.5v-1.2z" class="st1"/>
  <path d="M86.1 83.1c0 .4-.3.8-.8.8-.4 0-.7-.3-.7-.8s.3-.8.8-.8c.4 0 .7.3.7.8zm-1.3 8.7V85H86v6.8h-1.2z" class="st1"/>
  <path d="M88 86.8c0-.7 0-1.3-.1-1.8H89l.1 1.1c.3-.6 1.1-1.3 2.2-1.3.9 0 2.4.6 2.4 2.9v4h-1.2v-3.9c0-1.1-.4-2-1.6-2-.8 0-1.4.6-1.7 1.3-.1.2-.1.4-.1.6v4.1H88v-5z" class="st1"/>
  <path d="M100 82.3v5.6c0 2.1.9 3 2.2 3 1.4 0 2.3-.9 2.3-3v-5.6h1.2v5.5c0 2.9-1.5 4.1-3.6 4.1-1.9 0-3.4-1.1-3.4-4v-5.6h1.3z" class="st1"/>
  <path d="M107.9 82.3h1.2v4.6c.3-.4.5-.7.7-1l2.9-3.5h1.5l-3.4 4 3.7 5.4h-1.4l-3.1-4.6-.9 1v3.6h-1.2v-9.5z" class="st1"/>
  <path d="M119.8 83.1c0 .4-.3.8-.8.8-.4 0-.7-.3-.7-.8s.3-.8.8-.8c.3 0 .7.3.7.8zm-1.4 8.7V85h1.2v6.8h-1.2z" class="st1"/>
  <path d="M121.5 90.5c.4.2 1 .5 1.6.5.9 0 1.3-.4 1.3-1s-.3-.9-1.2-1.2c-1.2-.4-1.8-1.1-1.8-1.9 0-1.1.9-2 2.3-2 .7 0 1.3.2 1.7.4l-.3.9c-.3-.2-.8-.4-1.4-.4-.7 0-1.1.4-1.1.9 0 .6.4.8 1.3 1.2 1.2.4 1.8 1 1.8 2 0 1.2-.9 2-2.5 2-.7 0-1.4-.2-1.9-.5l.2-.9z" class="st1"/>
  <path d="M60.3 100.6l-1.6.9-.2-.9 2-1.1h1v9.1h-1.2v-8z" class="st1"/>
  <path d="M64.9 107.8c0-.5.3-.9.8-.9s.8.4.8.9-.3.9-.9.9c-.4 0-.7-.4-.7-.9z" class="st1"/>
  <path d="M72.9 100.3c-.3 0-.6 0-.9.1-1.9.3-3 1.7-3.2 3.2.4-.6 1.2-1.1 2.2-1.1 1.6 0 2.7 1.2 2.7 2.9s-1.1 3.2-3 3.2-3.2-1.5-3.2-3.9c0-1.8.6-3.2 1.5-4.1.8-.7 1.8-1.2 2.9-1.3.4-.1.7-.1.9-.1v1.1zm-.4 5.3c0-1.3-.7-2.1-1.9-2.1-.7 0-1.4.4-1.8 1.1-.1.1-.1.3-.1.5 0 1.5.7 2.6 2 2.6 1.1.1 1.8-.8 1.8-2.1z" class="st1"/>
  <path d="M78.2 98.6h1.2v4.3c.4-.8 1.2-1.2 2.3-1.2 1.7 0 2.9 1.4 2.9 3.4 0 2.4-1.5 3.6-3.1 3.6-1 0-1.8-.4-2.3-1.3l-.1 1.1H78c0-.5.1-1.1.1-1.8v-8.1zm1.2 7.2c0 .2 0 .3.1.4.2.9 1 1.4 1.8 1.4 1.3 0 2.1-1.1 2.1-2.6 0-1.4-.7-2.5-2-2.5-.8 0-1.6.6-1.9 1.5 0 .2-.1.3-.1.5v1.3z" class="st1"/>
  <path d="M87.6 99.9c0 .4-.3.8-.8.8-.4 0-.7-.3-.7-.8s.3-.8.8-.8c.4 0 .7.3.7.8zm-1.4 8.7v-6.8h1.2v6.8h-1.2z" class="st1"/>
  <path d="M89.5 98.6h1.2v9.9h-1.2v-9.9z" class="st1"/>
  <path d="M92.8 98.6H94v9.9h-1.2v-9.9z" class="st1"/>
  <path d="M97.4 99.9c0 .4-.3.8-.8.8-.4 0-.7-.3-.7-.8s.3-.8.8-.8c.4 0 .7.3.7.8zm-1.3 8.7v-6.8h1.2v6.8h-1.2z" class="st1"/>
  <path d="M105.5 105.1c0 2.5-1.8 3.6-3.4 3.6-1.8 0-3.2-1.3-3.2-3.5 0-2.3 1.5-3.6 3.4-3.6s3.2 1.5 3.2 3.5zm-5.4.1c0 1.5.8 2.6 2 2.6s2.1-1.1 2.1-2.6c0-1.1-.6-2.6-2-2.6s-2.1 1.3-2.1 2.6z" class="st1"/>
  <path d="M107 103.6c0-.7 0-1.3-.1-1.8h1.1l.1 1.1c.3-.6 1.1-1.3 2.2-1.3.9 0 2.4.6 2.4 2.9v4h-1.2v-3.9c0-1.1-.4-2-1.6-2-.8 0-1.4.6-1.7 1.3-.1.2-.1.4-.1.6v4.1H107v-5z" class="st1"/>
  <path d="M76.5 115.9v5.6c0 2.1.9 3 2.2 3 1.4 0 2.3-.9 2.3-3v-5.6h1.2v5.5c0 2.9-1.5 4.1-3.6 4.1-1.9 0-3.4-1.1-3.4-4v-5.6h1.3z" class="st1"/>
  <path d="M84.2 123.9c.5.3 1.3.6 2.2.6 1.2 0 2-.7 2-1.6 0-.9-.5-1.4-1.8-1.9-1.5-.6-2.5-1.4-2.5-2.7 0-1.5 1.2-2.6 3.1-2.6 1 0 1.7.2 2.1.5l-.3 1c-.3-.2-.9-.4-1.8-.4-1.3 0-1.8.8-1.8 1.4 0 .9.6 1.3 1.9 1.8 1.6.6 2.4 1.4 2.4 2.8 0 1.5-1.1 2.7-3.3 2.7-.9 0-1.9-.3-2.4-.6l.2-1z" class="st1"/>
  <path d="M91.2 116.1c.7-.1 1.6-.2 2.6-.2 1.8 0 3 .4 3.8 1.2.9.8 1.3 1.9 1.3 3.4s-.5 2.8-1.4 3.7c-.9.9-2.4 1.4-4.2 1.4-.9 0-1.6 0-2.2-.1v-9.4zm1.3 8.3c.3 0 .8.1 1.2.1 2.6 0 4-1.5 4-4 0-2.2-1.2-3.6-3.8-3.6-.6 0-1.1.1-1.4.1v7.4z" class="st1"/>
</svg>
