<svg xmlns="http://www.w3.org/2000/svg" id="Layer_1" xmlns:xlink="http://www.w3.org/1999/xlink" viewBox="0 0 90 85">
  <style>
    .st0{clip-path:url(#SVGID_2_);fill:#065BA6;} .st1{clip-path:url(#SVGID_2_);fill:#FFFFFF;} .st2{clip-path:url(#SVGID_2_);fill:#E12529;}
  </style>
  <defs>
    <path id="SVGID_1_" d="M45.5 22.8C27.4-7.7-5.2 29 17.7 47.7c14.3 11.7 26 21.6 27.7 26.1 1.9-4.6 23-22.3 28.6-26.8C96 26 62-5.1 45.5 22.8z"/>
  </defs>
  <clipPath id="SVGID_2_">
    <use xlink:href="#SVGID_1_" overflow="visible"/>
  </clipPath>
  <path d="M39.8 13.5v31.9H13.1c-.4-.4-.7-.9-1-1.3-.2-.2-.3-.4-.4-.6-1.1-1.6-2-3.2-2.5-4.9l-.3-.9c-.2-.6-.4-1.2-.5-1.8v-.1c-.3-1.1-.4-2.3-.5-3.4v-.9c0-1 0-2 .2-3 0-.3.1-.6.2-.9.1-.7.3-1.5.5-2.2.7-2.3 1.7-4.4 3-6.4.5-.8 1-1.4 1.6-2.1.9-1 1.8-2 2.9-2.9.6-.5 1.2-1 1.9-1.5 1.1-.7 2.2-1.4 3.3-1.9.9-.4 1.9-.8 2.8-1.1l1.1-.3c.8 0 1.7-.2 2.5-.2 1.1-.1 2.2 0 3.2.1.9.1 1.7.3 2.6.6.7.2 1.5.6 2.2.9.3.2.6.3.9.5 1.1.7 2.1 1.5 3 2.4z" class="st0"/>
  <path d="M37.1 40.3l.7 1.4 1.5.2-1.1 1 .3 1.5-1.4-.7-1.3.7.3-1.5-1.1-1 1.5-.2z" class="st1"/>
  <path d="M32.1 40.3l.7 1.4 1.5.2-1.1 1 .3 1.5-1.4-.7-1.3.7.3-1.5-1.1-1 1.5-.2z" class="st1"/>
  <path d="M27.3 40.3l.7 1.4 1.5.2-1.1 1 .2 1.5-1.3-.7-1.3.7.3-1.5-1.1-1 1.5-.2z" class="st1"/>
  <path d="M22.5 40.3l.7 1.4 1.4.2-1 1 .2 1.5-1.3-.7-1.3.7.2-1.5-1-1 1.5-.2z" class="st1"/>
  <path d="M17.7 40.3l.7 1.4 1.4.2-1 1 .2 1.5-1.3-.7-1.3.7.2-1.5-1-1 1.4-.2z" class="st1"/>
  <path d="M12.8 40.3l.7 1.4 1.5.2-1.1 1 .2 1.5-1.3-.7-1.3.7.3-1.5-1.1-1 1.5-.2z" class="st1"/>
  <path d="M37.1 36.3l.7 1.3 1.5.2-1.1 1.1.3 1.4-1.4-.7-1.3.7.3-1.4-1.1-1.1 1.5-.2z" class="st1"/>
  <path d="M32.1 36.3l.7 1.3 1.5.2-1.1 1.1.3 1.4-1.4-.7-1.3.7.3-1.4-1.1-1.1 1.5-.2z" class="st1"/>
  <path d="M27.3 36.3l.7 1.3 1.5.2-1.1 1.1.2 1.4-1.3-.7-1.3.7.3-1.4-1.1-1.1 1.5-.2z" class="st1"/>
  <path d="M22.5 36.3l.7 1.3 1.4.2-1 1.1.2 1.4-1.3-.7-1.3.7.2-1.4-1-1.1 1.5-.2z" class="st1"/>
  <path d="M17.7 36.3l.7 1.3 1.4.2-1 1.1.2 1.4-1.3-.7-1.3.7.2-1.4-1-1.1 1.4-.2z" class="st1"/>
  <path d="M12.8 36.3l.7 1.3 1.5.2-1.1 1.1.2 1.4-1.3-.7-1.3.7.3-1.4-1.1-1.1 1.5-.2z" class="st1"/>
  <path d="M37.1 32.2l.7 1.4 1.5.2-1.1 1 .3 1.5-1.4-.7-1.3.7.3-1.5-1.1-1 1.5-.2z" class="st1"/>
  <path d="M32.1 32.2l.7 1.4 1.5.2-1.1 1 .3 1.5-1.4-.7-1.3.7.3-1.5-1.1-1 1.5-.2z" class="st1"/>
  <path d="M27.3 32.2l.7 1.4 1.5.2-1.1 1 .2 1.5-1.3-.7-1.3.7.3-1.5-1.1-1 1.5-.2z" class="st1"/>
  <path d="M22.5 32.2l.7 1.4 1.4.2-1 1 .2 1.5-1.3-.7-1.3.7.2-1.5-1-1 1.5-.2z" class="st1"/>
  <path d="M17.7 32.2l.7 1.4 1.4.2-1 1 .2 1.5-1.3-.7-1.3.7.2-1.5-1-1 1.4-.2z" class="st1"/>
  <path d="M12.8 32.2l.7 1.4 1.5.2-1.1 1 .2 1.5-1.3-.7-1.3.7.3-1.5-1.1-1 1.5-.2z" class="st1"/>
  <path d="M37.1 28.2l.7 1.3 1.5.2-1.1 1.1.3 1.4-1.4-.7-1.3.7.3-1.4-1.1-1.1 1.5-.2z" class="st1"/>
  <path d="M32.1 28.2l.7 1.3 1.5.2-1.1 1.1.3 1.4-1.4-.7-1.3.7.3-1.4-1.1-1.1 1.5-.2z" class="st1"/>
  <path d="M27.3 28.2l.7 1.3 1.5.2-1.1 1.1.2 1.4-1.3-.7-1.3.7.3-1.4-1.1-1.1 1.5-.2z" class="st1"/>
  <path d="M22.5 28.2l.7 1.3 1.4.2-1 1.1.2 1.4-1.3-.7-1.3.7.2-1.4-1-1.1 1.5-.2z" class="st1"/>
  <path d="M17.7 28.2l.7 1.3 1.4.2-1 1.1.2 1.4-1.3-.7-1.3.7.2-1.4-1-1.1 1.4-.2z" class="st1"/>
  <path d="M12.8 28.2l.7 1.3 1.5.2-1.1 1.1.2 1.4-1.3-.7-1.3.7.3-1.4-1.1-1.1 1.5-.2z" class="st1"/>
  <path d="M37.1 24.1l.7 1.4 1.5.2-1.1 1 .3 1.5-1.4-.7-1.3.7.3-1.5-1.1-1 1.5-.2z" class="st1"/>
  <path d="M32.1 24.1l.7 1.4 1.5.2-1.1 1 .3 1.5-1.4-.7-1.3.7.3-1.5-1.1-1 1.5-.2z" class="st1"/>
  <path d="M27.3 24.1l.7 1.4 1.5.2-1.1 1 .2 1.5-1.3-.7-1.3.7.3-1.5-1.1-1 1.5-.2z" class="st1"/>
  <path d="M22.5 24.1l.7 1.4 1.4.2-1 1 .2 1.5-1.3-.7-1.3.7.2-1.5-1-1 1.5-.2z" class="st1"/>
  <path d="M17.7 24.1l.7 1.4 1.4.2-1 1 .2 1.5-1.3-.7-1.3.7.2-1.5-1-1 1.4-.2z" class="st1"/>
  <path d="M12.8 24.1l.7 1.4 1.5.2-1.1 1 .2 1.5-1.3-.7-1.3.7.3-1.5-1.1-1 1.5-.2z" class="st1"/>
  <path d="M37.1 20.1l.7 1.3 1.5.2-1.1 1.1.3 1.4-1.4-.7-1.3.7.3-1.4-1.1-1.1 1.5-.2z" class="st1"/>
  <path d="M32.1 20.1l.7 1.3 1.5.2-1.1 1.1.3 1.4-1.4-.7-1.3.7.3-1.4-1.1-1.1 1.5-.2z" class="st1"/>
  <path d="M27.3 20.1l.7 1.3 1.5.2-1.1 1.1.2 1.4-1.3-.7-1.3.7.3-1.4-1.1-1.1 1.5-.2z" class="st1"/>
  <path d="M22.5 20.1l.7 1.3 1.4.2-1 1.1.2 1.4-1.3-.7-1.3.7.2-1.4-1-1.1 1.5-.2z" class="st1"/>
  <path d="M17.7 20.1l.7 1.3 1.4.2-1 1.1.2 1.4-1.3-.7-1.3.7.2-1.4-1-1.1 1.4-.2z" class="st1"/>
  <path d="M12.8 20.1l.7 1.3 1.5.2-1.1 1.1.2 1.4-1.3-.7-1.3.7.3-1.4-1.1-1.1 1.5-.2z" class="st1"/>
  <path d="M37.1 16l.7 1.4 1.5.2-1.1 1 .3 1.5-1.4-.7-1.3.7.3-1.5-1.1-1 1.5-.2z" class="st1"/>
  <path d="M32.1 16l.7 1.4 1.5.2-1.1 1 .3 1.5-1.4-.7-1.3.7.3-1.5-1.1-1 1.5-.2z" class="st1"/>
  <path d="M27.3 16l.7 1.4 1.5.2-1.1 1 .2 1.5-1.3-.7-1.3.7.3-1.5-1.1-1 1.5-.2z" class="st1"/>
  <path d="M22.5 16l.7 1.4 1.4.2-1 1 .2 1.5-1.3-.7-1.3.7.2-1.5-1-1 1.5-.2z" class="st1"/>
  <path d="M17.7 16l.7 1.4 1.4.2-1 1 .2 1.5-1.3-.7-1.3.7.2-1.5-1-1 1.4-.2z" class="st1"/>
  <path d="M11.7 19.1s0-.3 0 0c-.1.3-.2 1-.2 1l.8-.4.5-.3 1.3.7-.2-1.5 1.1-1-1-.2-.4-.1-.2-.4c-.5.3-1.7 2.2-1.7 2.2z" class="st1"/>
  <path d="M37.1 12l.7 1.3 1.5.2-1.1 1.1.3 1.4-1.4-.7-1.3.7.3-1.4-1.1-1.1 1.5-.2z" class="st1"/>
  <path d="M32.1 12l.7 1.3 1.5.2-1.1 1.1.3 1.4-1.4-.7-1.3.7.3-1.4-1.1-1.1 1.5-.2z" class="st1"/>
  <path d="M27.3 12l.7 1.3 1.5.2-1.1 1.1.2 1.4-1.3-.7-1.3.7.3-1.4-1.1-1.1 1.5-.2z" class="st1"/>
  <path d="M22.5 12l.7 1.3 1.4.2-1 1.1.2 1.4-1.3-.7-1.3.7.2-1.4-1-1.1 1.5-.2z" class="st1"/>
  <path d="M16.2 14.1l.5.5-.3 1.4 1.3-.7 1.3.7-.3-1.5 1.1-1-1.5-.2v-.1s-.2-.3-.3-.6c-.4.3-1.8 1.5-1.8 1.5z" class="st1"/>
  <path d="M8.8 30.8l.2 1.5-.4-.3-.9-.5c0-1 0-2 .2-3l.5.9h.3l1.1.2-1 1.2z" class="st1"/>
  <path d="M8.3 35.9l.8.4-.2-1v-.2l-.1-.3 1.1-1-1.2-.2h-.3l-.6-1.3s.1 2.8.5 3.6z" class="st1"/>
  <path d="M9.1 38.6l.5-.5.3-.3h-.4l-.7-.1z" class="st1"/>
  <path d="M9.4 26.1l-.6.6.2 1.2v.3h-.1l-.9-.5c.1-.7.3-1.5.5-2.2l.9.1h.3l-.3.5z" class="st1"/>
  <path d="M36 10.6l-.1.9-.1.3.3-.2.8-.4z" class="st1"/>
  <path d="M31.2 9.1c-.5 0 0 0 0 0l-1.2.2.6.6.4.4-.2 1.5 1.3-.7 1.3.7-.2-1.3v-.1l.6-.6c0-.1-1.8-.7-2.6-.7z" class="st1"/>
  <path d="M25.3 9.4l.6.6.3.3-.2 1.5 1.3-.7 1.3.7-.2-1.5.6-.5.5-.5L28 9c-.6-.1-2.7.4-2.7.4z" class="st1"/>
  <path d="M23.6 10.5l.2 1.2-1.3-.7-1.3.7v-.2l.1-.8c.9-.4 1.9-.8 2.8-1.1l-.6.6.1.3z" class="st1"/>
  <path d="M80.6 45.4H39.9v-5.1l44.1-.1c-.1 0-2 3.9-3.4 5.2z" class="st2"/>
  <path d="M75.4 55.5H14.9v-5.1l65.4-.1c.1 0-2.8 4-4.9 5.2z" class="st2"/>
  <path d="M75 65.5H14.5v-5.1l65.4-.1c0 .1-2.8 4-4.9 5.2z" class="st2"/>
  <path d="M75 75.7H14.5v-5.1l65.4-.1s-2.8 3.9-4.9 5.2z" class="st2"/>
  <path d="M85.6 35.1H39.8V30h49.6s-2.2 3.9-3.8 5.1z" class="st2"/>
  <path d="M85.6 25.1H39.8V20l49.6-.1c-.1 0-2.2 3.9-3.8 5.2z" class="st2"/>
  <path d="M85.6 15.3H39.8v-5.1l49.6-.1c-.1 0-2.2 3.9-3.8 5.2z" class="st2"/>
  <path d="M86.2 40.3H39.8v-5.1l48.2-.1s-.2 2.8-1.8 5.2z" class="st1"/>
  <path d="M78.8 50.4H13v-5.1l68.3-.1c0 .1-.2 2.8-2.5 5.2z" class="st1"/>
  <path d="M78.8 60.5H13v-5.1l68.3-.1s-.2 2.8-2.5 5.2z" class="st1"/>
  <path d="M78.8 70.6H13v-5.1l68.3-.1s-.2 2.8-2.5 5.2z" class="st1"/>
  <path d="M87.5 30.1H39.8V25l49.6-.1s-.2 2.8-1.9 5.2z" class="st1"/>
  <path d="M87.5 20.1H39.8V15l49.6-.1s-.2 2.8-1.9 5.2z" class="st1"/>
</svg>
