<svg xmlns="http://www.w3.org/2000/svg" id="Layer_1" viewBox="0 0 170 160">
  <style>
    .st0{fill:#D42380;} .st1{fill:#FFFFFF;}
  </style>
  <path d="M84.8 43.1C48.7-17.8-16.4 55.4 29.5 92.8 58 116.1 81.3 135.9 84.8 145c3.8-9.1 45.8-44.5 57-53.6 43.8-42-24.1-103.9-57-48.3z" class="st0"/>
  <path d="M28.9 48.7v5.6c0 2.1.9 3 2.2 3 1.4 0 2.3-.9 2.3-3v-5.6h1.2v5.5c0 2.9-1.5 4.1-3.6 4.1-1.9 0-3.4-1.1-3.4-4v-5.6h1.3z" class="st1"/>
  <path d="M36.7 48.7h1.2v4.6c.3-.4.5-.7.7-1l2.9-3.5H43l-3.4 4 3.7 5.4h-1.4l-3.1-4.6-.9 1v3.6h-1.2v-9.5z" class="st1"/>
  <path d="M49.3 59.3v-1.4c-.8 0-1.6-.3-2.1-.6l.3-.9c.5.3 1.2.6 2 .6 1 0 1.7-.6 1.7-1.4 0-.8-.5-1.2-1.6-1.7-1.4-.6-2.3-1.2-2.3-2.4s.8-2 2.1-2.3v-1.4h.9v1.4c.8 0 1.4.3 1.8.5l-.3.9c-.3-.2-.9-.5-1.8-.5-1.1 0-1.5.6-1.5 1.2 0 .7.5 1.1 1.7 1.6 1.4.6 2.2 1.3 2.2 2.5 0 1.1-.8 2.2-2.2 2.4v1.5h-.9z" class="st1"/>
  <path d="M56.7 50.2l-1.6.8-.2-.9 2-1.1h1v9.1h-1.2v-7.9z" class="st1"/>
  <path d="M62.9 53.3c-1-.5-1.5-1.3-1.5-2 0-1.4 1.2-2.4 2.8-2.4 1.8 0 2.7 1.1 2.7 2.2 0 .8-.4 1.6-1.5 2.1 1.1.4 1.8 1.3 1.8 2.4 0 1.6-1.4 2.6-3.1 2.6-1.9 0-3.1-1.1-3.1-2.5.1-1 .8-1.9 1.9-2.4zm3.1 2.5c0-1.1-.8-1.6-2-2-1.1.3-1.6 1-1.6 1.9 0 .9.7 1.7 1.8 1.7s1.8-.7 1.8-1.6zm-3.4-4.6c0 .9.7 1.4 1.7 1.7.8-.3 1.4-.8 1.4-1.7 0-.7-.4-1.5-1.5-1.5-1 0-1.6.7-1.6 1.5z" class="st1"/>
  <path d="M68.5 57.4c0-.5.3-.9.8-.9s.8.4.8.9-.3.9-.9.9c-.4 0-.7-.4-.7-.9z" class="st1"/>
  <path d="M76.5 49.9c-.3 0-.6 0-.9.1-1.9.3-3 1.7-3.2 3.2.4-.6 1.2-1.1 2.2-1.1 1.6 0 2.7 1.2 2.7 2.9s-1.1 3.2-3 3.2-3.2-1.5-3.2-3.9c0-1.8.6-3.2 1.5-4.1.8-.7 1.8-1.2 2.9-1.3.4-.1.7-.1.9-.1v1.1zm-.4 5.2c0-1.3-.7-2.1-1.9-2.1-.7 0-1.4.4-1.8 1.1-.1.1-.1.3-.1.5 0 1.5.7 2.6 2 2.6 1.1.1 1.8-.8 1.8-2.1z" class="st1"/>
  <path d="M81.8 48.2H83v4.3c.4-.8 1.2-1.2 2.3-1.2 1.7 0 2.9 1.4 2.9 3.4 0 2.4-1.5 3.6-3.1 3.6-1 0-1.8-.4-2.3-1.3l-.1 1.1h-1c0-.5.1-1.1.1-1.8v-8.1zm1.2 7.2c0 .2 0 .3.1.4.2.9 1 1.4 1.8 1.4 1.3 0 2.1-1.1 2.1-2.6 0-1.4-.7-2.5-2-2.5-.8 0-1.6.6-1.9 1.5 0 .2-.1.3-.1.5v1.3z" class="st1"/>
  <path d="M91.2 49.4c0 .4-.3.8-.8.8-.4 0-.7-.3-.7-.8s.3-.8.8-.8c.4.1.7.4.7.8zm-1.4 8.7v-6.8H91v6.8h-1.2z" class="st1"/>
  <path d="M93.1 48.2h1.2v9.9h-1.2v-9.9z" class="st1"/>
  <path d="M96.4 48.2h1.2v9.9h-1.2v-9.9z" class="st1"/>
  <path d="M101 49.4c0 .4-.3.8-.8.8-.4 0-.7-.3-.7-.8s.3-.8.8-.8c.4.1.7.4.7.8zm-1.3 8.7v-6.8h1.2v6.8h-1.2z" class="st1"/>
  <path d="M109.1 54.7c0 2.5-1.8 3.6-3.4 3.6-1.8 0-3.2-1.3-3.2-3.5 0-2.3 1.5-3.6 3.4-3.6s3.2 1.4 3.2 3.5zm-5.4 0c0 1.5.8 2.6 2 2.6s2.1-1.1 2.1-2.6c0-1.1-.6-2.6-2-2.6s-2.1 1.4-2.1 2.6z" class="st1"/>
  <path d="M110.6 53.2c0-.7 0-1.3-.1-1.8h1.1l.1 1.1c.3-.6 1.1-1.3 2.2-1.3.9 0 2.4.6 2.4 2.9v4h-1.2v-3.9c0-1.1-.4-2-1.6-2-.8 0-1.4.6-1.7 1.3-.1.2-.1.4-.1.6v4.1h-1.2v-5z" class="st1"/>
  <path d="M122.6 48.7v5.6c0 2.1.9 3 2.2 3 1.4 0 2.3-.9 2.3-3v-5.6h1.2v5.5c0 2.9-1.5 4.1-3.6 4.1-1.9 0-3.4-1.1-3.4-4v-5.6h1.3z" class="st1"/>
  <path d="M130.3 56.6c.5.3 1.3.6 2.2.6 1.2 0 2-.7 2-1.6 0-.9-.5-1.4-1.8-1.9-1.5-.6-2.5-1.4-2.5-2.7 0-1.5 1.2-2.6 3.1-2.6 1 0 1.7.2 2.1.5l-.3 1c-.3-.2-.9-.4-1.8-.4-1.3 0-1.8.8-1.8 1.4 0 .9.6 1.3 1.9 1.8 1.6.6 2.4 1.4 2.4 2.8 0 1.5-1.1 2.7-3.3 2.7-.9 0-1.9-.3-2.4-.6l.2-1z" class="st1"/>
  <path d="M137.4 48.8c.7-.1 1.6-.2 2.6-.2 1.8 0 3 .4 3.8 1.2.9.8 1.3 1.9 1.3 3.4s-.5 2.8-1.4 3.7c-.9.9-2.4 1.4-4.2 1.4-.9 0-1.6 0-2.2-.1v-9.4zm1.2 8.4c.3 0 .8.1 1.2.1 2.6 0 4-1.5 4-4 0-2.2-1.2-3.6-3.8-3.6-.6 0-1.1.1-1.4.1v7.4z" class="st1"/>
  <path d="M28.5 66.5h-2.9v-1h7v1h-2.9v8.4h-1.2v-8.4z" class="st1"/>
  <path d="M33.5 65h1.2v4.2c.2-.3.5-.7.9-.9.4-.2.8-.3 1.3-.3.9 0 2.4.6 2.4 2.9v4H38V71c0-1.1-.4-2-1.6-2-.8 0-1.4.6-1.7 1.2-.1.2-.1.4-.1.6v4.1h-1.2V65z" class="st1"/>
  <path d="M42 71.8c0 1.7 1.1 2.4 2.3 2.4.9 0 1.4-.2 1.9-.4l.2.9c-.4.2-1.2.4-2.3.4-2.1 0-3.3-1.4-3.3-3.4s1.2-3.6 3.2-3.6c2.2 0 2.8 1.9 2.8 3.2v.6H42zm3.6-.9c0-.8-.3-2-1.7-2-1.3 0-1.8 1.1-1.9 2h3.6z" class="st1"/>
  <path d="M57.4 71.5c0 2.5-1.8 3.6-3.4 3.6-1.8 0-3.2-1.3-3.2-3.5 0-2.3 1.5-3.6 3.4-3.6s3.2 1.4 3.2 3.5zm-5.4 0c0 1.5.8 2.6 2 2.6s2.1-1.1 2.1-2.6c0-1.1-.6-2.6-2-2.6S52 70.3 52 71.5z" class="st1"/>
  <path d="M59.3 68.1l1.3 3.8c.2.6.4 1.2.5 1.8.2-.6.3-1.1.6-1.8l1.3-3.8h1.3l-2.7 6.8h-1.2L58 68.1h1.3z" class="st1"/>
  <path d="M66.1 71.8c0 1.7 1.1 2.4 2.3 2.4.9 0 1.4-.2 1.9-.4l.2.9c-.4.2-1.2.4-2.3.4-2.1 0-3.3-1.4-3.3-3.4s1.2-3.6 3.2-3.6c2.2 0 2.8 1.9 2.8 3.2v.6h-4.8zm3.6-.9c0-.8-.3-2-1.7-2-1.3 0-1.8 1.1-1.9 2h3.6z" class="st1"/>
  <path d="M72.5 70.3c0-.8 0-1.5-.1-2.1h1.1l.1 1.3c.3-.9 1.1-1.5 1.9-1.5h.3v1.2h-.4c-.9 0-1.5.6-1.7 1.6V75h-1.2v-4.7z" class="st1"/>
  <path d="M81.7 73.3c0 .6 0 1.2.1 1.6h-1.1l-.1-.9c-.4.5-1.1 1-2.1 1-1.4 0-2.1-1-2.1-1.9 0-1.6 1.5-2.5 4.1-2.5v-.1c0-.5-.2-1.6-1.5-1.6-.6 0-1.3.2-1.8.5l-.3-.8c.6-.4 1.4-.6 2.2-.6 2.1 0 2.6 1.4 2.6 2.8v2.5zm-1.2-1.8c-1.3 0-2.9.2-2.9 1.5 0 .8.5 1.2 1.1 1.2.9 0 1.5-.6 1.7-1.1 0-.1.1-.3.1-.4v-1.2z" class="st1"/>
  <path d="M83.7 65h1.2v9.9h-1.2V65z" class="st1"/>
  <path d="M87 65h1.2v9.9H87V65z" class="st1"/>
  <path d="M94 71.8c0 1.7 1.1 2.4 2.3 2.4.9 0 1.4-.2 1.9-.4l.2.9c-.4.2-1.2.4-2.3.4-2.1 0-3.3-1.4-3.3-3.4s1.2-3.6 3.2-3.6c2.2 0 2.8 1.9 2.8 3.2v.6H94zm3.6-.9c0-.8-.3-2-1.7-2-1.3 0-1.8 1.1-1.9 2h3.6z" class="st1"/>
  <path d="M100.8 68.1l1 1.5c.3.4.5.7.7 1.1.2-.4.4-.7.7-1.1l.9-1.4h1.3l-2.3 3.3 2.4 3.5h-1.4l-1-1.5c-.3-.4-.5-.8-.7-1.2-.2.4-.4.8-.7 1.2l-1 1.5h-1.4l2.4-3.5-2.3-3.3h1.4z" class="st1"/>
  <path d="M106.7 70.4c0-.9 0-1.6-.1-2.2h1.1l.1 1.2c.5-.8 1.3-1.3 2.4-1.3 1.7 0 2.9 1.4 2.9 3.4 0 2.4-1.5 3.6-3.1 3.6-.9 0-1.7-.4-2.1-1.1v3.7h-1.2v-7.3zm1.3 1.8c0 .2 0 .4.1.5.2.9 1 1.4 1.8 1.4 1.3 0 2.1-1.1 2.1-2.6 0-1.3-.7-2.5-2-2.5-.8 0-1.6.6-1.9 1.5 0 .2-.1.3-.1.5v1.2z" class="st1"/>
  <path d="M115.4 71.8c0 1.7 1.1 2.4 2.3 2.4.9 0 1.4-.2 1.9-.4l.2.9c-.4.2-1.2.4-2.3.4-2.1 0-3.3-1.4-3.3-3.4s1.2-3.6 3.2-3.6c2.2 0 2.8 1.9 2.8 3.2v.6h-4.8zm3.6-.9c0-.8-.3-2-1.7-2-1.3 0-1.8 1.1-1.9 2h3.6z" class="st1"/>
  <path d="M126.6 74.7c-.3.2-1 .4-1.9.4-2 0-3.4-1.4-3.4-3.5s1.4-3.6 3.6-3.6c.7 0 1.4.2 1.7.4l-.3.9c-.3-.2-.8-.3-1.4-.3-1.6 0-2.4 1.2-2.4 2.6 0 1.6 1 2.5 2.4 2.5.7 0 1.2-.2 1.5-.3l.2.9z" class="st1"/>
  <path d="M129.7 66.5v1.6h1.8v.9h-1.8v3.7c0 .8.2 1.3.9 1.3.3 0 .5 0 .7-.1l.1.9c-.2.1-.6.2-1.1.2-.6 0-1-.2-1.3-.5-.3-.4-.5-1-.5-1.8V69h-1.1v-.9h1.1v-1.3l1.2-.3z" class="st1"/>
  <path d="M133.4 71.8c0 1.7 1.1 2.4 2.3 2.4.9 0 1.4-.2 1.9-.4l.2.9c-.4.2-1.2.4-2.3.4-2.1 0-3.3-1.4-3.3-3.4s1.2-3.6 3.2-3.6c2.2 0 2.8 1.9 2.8 3.2v.6h-4.8zm3.6-.9c0-.8-.3-2-1.7-2-1.3 0-1.8 1.1-1.9 2h3.6z" class="st1"/>
  <path d="M145.6 65v8.2c0 .6 0 1.3.1 1.8h-1.1l-.1-1.2c-.4.8-1.2 1.3-2.3 1.3-1.6 0-2.9-1.4-2.9-3.4 0-2.3 1.4-3.6 3-3.6 1 0 1.7.5 2 1v-4h1.3zm-1.2 5.9c0-.2 0-.4-.1-.5-.2-.8-.9-1.4-1.8-1.4-1.3 0-2 1.1-2 2.6 0 1.4.7 2.5 2 2.5.8 0 1.6-.6 1.8-1.5 0-.2.1-.3.1-.5v-1.2z" class="st1"/>
  <path d="M45 90.5c.4.2 1 .5 1.6.5.9 0 1.3-.4 1.3-1s-.3-.9-1.2-1.2c-1.2-.4-1.8-1.1-1.8-1.9 0-1.1.9-2 2.3-2 .7 0 1.3.2 1.7.4l-.3.9c-.3-.2-.8-.4-1.4-.4-.7 0-1.1.4-1.1.9 0 .6.4.8 1.3 1.2 1.2.4 1.8 1 1.8 2 0 1.2-.9 2-2.5 2-.7 0-1.4-.2-1.9-.5l.2-.9z" class="st1"/>
  <path d="M50.7 87.2c0-.9 0-1.6-.1-2.2h1.1l.1 1.2c.5-.8 1.3-1.3 2.4-1.3 1.7 0 2.9 1.4 2.9 3.4 0 2.4-1.5 3.6-3.1 3.6-.9 0-1.7-.4-2.1-1.1v3.7h-1.2v-7.3zM52 89c0 .2 0 .4.1.5.2.9 1 1.4 1.8 1.4 1.3 0 2.1-1.1 2.1-2.6 0-1.3-.7-2.5-2-2.5-.8 0-1.6.6-1.9 1.5 0 .2-.1.3-.1.5V89z" class="st1"/>
  <path d="M59.4 88.6c0 1.7 1.1 2.4 2.3 2.4.9 0 1.4-.2 1.9-.4l.2.9c-.4.2-1.2.4-2.3.4-2.1 0-3.3-1.4-3.3-3.4s1.2-3.6 3.2-3.6c2.2 0 2.8 1.9 2.8 3.2v.6h-4.8zm3.6-.9c0-.8-.3-2-1.7-2-1.3 0-1.8 1.1-1.9 2H63z" class="st1"/>
  <path d="M65.7 86.8c0-.7 0-1.3-.1-1.8h1.1l.1 1.1c.3-.6 1.1-1.3 2.2-1.3.9 0 2.4.6 2.4 2.9v4h-1.2v-3.9c0-1.1-.4-2-1.6-2-.8 0-1.4.6-1.7 1.3.1.1.1.3.1.5v4.1h-1.2v-4.9z" class="st1"/>
  <path d="M79.3 81.8V90c0 .6 0 1.3.1 1.8h-1.1l-.1-1.2c-.4.8-1.2 1.3-2.3 1.3-1.6 0-2.9-1.4-2.9-3.4 0-2.3 1.4-3.6 3-3.6 1 0 1.7.5 2 1v-4h1.3zm-1.2 5.9c0-.2 0-.4-.1-.5-.2-.8-.9-1.4-1.8-1.4-1.3 0-2 1.1-2 2.6 0 1.4.7 2.5 2 2.5.8 0 1.6-.6 1.8-1.5 0-.2.1-.3.1-.5v-1.2z" class="st1"/>
  <path d="M85.7 83c0 .4-.3.8-.8.8-.4 0-.7-.3-.7-.8s.3-.8.8-.8c.4.1.7.4.7.8zm-1.3 8.7v-6.8h1.2v6.8h-1.2z" class="st1"/>
  <path d="M87.6 86.8c0-.7 0-1.3-.1-1.8h1.1l.1 1.1c.3-.6 1.1-1.3 2.2-1.3.9 0 2.4.6 2.4 2.9v4h-1.2v-3.9c0-1.1-.4-2-1.6-2-.8 0-1.4.6-1.7 1.3-.1.2-.1.4-.1.6v4.1h-1.2v-5z" class="st1"/>
  <path d="M99.6 82.3v5.6c0 2.1.9 3 2.2 3 1.4 0 2.3-.9 2.3-3v-5.6h1.2v5.5c0 2.9-1.5 4.1-3.6 4.1-1.9 0-3.4-1.1-3.4-4v-5.6h1.3z" class="st1"/>
  <path d="M107.3 90.2c.5.3 1.3.6 2.2.6 1.2 0 2-.7 2-1.6 0-.9-.5-1.4-1.8-1.9-1.5-.6-2.5-1.4-2.5-2.7 0-1.5 1.2-2.6 3.1-2.6 1 0 1.7.2 2.1.5l-.3 1c-.3-.2-.9-.4-1.8-.4-1.3 0-1.8.8-1.8 1.4 0 .9.6 1.3 1.9 1.8 1.6.6 2.4 1.4 2.4 2.8 0 1.5-1.1 2.7-3.3 2.7-.9 0-1.9-.3-2.4-.6l.2-1z" class="st1"/>
  <path d="M118.7 83c0 .4-.3.8-.8.8-.4 0-.7-.3-.7-.8s.3-.8.8-.8c.4.1.7.4.7.8zm-1.4 8.7v-6.8h1.2v6.8h-1.2z" class="st1"/>
  <path d="M120.4 90.5c.4.2 1 .5 1.6.5.9 0 1.3-.4 1.3-1s-.3-.9-1.2-1.2c-1.2-.4-1.8-1.1-1.8-1.9 0-1.1.9-2 2.3-2 .7 0 1.3.2 1.7.4l-.3.9c-.3-.2-.8-.4-1.4-.4-.7 0-1.1.4-1.1.9 0 .6.4.8 1.3 1.2 1.2.4 1.8 1 1.8 2 0 1.2-.9 2-2.5 2-.7 0-1.4-.2-1.9-.5l.2-.9z" class="st1"/>
  <path d="M55.9 100.6l-1.6.9-.2-.9 2-1.1h1v9.1h-1.2v-8z" class="st1"/>
  <path d="M62.1 103.7c-1-.5-1.5-1.3-1.5-2 0-1.4 1.2-2.4 2.8-2.4 1.8 0 2.7 1.1 2.7 2.2 0 .8-.4 1.6-1.5 2.1 1.1.4 1.8 1.3 1.8 2.4 0 1.6-1.4 2.6-3.1 2.6-1.9 0-3.1-1.1-3.1-2.5.1-1 .8-1.9 1.9-2.4zm3.1 2.5c0-1.1-.8-1.6-2-2-1.1.3-1.6 1-1.6 1.9 0 .9.7 1.7 1.8 1.7s1.8-.7 1.8-1.6zm-3.4-4.6c0 .9.7 1.4 1.7 1.7.8-.3 1.4-.8 1.4-1.7 0-.7-.4-1.5-1.5-1.5-1 0-1.6.7-1.6 1.5z" class="st1"/>
  <path d="M67.7 107.8c0-.5.3-.9.8-.9s.8.4.8.9-.3.9-.9.9c-.3 0-.7-.4-.7-.9z" class="st1"/>
  <path d="M75.7 100.3c-.3 0-.6 0-.9.1-1.9.3-3 1.7-3.2 3.2.4-.6 1.2-1.1 2.2-1.1 1.6 0 2.7 1.2 2.7 2.9s-1.1 3.2-3 3.2-3.2-1.5-3.2-3.9c0-1.8.6-3.2 1.5-4.1.8-.7 1.8-1.2 2.9-1.3.4-.1.7-.1.9-.1v1.1zm-.3 5.2c0-1.3-.7-2.1-1.9-2.1-.7 0-1.4.4-1.8 1.1-.1.1-.1.3-.1.5 0 1.5.7 2.6 2 2.6 1.1.1 1.8-.8 1.8-2.1z" class="st1"/>
  <path d="M81.1 98.6h1.2v4.3c.4-.8 1.2-1.2 2.3-1.2 1.7 0 2.9 1.4 2.9 3.4 0 2.4-1.5 3.6-3.1 3.6-1 0-1.8-.4-2.3-1.3l-.1 1.1h-1c0-.5.1-1.1.1-1.8v-8.1zm1.2 7.2c0 .2 0 .3.1.4.2.9 1 1.4 1.8 1.4 1.3 0 2.1-1.1 2.1-2.6 0-1.4-.7-2.5-2-2.5-.8 0-1.6.6-1.9 1.5 0 .2-.1.3-.1.5v1.3z" class="st1"/>
  <path d="M90.4 99.8c0 .4-.3.8-.8.8-.4 0-.7-.3-.7-.8s.3-.8.8-.8c.4.1.7.4.7.8zm-1.4 8.7v-6.8h1.2v6.8H89z" class="st1"/>
  <path d="M92.3 98.6h1.2v9.9h-1.2v-9.9z" class="st1"/>
  <path d="M95.6 98.6h1.2v9.9h-1.2v-9.9z" class="st1"/>
  <path d="M100.3 99.8c0 .4-.3.8-.8.8-.4 0-.7-.3-.7-.8s.3-.8.8-.8c.4.1.7.4.7.8zm-1.4 8.7v-6.8h1.2v6.8h-1.2z" class="st1"/>
  <path d="M108.3 105.1c0 2.5-1.8 3.6-3.4 3.6-1.8 0-3.2-1.3-3.2-3.5 0-2.3 1.5-3.6 3.4-3.6s3.2 1.4 3.2 3.5zm-5.3 0c0 1.5.8 2.6 2 2.6s2.1-1.1 2.1-2.6c0-1.1-.6-2.6-2-2.6-1.5 0-2.1 1.4-2.1 2.6z" class="st1"/>
  <path d="M109.9 103.6c0-.7 0-1.3-.1-1.8h1.1l.1 1.1c.3-.6 1.1-1.3 2.2-1.3.9 0 2.4.6 2.4 2.9v4h-1.2v-3.9c0-1.1-.4-2-1.6-2-.8 0-1.4.6-1.7 1.3-.1.2-.1.4-.1.6v4.1h-1.2v-5z" class="st1"/>
  <path d="M75.8 115.9v5.6c0 2.1.9 3 2.2 3 1.4 0 2.3-.9 2.3-3v-5.6h1.2v5.5c0 2.9-1.5 4.1-3.6 4.1-1.9 0-3.4-1.1-3.4-4v-5.6h1.3z" class="st1"/>
  <path d="M83.4 123.8c.5.3 1.3.6 2.2.6 1.2 0 2-.7 2-1.6 0-.9-.5-1.4-1.8-1.9-1.5-.6-2.5-1.4-2.5-2.7 0-1.5 1.2-2.6 3.1-2.6 1 0 1.7.2 2.1.5l-.3 1c-.3-.2-.9-.4-1.8-.4-1.3 0-1.8.8-1.8 1.4 0 .9.6 1.3 1.9 1.8 1.6.6 2.4 1.4 2.4 2.8 0 1.5-1.1 2.7-3.3 2.7-.9 0-1.9-.3-2.4-.6l.2-1z" class="st1"/>
  <path d="M90.5 116c.7-.1 1.6-.2 2.6-.2 1.8 0 3 .4 3.8 1.2.9.8 1.3 1.9 1.3 3.4s-.5 2.8-1.4 3.7c-.9.9-2.4 1.4-4.2 1.4-.9 0-1.6 0-2.2-.1V116zm1.2 8.4c.3 0 .8.1 1.2.1 2.6 0 4-1.5 4-4 0-2.2-1.2-3.6-3.8-3.6-.6 0-1.1.1-1.4.1v7.4z" class="st1"/>
</svg>
